G04*
G04 #@! TF.GenerationSoftware,Altium Limited,Altium Designer,22.4.2 (48)*
G04*
G04 Layer_Physical_Order=4*
G04 Layer_Color=16711680*
%FSLAX44Y44*%
%MOMM*%
G71*
G04*
G04 #@! TF.SameCoordinates,A2904C07-0F36-4402-9195-DF30BD9EA298*
G04*
G04*
G04 #@! TF.FilePolarity,Positive*
G04*
G01*
G75*
%ADD14C,0.1500*%
%ADD68C,0.1750*%
%ADD69C,0.1670*%
%ADD76O,1.1000X2.6000*%
%ADD77O,1.1000X2.1000*%
%ADD78C,2.8000*%
%ADD79C,3.0000*%
%ADD80C,3.5000*%
%ADD81C,1.5900*%
%ADD82R,1.5900X1.5900*%
%ADD83C,1.4500*%
%ADD84C,0.4000*%
%ADD95R,3.3500X1.6500*%
G36*
X559485Y888448D02*
X561371Y887788D01*
X563063Y886726D01*
X564476Y885313D01*
X565538Y883621D01*
X566198Y881735D01*
X566441Y879578D01*
X566441Y11922D01*
X566198Y9765D01*
X565538Y7879D01*
X564476Y6187D01*
X563063Y4774D01*
X561371Y3712D01*
X559485Y3052D01*
X557328Y2809D01*
X12172D01*
X10015Y3052D01*
X8129Y3711D01*
X6437Y4774D01*
X5024Y6187D01*
X3961Y7879D01*
X3302Y9765D01*
X3059Y11922D01*
X3058Y879578D01*
X3302Y881735D01*
X3961Y883621D01*
X5024Y885313D01*
X6437Y886726D01*
X8129Y887788D01*
X10015Y888448D01*
X12172Y888691D01*
X21621D01*
X22082Y887790D01*
X22206Y887191D01*
X21027Y885655D01*
X20217Y883699D01*
X19941Y881600D01*
Y876005D01*
X28050D01*
X36159D01*
Y881600D01*
X35883Y883699D01*
X35073Y885655D01*
X33894Y887191D01*
X34018Y887790D01*
X34479Y888691D01*
X114020D01*
X114481Y887792D01*
X114606Y887191D01*
X113427Y885655D01*
X112617Y883699D01*
X112341Y881600D01*
Y876005D01*
X120450D01*
X128559D01*
Y881600D01*
X128283Y883699D01*
X127473Y885655D01*
X126294Y887191D01*
X126419Y887792D01*
X126880Y888691D01*
X557328D01*
X559485Y888448D01*
D02*
G37*
%LPC*%
G36*
X128559Y872195D02*
X122355D01*
Y858742D01*
X122549Y858767D01*
X124505Y859577D01*
X126184Y860866D01*
X127473Y862545D01*
X128283Y864501D01*
X128559Y866600D01*
Y872195D01*
D02*
G37*
G36*
X118545D02*
X112341D01*
Y866600D01*
X112617Y864501D01*
X113427Y862545D01*
X114716Y860866D01*
X116395Y859577D01*
X118351Y858767D01*
X118545Y858742D01*
Y872195D01*
D02*
G37*
G36*
X36159Y872195D02*
X29955D01*
Y858741D01*
X30149Y858767D01*
X32105Y859577D01*
X33784Y860866D01*
X35073Y862545D01*
X35883Y864501D01*
X36159Y866600D01*
Y872195D01*
D02*
G37*
G36*
X26145D02*
X19941D01*
Y866600D01*
X20217Y864501D01*
X21027Y862545D01*
X22316Y860866D01*
X23995Y859577D01*
X25951Y858767D01*
X26145Y858741D01*
Y872195D01*
D02*
G37*
G36*
X530224Y865990D02*
X530155D01*
Y847855D01*
X548290D01*
Y847924D01*
X547520Y851796D01*
X546009Y855443D01*
X543816Y858725D01*
X541025Y861516D01*
X537743Y863709D01*
X534095Y865220D01*
X530224Y865990D01*
D02*
G37*
G36*
X457224D02*
X457155D01*
Y847855D01*
X475290D01*
Y847924D01*
X474520Y851796D01*
X473009Y855443D01*
X470816Y858725D01*
X468025Y861516D01*
X464743Y863709D01*
X461095Y865220D01*
X457224Y865990D01*
D02*
G37*
G36*
X526345D02*
X526276D01*
X522405Y865220D01*
X518758Y863709D01*
X515475Y861516D01*
X512684Y858725D01*
X510491Y855443D01*
X508980Y851796D01*
X508210Y847924D01*
Y847855D01*
X526345D01*
Y865990D01*
D02*
G37*
G36*
X453345D02*
X453276D01*
X449404Y865220D01*
X445757Y863709D01*
X442475Y861516D01*
X439684Y858725D01*
X437491Y855443D01*
X435980Y851796D01*
X435210Y847924D01*
Y847855D01*
X453345D01*
Y865990D01*
D02*
G37*
G36*
X205001Y842250D02*
X202499D01*
X201000Y841848D01*
X199501Y842250D01*
X196999D01*
X194583Y841603D01*
X192417Y840352D01*
X190648Y838583D01*
X189397Y836417D01*
X188750Y834001D01*
Y831499D01*
X189397Y829083D01*
X190508Y827160D01*
Y695937D01*
X190508Y695937D01*
X190795Y693761D01*
X191634Y691733D01*
X192970Y689992D01*
X223327Y659635D01*
X223327Y659635D01*
X224130Y659019D01*
X224478Y658417D01*
X226247Y656648D01*
X228413Y655397D01*
X230829Y654750D01*
X233331D01*
X234008Y654230D01*
Y644943D01*
X233648Y644583D01*
X232397Y642417D01*
X231750Y640001D01*
Y637499D01*
X232397Y635083D01*
X233648Y632917D01*
X235417Y631148D01*
X237583Y629897D01*
X239999Y629250D01*
X242501D01*
X244500Y629786D01*
X246499Y629250D01*
X249001D01*
X251417Y629897D01*
X253583Y631148D01*
X255352Y632917D01*
X256603Y635083D01*
X257250Y637499D01*
Y640001D01*
X256603Y642417D01*
X255352Y644583D01*
X254992Y644943D01*
Y718040D01*
X254706Y720216D01*
X253866Y722243D01*
X252530Y723985D01*
X252530Y723985D01*
X236492Y740022D01*
Y826557D01*
X236852Y826917D01*
X238103Y829083D01*
X238750Y831499D01*
Y834001D01*
X238103Y836417D01*
X236852Y838583D01*
X235083Y840352D01*
X232917Y841603D01*
X230501Y842250D01*
X227999D01*
X226000Y841714D01*
X224001Y842250D01*
X221499D01*
X219083Y841603D01*
X216917Y840352D01*
X215148Y838583D01*
X214074Y836722D01*
X213302Y836562D01*
X213198D01*
X212426Y836722D01*
X211352Y838583D01*
X209583Y840352D01*
X207417Y841603D01*
X205001Y842250D01*
D02*
G37*
G36*
X548290Y844045D02*
X530155D01*
Y825910D01*
X530224D01*
X534095Y826680D01*
X537743Y828191D01*
X541025Y830384D01*
X543816Y833175D01*
X546009Y836458D01*
X547520Y840105D01*
X548290Y843976D01*
Y844045D01*
D02*
G37*
G36*
X526345D02*
X508210D01*
Y843976D01*
X508980Y840105D01*
X510491Y836458D01*
X512684Y833175D01*
X515475Y830384D01*
X518758Y828191D01*
X522405Y826680D01*
X526276Y825910D01*
X526345D01*
Y844045D01*
D02*
G37*
G36*
X475290D02*
X457155D01*
Y825910D01*
X457224D01*
X461095Y826680D01*
X464743Y828191D01*
X468025Y830384D01*
X470816Y833175D01*
X473009Y836458D01*
X474520Y840105D01*
X475290Y843976D01*
Y844045D01*
D02*
G37*
G36*
X453345D02*
X435210D01*
Y843976D01*
X435980Y840105D01*
X437491Y836458D01*
X439684Y833175D01*
X442475Y830384D01*
X445757Y828191D01*
X449404Y826680D01*
X453276Y825910D01*
X453345D01*
Y844045D01*
D02*
G37*
G36*
X67446Y840750D02*
X66054D01*
X64767Y840217D01*
X63783Y839233D01*
X63250Y837946D01*
Y836554D01*
X63783Y835267D01*
X64767Y834283D01*
X66054Y833750D01*
X67446D01*
X68733Y834283D01*
X69406Y834956D01*
X79800D01*
X81956Y832800D01*
Y826539D01*
X80766Y825626D01*
X80354Y825736D01*
X79379Y826485D01*
X79289Y826522D01*
X79205Y826838D01*
X78152Y828662D01*
X76662Y830152D01*
X74838Y831205D01*
X72803Y831750D01*
X70697D01*
X68662Y831205D01*
X66838Y830152D01*
X65348Y828662D01*
X64295Y826838D01*
X63750Y824803D01*
Y822697D01*
X64295Y820662D01*
X65348Y818838D01*
X66838Y817348D01*
X68662Y816295D01*
X69668Y816026D01*
X70117Y815576D01*
X71553Y814474D01*
X72014Y814284D01*
X72848Y812838D01*
X74338Y811348D01*
X76162Y810295D01*
X78197Y809750D01*
X80303D01*
X82338Y810295D01*
X84162Y811348D01*
X85652Y812838D01*
X86705Y814662D01*
X87250Y816697D01*
Y818803D01*
X86934Y819984D01*
X87217Y820267D01*
X87750Y821554D01*
Y822946D01*
X87217Y824233D01*
X86544Y824906D01*
Y833750D01*
X86544Y833750D01*
X86369Y834628D01*
X85872Y835372D01*
X85872Y835372D01*
X82372Y838872D01*
X81628Y839369D01*
X80750Y839544D01*
X69406D01*
X68733Y840217D01*
X67446Y840750D01*
D02*
G37*
G36*
X119355Y833359D02*
Y822405D01*
X125559D01*
Y825500D01*
X125283Y827599D01*
X124473Y829555D01*
X123184Y831234D01*
X121505Y832523D01*
X119549Y833333D01*
X119355Y833359D01*
D02*
G37*
G36*
X115545Y833359D02*
X115351Y833333D01*
X113395Y832523D01*
X111716Y831234D01*
X110427Y829555D01*
X109617Y827599D01*
X109341Y825500D01*
Y822405D01*
X115545D01*
Y833359D01*
D02*
G37*
G36*
X32955Y833359D02*
Y822405D01*
X39159D01*
Y825500D01*
X38883Y827599D01*
X38073Y829555D01*
X36784Y831234D01*
X35105Y832523D01*
X33149Y833333D01*
X32955Y833359D01*
D02*
G37*
G36*
X29145D02*
X28951Y833333D01*
X26995Y832523D01*
X25316Y831234D01*
X24027Y829555D01*
X23217Y827599D01*
X22941Y825500D01*
Y822405D01*
X29145D01*
Y833359D01*
D02*
G37*
G36*
X115545Y818595D02*
X109341D01*
Y815500D01*
X109617Y813401D01*
X110427Y811445D01*
X111716Y809766D01*
X113395Y808477D01*
X115351Y807667D01*
X115545Y807642D01*
Y818595D01*
D02*
G37*
G36*
X29145Y818595D02*
X22941D01*
Y815500D01*
X23217Y813401D01*
X24027Y811445D01*
X25316Y809766D01*
X26995Y808477D01*
X28951Y807667D01*
X29145Y807642D01*
Y818595D01*
D02*
G37*
G36*
X39159D02*
X32955D01*
Y807642D01*
X33149Y807667D01*
X35105Y808477D01*
X36784Y809766D01*
X38073Y811445D01*
X38883Y813401D01*
X39159Y815500D01*
Y818595D01*
D02*
G37*
G36*
X125559Y818595D02*
X119355D01*
Y807642D01*
X119549Y807667D01*
X121505Y808477D01*
X123184Y809766D01*
X124473Y811445D01*
X125283Y813401D01*
X125559Y815500D01*
Y818595D01*
D02*
G37*
G36*
X487240Y813240D02*
X478655D01*
Y804655D01*
X487240D01*
Y813240D01*
D02*
G37*
G36*
X474845D02*
X466260D01*
Y804655D01*
X474845D01*
Y813240D01*
D02*
G37*
G36*
X507994Y812200D02*
X505506D01*
X503102Y811556D01*
X500948Y810312D01*
X499188Y808552D01*
X497944Y806398D01*
X497300Y803994D01*
Y801506D01*
X497944Y799102D01*
X499188Y796948D01*
X500948Y795188D01*
X503102Y793944D01*
X505506Y793300D01*
X507994D01*
X510398Y793944D01*
X512552Y795188D01*
X514312Y796948D01*
X515556Y799102D01*
X516200Y801506D01*
Y803994D01*
X515556Y806398D01*
X514312Y808552D01*
X512552Y810312D01*
X510398Y811556D01*
X507994Y812200D01*
D02*
G37*
G36*
X487240Y800845D02*
X478655D01*
Y792260D01*
X487240D01*
Y800845D01*
D02*
G37*
G36*
X474845D02*
X466260D01*
Y792260D01*
X474845D01*
Y800845D01*
D02*
G37*
G36*
X141125Y679750D02*
X137875D01*
X134687Y679116D01*
X131684Y677872D01*
X128982Y676066D01*
X126683Y673768D01*
X124878Y671066D01*
X123634Y668063D01*
X123000Y664875D01*
Y661625D01*
X123634Y658437D01*
X124878Y655434D01*
X126683Y652732D01*
X128982Y650434D01*
X131684Y648628D01*
X134687Y647384D01*
X137875Y646750D01*
X141125D01*
X144313Y647384D01*
X147316Y648628D01*
X150018Y650434D01*
X152316Y652732D01*
X154122Y655434D01*
X155366Y658437D01*
X156000Y661625D01*
Y664875D01*
X155366Y668063D01*
X154122Y671066D01*
X152316Y673768D01*
X150018Y676066D01*
X147316Y677872D01*
X144313Y679116D01*
X141125Y679750D01*
D02*
G37*
G36*
X341446Y836250D02*
X340054D01*
X338767Y835717D01*
X337783Y834733D01*
X337250Y833446D01*
Y832054D01*
X337783Y830767D01*
X338704Y829846D01*
Y643079D01*
X337457Y642245D01*
X337446Y642250D01*
X336617D01*
X330631Y648236D01*
Y830181D01*
X331217Y830767D01*
X331750Y832054D01*
Y833446D01*
X331217Y834733D01*
X330233Y835717D01*
X328946Y836250D01*
X327554D01*
X326267Y835717D01*
X325283Y834733D01*
X324750Y833446D01*
Y832054D01*
X325283Y830767D01*
X325869Y830181D01*
Y647250D01*
X326050Y646339D01*
X326567Y645567D01*
X333250Y638883D01*
Y638054D01*
X333783Y636767D01*
X334767Y635783D01*
X336054Y635250D01*
X337250D01*
Y634054D01*
X337783Y632767D01*
X338767Y631783D01*
X340054Y631250D01*
X341446D01*
X342733Y631783D01*
X343717Y632767D01*
X344250Y634054D01*
Y635446D01*
X343717Y636733D01*
X343466Y636984D01*
Y830516D01*
X343717Y830767D01*
X344250Y832054D01*
Y833446D01*
X343717Y834733D01*
X342733Y835717D01*
X341446Y836250D01*
D02*
G37*
G36*
X379652Y659000D02*
X377348D01*
X375123Y658404D01*
X373127Y657252D01*
X371498Y655623D01*
X370346Y653627D01*
X369750Y651402D01*
Y649098D01*
X370346Y646873D01*
X371498Y644877D01*
X373127Y643248D01*
X375123Y642096D01*
X377348Y641500D01*
X379652D01*
X381877Y642096D01*
X383873Y643248D01*
X385502Y644877D01*
X386654Y646873D01*
X387250Y649098D01*
Y651402D01*
X386654Y653627D01*
X385502Y655623D01*
X383873Y657252D01*
X381877Y658404D01*
X379652Y659000D01*
D02*
G37*
G36*
X191652D02*
X189348D01*
X187123Y658404D01*
X185127Y657252D01*
X183498Y655623D01*
X182346Y653627D01*
X181750Y651402D01*
Y649098D01*
X182346Y646873D01*
X183498Y644877D01*
X185127Y643248D01*
X187123Y642096D01*
X189348Y641500D01*
X191652D01*
X193877Y642096D01*
X195873Y643248D01*
X197502Y644877D01*
X198654Y646873D01*
X199250Y649098D01*
Y651402D01*
X198654Y653627D01*
X197502Y655623D01*
X195873Y657252D01*
X193877Y658404D01*
X191652Y659000D01*
D02*
G37*
G36*
X353946Y836250D02*
X352554D01*
X351267Y835717D01*
X350283Y834733D01*
X349750Y833446D01*
Y832054D01*
X350283Y830767D01*
X350815Y830236D01*
Y632938D01*
X350173Y632297D01*
X349641Y631011D01*
Y629618D01*
X350173Y628332D01*
X351158Y627347D01*
X352444Y626814D01*
X353837D01*
X355123Y627347D01*
X356108Y628332D01*
X356641Y629618D01*
Y631011D01*
X356108Y632297D01*
X355576Y632829D01*
Y830126D01*
X356217Y830767D01*
X356750Y832054D01*
Y833446D01*
X356217Y834733D01*
X355233Y835717D01*
X353946Y836250D01*
D02*
G37*
G36*
X366446D02*
X365054D01*
X363767Y835717D01*
X362783Y834733D01*
X362250Y833446D01*
Y832054D01*
X362783Y830767D01*
X363369Y830181D01*
Y628819D01*
X362783Y628233D01*
X362250Y626946D01*
Y625554D01*
X362783Y624267D01*
X363767Y623283D01*
X365054Y622750D01*
X366446D01*
X367733Y623283D01*
X368717Y624267D01*
X369250Y625554D01*
Y626946D01*
X368717Y628233D01*
X368131Y628819D01*
Y830181D01*
X368717Y830767D01*
X369250Y832054D01*
Y833446D01*
X368717Y834733D01*
X367733Y835717D01*
X366446Y836250D01*
D02*
G37*
G36*
X41224Y651750D02*
X37776D01*
X34395Y651077D01*
X31211Y649758D01*
X28344Y647843D01*
X25907Y645406D01*
X23992Y642539D01*
X22673Y639355D01*
X22000Y635974D01*
Y632526D01*
X22673Y629146D01*
X23992Y625961D01*
X25907Y623094D01*
X28344Y620657D01*
X31211Y618742D01*
X34395Y617422D01*
X37776Y616750D01*
X41224D01*
X44605Y617422D01*
X47789Y618742D01*
X50656Y620657D01*
X53093Y623094D01*
X55008Y625961D01*
X56328Y629146D01*
X57000Y632526D01*
Y635974D01*
X56328Y639355D01*
X55008Y642539D01*
X53093Y645406D01*
X50656Y647843D01*
X47789Y649758D01*
X44605Y651077D01*
X41224Y651750D01*
D02*
G37*
G36*
X531224Y194750D02*
X527776D01*
X524395Y194077D01*
X521211Y192758D01*
X518344Y190843D01*
X515907Y188406D01*
X513992Y185539D01*
X512673Y182355D01*
X512000Y178974D01*
Y175526D01*
X512673Y172146D01*
X513992Y168961D01*
X515907Y166094D01*
X518344Y163657D01*
X521211Y161742D01*
X524395Y160422D01*
X527776Y159750D01*
X531224D01*
X534605Y160422D01*
X537789Y161742D01*
X540656Y163657D01*
X543093Y166094D01*
X545008Y168961D01*
X546328Y172146D01*
X547000Y175526D01*
Y178974D01*
X546328Y182355D01*
X545008Y185539D01*
X543093Y188406D01*
X540656Y190843D01*
X537789Y192758D01*
X534605Y194077D01*
X531224Y194750D01*
D02*
G37*
%LPD*%
G36*
X215508Y764427D02*
Y734813D01*
X215508Y734813D01*
X215795Y732637D01*
X216634Y730609D01*
X217970Y728868D01*
X234008Y712830D01*
Y680751D01*
X232508Y680130D01*
X211492Y701146D01*
Y764203D01*
X212884Y765250D01*
X214276D01*
X215508Y764427D01*
D02*
G37*
D14*
X66750Y837250D02*
X80750D01*
X84250Y833750D01*
Y822250D02*
Y833750D01*
D68*
X75911Y820480D02*
X78641Y817750D01*
X71750Y823750D02*
X75020Y820480D01*
X78641Y817750D02*
X79250D01*
X75020Y820480D02*
X75911D01*
D69*
X213580Y768750D02*
Y801250D01*
X198915Y695937D02*
Y830607D01*
X230119Y665580D02*
X231450Y664250D01*
X203085Y697664D02*
X230024Y670725D01*
X198915Y695937D02*
X229272Y665580D01*
X231450Y669750D02*
X232080D01*
X203085Y697664D02*
Y830607D01*
X230024Y670725D02*
X230474D01*
X231450Y664250D02*
X232080D01*
X230474Y670725D02*
X231450Y669750D01*
X229272Y665580D02*
X230119D01*
X228085Y736540D02*
X246585Y718040D01*
Y640546D02*
Y718040D01*
X242415Y640546D02*
Y716313D01*
X223915Y734813D02*
X242415Y716313D01*
X228085Y736540D02*
Y830955D01*
X223915Y734813D02*
Y830955D01*
X328250Y647250D02*
X336750Y638750D01*
X328250Y647250D02*
Y832750D01*
X365750Y626250D02*
Y832750D01*
X340750D02*
X341085Y832415D01*
Y635085D02*
Y832415D01*
X353195Y630369D02*
Y832695D01*
X353250Y832750D01*
X353140Y630314D02*
X353195Y630369D01*
X340750Y634750D02*
X341085Y635085D01*
X203085Y830607D02*
X203304Y830826D01*
Y832304D02*
X203750Y832750D01*
X198696Y830826D02*
X198915Y830607D01*
X198250Y832750D02*
X198696Y832304D01*
X203304Y830826D02*
Y832304D01*
X198696Y830826D02*
Y832304D01*
X228085Y830955D02*
X229250Y832120D01*
X222750D02*
Y832750D01*
Y832120D02*
X223915Y830955D01*
X246585Y640546D02*
X247750Y639380D01*
X229250Y832120D02*
Y832750D01*
X241250Y638750D02*
Y639380D01*
X242415Y640546D01*
X247750Y638750D02*
Y639380D01*
D76*
X28050Y874100D02*
D03*
X120450Y874100D02*
D03*
D77*
X31050Y820500D02*
D03*
X117450D02*
D03*
D78*
X39500Y634250D02*
D03*
X529500Y177250D02*
D03*
D79*
X139500Y663250D02*
D03*
D80*
X528250Y845950D02*
D03*
X455250D02*
D03*
D81*
X506750Y802750D02*
D03*
D82*
X476750D02*
D03*
D83*
X378500Y650250D02*
D03*
X190500D02*
D03*
D84*
X559500Y831250D02*
D03*
X547000Y806250D02*
D03*
X559500Y781250D02*
D03*
X547000Y756250D02*
D03*
X559500Y731250D02*
D03*
X547000Y706250D02*
D03*
X559500Y681250D02*
D03*
X547000Y656250D02*
D03*
X559500Y631250D02*
D03*
X547000Y606250D02*
D03*
X559500Y581250D02*
D03*
X547000Y556250D02*
D03*
X559500Y531250D02*
D03*
X547000Y506250D02*
D03*
X559500Y481250D02*
D03*
X547000Y456250D02*
D03*
X559500Y431250D02*
D03*
X547000Y406250D02*
D03*
X559500Y381250D02*
D03*
X547000Y356250D02*
D03*
X559500Y331250D02*
D03*
X547000Y306250D02*
D03*
X559500Y281250D02*
D03*
X547000Y256250D02*
D03*
X559500Y231250D02*
D03*
X547000Y206250D02*
D03*
X559500Y181250D02*
D03*
X547000Y156250D02*
D03*
X559500Y131250D02*
D03*
X547000Y106250D02*
D03*
X559500Y81250D02*
D03*
X547000Y56250D02*
D03*
X559500Y31250D02*
D03*
X522000Y806250D02*
D03*
X534500Y781250D02*
D03*
X522000Y756250D02*
D03*
X534500Y731250D02*
D03*
X522000Y706250D02*
D03*
X534500Y681250D02*
D03*
X522000Y656250D02*
D03*
X534500Y631250D02*
D03*
X522000Y606250D02*
D03*
X534500Y581250D02*
D03*
X522000Y556250D02*
D03*
X534500Y531250D02*
D03*
X522000Y506250D02*
D03*
X534500Y481250D02*
D03*
X522000Y456250D02*
D03*
X534500Y431250D02*
D03*
X522000Y406250D02*
D03*
X534500Y381250D02*
D03*
X522000Y356250D02*
D03*
X534500Y331250D02*
D03*
X522000Y306250D02*
D03*
X534500Y281250D02*
D03*
X522000Y256250D02*
D03*
X534500Y231250D02*
D03*
X522000Y206250D02*
D03*
X534500Y131250D02*
D03*
X522000Y106250D02*
D03*
X534500Y81250D02*
D03*
X522000Y56250D02*
D03*
X534500Y31250D02*
D03*
X497000Y856250D02*
D03*
X509500Y781250D02*
D03*
X497000Y756250D02*
D03*
X509500Y731250D02*
D03*
X497000Y706250D02*
D03*
X509500Y681250D02*
D03*
X497000Y656250D02*
D03*
X509500Y631250D02*
D03*
X497000Y606250D02*
D03*
X509500Y581250D02*
D03*
X497000Y556250D02*
D03*
X509500Y531250D02*
D03*
X497000Y506250D02*
D03*
X509500Y481250D02*
D03*
X497000Y456250D02*
D03*
X509500Y431250D02*
D03*
X497000Y406250D02*
D03*
X509500Y381250D02*
D03*
X497000Y356250D02*
D03*
X509500Y331250D02*
D03*
X497000Y306250D02*
D03*
X509500Y281250D02*
D03*
X497000Y256250D02*
D03*
X509500Y231250D02*
D03*
X497000Y206250D02*
D03*
Y156250D02*
D03*
X509500Y131250D02*
D03*
X497000Y106250D02*
D03*
X509500Y81250D02*
D03*
X497000Y56250D02*
D03*
X509500Y31250D02*
D03*
X484500Y831250D02*
D03*
Y731250D02*
D03*
X472000Y706250D02*
D03*
X484500Y681250D02*
D03*
X472000Y656250D02*
D03*
X484500Y631250D02*
D03*
X472000Y606250D02*
D03*
X484500Y581250D02*
D03*
X472000Y556250D02*
D03*
X484500Y531250D02*
D03*
X472000Y506250D02*
D03*
X484500Y481250D02*
D03*
X472000Y456250D02*
D03*
X484500Y431250D02*
D03*
X472000Y406250D02*
D03*
X484500Y381250D02*
D03*
X472000Y356250D02*
D03*
X484500Y331250D02*
D03*
X472000Y306250D02*
D03*
X484500Y281250D02*
D03*
X472000Y256250D02*
D03*
X484500Y231250D02*
D03*
X472000Y206250D02*
D03*
X484500Y181250D02*
D03*
X472000Y156250D02*
D03*
X484500Y131250D02*
D03*
X472000Y106250D02*
D03*
X484500Y81250D02*
D03*
X472000Y56250D02*
D03*
X484500Y31250D02*
D03*
X447000Y806250D02*
D03*
X459500Y731250D02*
D03*
X447000Y706250D02*
D03*
X459500Y681250D02*
D03*
X447000Y656250D02*
D03*
X459500Y631250D02*
D03*
X447000Y606250D02*
D03*
X459500Y581250D02*
D03*
X447000Y556250D02*
D03*
X459500Y531250D02*
D03*
X447000Y506250D02*
D03*
X459500Y481250D02*
D03*
X447000Y456250D02*
D03*
X459500Y431250D02*
D03*
X447000Y406250D02*
D03*
X459500Y381250D02*
D03*
X447000Y356250D02*
D03*
X459500Y331250D02*
D03*
X447000Y306250D02*
D03*
X459500Y281250D02*
D03*
X447000Y256250D02*
D03*
X459500Y231250D02*
D03*
X447000Y206250D02*
D03*
X459500Y181250D02*
D03*
X447000Y156250D02*
D03*
X459500Y131250D02*
D03*
X447000Y106250D02*
D03*
X459500Y81250D02*
D03*
X447000Y56250D02*
D03*
X459500Y31250D02*
D03*
X422000Y856250D02*
D03*
Y756250D02*
D03*
X434500Y681250D02*
D03*
X422000Y656250D02*
D03*
X434500Y631250D02*
D03*
X422000Y606250D02*
D03*
X434500Y581250D02*
D03*
X422000Y556250D02*
D03*
X434500Y531250D02*
D03*
X422000Y506250D02*
D03*
X434500Y481250D02*
D03*
X422000Y456250D02*
D03*
X434500Y431250D02*
D03*
X422000Y406250D02*
D03*
X434500Y381250D02*
D03*
X422000Y356250D02*
D03*
X434500Y331250D02*
D03*
X422000Y306250D02*
D03*
X434500Y281250D02*
D03*
X422000Y256250D02*
D03*
X434500Y231250D02*
D03*
X422000Y206250D02*
D03*
X434500Y181250D02*
D03*
X422000Y156250D02*
D03*
X434500Y131250D02*
D03*
X422000Y106250D02*
D03*
X434500Y81250D02*
D03*
X422000Y56250D02*
D03*
X434500Y31250D02*
D03*
X397000Y756250D02*
D03*
X409500Y731250D02*
D03*
Y681250D02*
D03*
X397000Y656250D02*
D03*
X409500Y631250D02*
D03*
X397000Y606250D02*
D03*
X409500Y581250D02*
D03*
X397000Y556250D02*
D03*
X409500Y531250D02*
D03*
X397000Y506250D02*
D03*
X409500Y481250D02*
D03*
X397000Y456250D02*
D03*
X409500Y431250D02*
D03*
X397000Y406250D02*
D03*
X409500Y381250D02*
D03*
X397000Y356250D02*
D03*
X409500Y331250D02*
D03*
X397000Y306250D02*
D03*
X409500Y281250D02*
D03*
X397000Y256250D02*
D03*
X409500Y231250D02*
D03*
X397000Y206250D02*
D03*
X409500Y181250D02*
D03*
X397000Y156250D02*
D03*
X409500Y131250D02*
D03*
X397000Y106250D02*
D03*
X409500Y81250D02*
D03*
X397000Y56250D02*
D03*
X409500Y31250D02*
D03*
X384500Y731250D02*
D03*
Y631250D02*
D03*
X372000Y606250D02*
D03*
X384500Y581250D02*
D03*
X372000Y556250D02*
D03*
X384500Y531250D02*
D03*
X372000Y506250D02*
D03*
X384500Y481250D02*
D03*
X372000Y456250D02*
D03*
X384500Y431250D02*
D03*
X372000Y406250D02*
D03*
X384500Y381250D02*
D03*
X372000Y356250D02*
D03*
X384500Y331250D02*
D03*
X372000Y306250D02*
D03*
X384500Y281250D02*
D03*
X372000Y256250D02*
D03*
X384500Y231250D02*
D03*
X372000Y206250D02*
D03*
X384500Y181250D02*
D03*
X372000Y156250D02*
D03*
X384500Y131250D02*
D03*
X372000Y106250D02*
D03*
X384500Y81250D02*
D03*
X372000Y56250D02*
D03*
X384500Y31250D02*
D03*
X347000Y606250D02*
D03*
X359500Y581250D02*
D03*
X347000Y556250D02*
D03*
X359500Y531250D02*
D03*
X347000Y506250D02*
D03*
X359500Y481250D02*
D03*
X347000Y456250D02*
D03*
X359500Y431250D02*
D03*
X347000Y406250D02*
D03*
X359500Y381250D02*
D03*
X347000Y356250D02*
D03*
X359500Y331250D02*
D03*
X347000Y306250D02*
D03*
X359500Y281250D02*
D03*
X347000Y256250D02*
D03*
X359500Y231250D02*
D03*
X347000Y206250D02*
D03*
X359500Y181250D02*
D03*
X347000Y156250D02*
D03*
X359500Y131250D02*
D03*
X347000Y106250D02*
D03*
X359500Y81250D02*
D03*
X347000Y56250D02*
D03*
X359500Y31250D02*
D03*
X322000Y606250D02*
D03*
X334500Y581250D02*
D03*
X322000Y556250D02*
D03*
X334500Y531250D02*
D03*
X322000Y506250D02*
D03*
X334500Y481250D02*
D03*
X322000Y456250D02*
D03*
X334500Y431250D02*
D03*
X322000Y406250D02*
D03*
X334500Y381250D02*
D03*
X322000Y356250D02*
D03*
X334500Y331250D02*
D03*
X322000Y306250D02*
D03*
X334500Y281250D02*
D03*
X322000Y256250D02*
D03*
X334500Y231250D02*
D03*
X322000Y206250D02*
D03*
X334500Y181250D02*
D03*
X322000Y156250D02*
D03*
X334500Y131250D02*
D03*
X322000Y106250D02*
D03*
X334500Y81250D02*
D03*
X322000Y56250D02*
D03*
X334500Y31250D02*
D03*
X309500Y781250D02*
D03*
X297000Y756250D02*
D03*
X309500Y731250D02*
D03*
X297000Y706250D02*
D03*
X309500Y631250D02*
D03*
X297000Y606250D02*
D03*
X309500Y581250D02*
D03*
X297000Y556250D02*
D03*
X309500Y531250D02*
D03*
X297000Y506250D02*
D03*
X309500Y481250D02*
D03*
X297000Y456250D02*
D03*
X309500Y431250D02*
D03*
X297000Y406250D02*
D03*
X309500Y381250D02*
D03*
X297000Y356250D02*
D03*
X309500Y331250D02*
D03*
X297000Y306250D02*
D03*
X309500Y281250D02*
D03*
X297000Y256250D02*
D03*
X309500Y231250D02*
D03*
X297000Y206250D02*
D03*
X309500Y181250D02*
D03*
X297000Y156250D02*
D03*
X309500Y131250D02*
D03*
X297000Y106250D02*
D03*
X309500Y81250D02*
D03*
X297000Y56250D02*
D03*
X309500Y31250D02*
D03*
X272000Y856250D02*
D03*
X284500Y831250D02*
D03*
X272000Y756250D02*
D03*
X284500Y731250D02*
D03*
X272000Y706250D02*
D03*
Y606250D02*
D03*
X284500Y581250D02*
D03*
X272000Y556250D02*
D03*
X284500Y531250D02*
D03*
X272000Y506250D02*
D03*
X284500Y481250D02*
D03*
X272000Y456250D02*
D03*
X284500Y431250D02*
D03*
X272000Y406250D02*
D03*
X284500Y381250D02*
D03*
X272000Y356250D02*
D03*
X284500Y331250D02*
D03*
X272000Y306250D02*
D03*
X284500Y281250D02*
D03*
X272000Y256250D02*
D03*
X284500Y231250D02*
D03*
X272000Y206250D02*
D03*
X284500Y181250D02*
D03*
X272000Y156250D02*
D03*
X284500Y131250D02*
D03*
X272000Y106250D02*
D03*
X284500Y81250D02*
D03*
X272000Y56250D02*
D03*
X284500Y31250D02*
D03*
X247000Y756250D02*
D03*
X259500Y731250D02*
D03*
X247000Y606250D02*
D03*
X259500Y581250D02*
D03*
X247000Y556250D02*
D03*
X259500Y531250D02*
D03*
X247000Y506250D02*
D03*
X259500Y481250D02*
D03*
X247000Y456250D02*
D03*
X259500Y431250D02*
D03*
X247000Y406250D02*
D03*
X259500Y381250D02*
D03*
X247000Y356250D02*
D03*
X259500Y331250D02*
D03*
X247000Y306250D02*
D03*
X259500Y281250D02*
D03*
X247000Y256250D02*
D03*
X259500Y231250D02*
D03*
X247000Y206250D02*
D03*
X259500Y181250D02*
D03*
X247000Y156250D02*
D03*
X259500Y131250D02*
D03*
X247000Y106250D02*
D03*
X259500Y81250D02*
D03*
X247000Y56250D02*
D03*
X259500Y31250D02*
D03*
X222000Y706250D02*
D03*
Y606250D02*
D03*
X234500Y581250D02*
D03*
X222000Y556250D02*
D03*
X234500Y531250D02*
D03*
X222000Y506250D02*
D03*
X234500Y481250D02*
D03*
X222000Y456250D02*
D03*
X234500Y431250D02*
D03*
X222000Y406250D02*
D03*
X234500Y381250D02*
D03*
X222000Y356250D02*
D03*
X234500Y331250D02*
D03*
X222000Y306250D02*
D03*
X234500Y281250D02*
D03*
X222000Y256250D02*
D03*
X234500Y231250D02*
D03*
X222000Y206250D02*
D03*
X234500Y181250D02*
D03*
X222000Y156250D02*
D03*
X234500Y131250D02*
D03*
X222000Y106250D02*
D03*
X234500Y81250D02*
D03*
X222000Y56250D02*
D03*
X234500Y31250D02*
D03*
X209500Y831250D02*
D03*
X197000Y606250D02*
D03*
X209500Y581250D02*
D03*
X197000Y556250D02*
D03*
X209500Y531250D02*
D03*
X197000Y506250D02*
D03*
X209500Y481250D02*
D03*
X197000Y456250D02*
D03*
X209500Y431250D02*
D03*
X197000Y406250D02*
D03*
X209500Y381250D02*
D03*
X197000Y356250D02*
D03*
X209500Y331250D02*
D03*
X197000Y306250D02*
D03*
X209500Y281250D02*
D03*
X197000Y256250D02*
D03*
X209500Y231250D02*
D03*
X197000Y206250D02*
D03*
X209500Y181250D02*
D03*
X197000Y156250D02*
D03*
X209500Y131250D02*
D03*
X197000Y106250D02*
D03*
X209500Y81250D02*
D03*
X197000Y56250D02*
D03*
X209500Y31250D02*
D03*
X172000Y756250D02*
D03*
X184500Y731250D02*
D03*
X172000Y706250D02*
D03*
X184500Y681250D02*
D03*
X172000Y656250D02*
D03*
Y606250D02*
D03*
X184500Y581250D02*
D03*
X172000Y556250D02*
D03*
X184500Y531250D02*
D03*
X172000Y506250D02*
D03*
X184500Y481250D02*
D03*
X172000Y456250D02*
D03*
X184500Y431250D02*
D03*
X172000Y406250D02*
D03*
X184500Y381250D02*
D03*
X172000Y356250D02*
D03*
X184500Y331250D02*
D03*
X172000Y306250D02*
D03*
X184500Y281250D02*
D03*
X172000Y256250D02*
D03*
X184500Y231250D02*
D03*
X172000Y206250D02*
D03*
X184500Y181250D02*
D03*
X172000Y156250D02*
D03*
X184500Y131250D02*
D03*
X172000Y106250D02*
D03*
X184500Y81250D02*
D03*
X172000Y56250D02*
D03*
X184500Y31250D02*
D03*
X147000Y856250D02*
D03*
X159500Y831250D02*
D03*
X147000Y806250D02*
D03*
X159500Y781250D02*
D03*
X147000Y756250D02*
D03*
X159500Y731250D02*
D03*
X147000Y706250D02*
D03*
X159500Y681250D02*
D03*
X147000Y606250D02*
D03*
X159500Y581250D02*
D03*
X147000Y556250D02*
D03*
X159500Y531250D02*
D03*
X147000Y506250D02*
D03*
X159500Y481250D02*
D03*
X147000Y456250D02*
D03*
X159500Y431250D02*
D03*
X147000Y406250D02*
D03*
X159500Y381250D02*
D03*
X147000Y356250D02*
D03*
X159500Y331250D02*
D03*
X147000Y306250D02*
D03*
X159500Y281250D02*
D03*
X147000Y256250D02*
D03*
X159500Y231250D02*
D03*
X147000Y206250D02*
D03*
X159500Y181250D02*
D03*
X147000Y156250D02*
D03*
X159500Y131250D02*
D03*
X147000Y106250D02*
D03*
X159500Y81250D02*
D03*
X147000Y56250D02*
D03*
X159500Y31250D02*
D03*
X134500Y831250D02*
D03*
X122000Y756250D02*
D03*
X134500Y731250D02*
D03*
X122000Y706250D02*
D03*
Y606250D02*
D03*
X134500Y581250D02*
D03*
X122000Y556250D02*
D03*
X134500Y531250D02*
D03*
X122000Y506250D02*
D03*
X134500Y481250D02*
D03*
X122000Y456250D02*
D03*
X134500Y431250D02*
D03*
X122000Y406250D02*
D03*
X134500Y381250D02*
D03*
X122000Y356250D02*
D03*
X134500Y331250D02*
D03*
X122000Y306250D02*
D03*
X134500Y281250D02*
D03*
X122000Y256250D02*
D03*
X134500Y231250D02*
D03*
X122000Y206250D02*
D03*
X134500Y181250D02*
D03*
X122000Y156250D02*
D03*
X134500Y131250D02*
D03*
X122000Y106250D02*
D03*
X134500Y81250D02*
D03*
X122000Y56250D02*
D03*
X134500Y31250D02*
D03*
X97000Y856250D02*
D03*
X109500Y781250D02*
D03*
X97000Y756250D02*
D03*
X109500Y731250D02*
D03*
X97000Y706250D02*
D03*
X109500Y681250D02*
D03*
X97000Y606250D02*
D03*
X109500Y581250D02*
D03*
X97000Y556250D02*
D03*
X109500Y531250D02*
D03*
X97000Y506250D02*
D03*
X109500Y481250D02*
D03*
X97000Y456250D02*
D03*
X109500Y431250D02*
D03*
X97000Y406250D02*
D03*
X109500Y381250D02*
D03*
X97000Y356250D02*
D03*
X109500Y331250D02*
D03*
X97000Y306250D02*
D03*
X109500Y281250D02*
D03*
X97000Y256250D02*
D03*
X109500Y231250D02*
D03*
X97000Y206250D02*
D03*
X109500Y181250D02*
D03*
X97000Y156250D02*
D03*
X109500Y131250D02*
D03*
X97000Y106250D02*
D03*
X109500Y81250D02*
D03*
X97000Y56250D02*
D03*
X109500Y31250D02*
D03*
X72000Y856250D02*
D03*
X84500Y631250D02*
D03*
X72000Y606250D02*
D03*
X84500Y581250D02*
D03*
X72000Y556250D02*
D03*
X84500Y531250D02*
D03*
X72000Y506250D02*
D03*
X84500Y481250D02*
D03*
X72000Y456250D02*
D03*
X84500Y431250D02*
D03*
X72000Y406250D02*
D03*
X84500Y381250D02*
D03*
X72000Y356250D02*
D03*
X84500Y331250D02*
D03*
X72000Y306250D02*
D03*
X84500Y281250D02*
D03*
X72000Y256250D02*
D03*
X84500Y231250D02*
D03*
X72000Y206250D02*
D03*
X84500Y181250D02*
D03*
X72000Y156250D02*
D03*
X84500Y131250D02*
D03*
X72000Y106250D02*
D03*
X84500Y81250D02*
D03*
X72000Y56250D02*
D03*
X84500Y31250D02*
D03*
X47000Y856250D02*
D03*
X59500Y781250D02*
D03*
X47000Y756250D02*
D03*
X59500Y731250D02*
D03*
X47000Y706250D02*
D03*
X59500Y681250D02*
D03*
X47000Y656250D02*
D03*
Y606250D02*
D03*
X59500Y581250D02*
D03*
X47000Y556250D02*
D03*
X59500Y531250D02*
D03*
X47000Y506250D02*
D03*
X59500Y481250D02*
D03*
X47000Y456250D02*
D03*
X59500Y431250D02*
D03*
X47000Y406250D02*
D03*
X59500Y381250D02*
D03*
X47000Y356250D02*
D03*
X59500Y331250D02*
D03*
X47000Y306250D02*
D03*
X59500Y281250D02*
D03*
X47000Y256250D02*
D03*
X59500Y231250D02*
D03*
X47000Y206250D02*
D03*
X59500Y181250D02*
D03*
X47000Y156250D02*
D03*
X59500Y131250D02*
D03*
X47000Y106250D02*
D03*
X59500Y81250D02*
D03*
X47000Y56250D02*
D03*
X59500Y31250D02*
D03*
X34500Y781250D02*
D03*
X22000Y756250D02*
D03*
X34500Y731250D02*
D03*
X22000Y706250D02*
D03*
X34500Y681250D02*
D03*
X22000Y656250D02*
D03*
Y606250D02*
D03*
X34500Y581250D02*
D03*
X22000Y556250D02*
D03*
X34500Y531250D02*
D03*
X22000Y506250D02*
D03*
X34500Y481250D02*
D03*
X22000Y456250D02*
D03*
X34500Y431250D02*
D03*
X22000Y406250D02*
D03*
X34500Y381250D02*
D03*
X22000Y356250D02*
D03*
X34500Y331250D02*
D03*
X22000Y306250D02*
D03*
X34500Y281250D02*
D03*
X22000Y256250D02*
D03*
X34500Y231250D02*
D03*
X22000Y206250D02*
D03*
X34500Y181250D02*
D03*
X22000Y156250D02*
D03*
X34500Y131250D02*
D03*
X22000Y106250D02*
D03*
X34500Y81250D02*
D03*
X22000Y56250D02*
D03*
X34500Y31250D02*
D03*
X376250Y777750D02*
D03*
X371250Y782750D02*
D03*
X424250Y825750D02*
D03*
X249750Y774250D02*
D03*
X218250Y783750D02*
D03*
X248750Y780250D02*
D03*
X264750Y781750D02*
D03*
X266250Y810250D02*
D03*
X261750Y814250D02*
D03*
X256750Y826250D02*
D03*
X159750Y808750D02*
D03*
Y817250D02*
D03*
X164250Y823250D02*
D03*
X237750Y780750D02*
D03*
X273750Y783750D02*
D03*
X245750Y793750D02*
D03*
X239250D02*
D03*
X252250Y800750D02*
D03*
X245750D02*
D03*
X252250Y793750D02*
D03*
X265500Y773250D02*
D03*
X208750Y783750D02*
D03*
X213580Y768750D02*
D03*
Y801250D02*
D03*
X319750Y675250D02*
D03*
X358750Y670750D02*
D03*
X266250Y675250D02*
D03*
X531750Y879250D02*
D03*
X506750D02*
D03*
X481750D02*
D03*
X456750D02*
D03*
X431750D02*
D03*
X406750D02*
D03*
X381750D02*
D03*
X356750D02*
D03*
X331750D02*
D03*
X306750D02*
D03*
X281750D02*
D03*
X206750D02*
D03*
X156750D02*
D03*
X131750D02*
D03*
X106750D02*
D03*
X81750D02*
D03*
X56750D02*
D03*
X43750Y834750D02*
D03*
X44250Y806750D02*
D03*
X104750Y834750D02*
D03*
X104250Y806750D02*
D03*
X315750Y832750D02*
D03*
X371250Y801750D02*
D03*
Y792750D02*
D03*
X376250Y787750D02*
D03*
Y797250D02*
D03*
X66750Y837250D02*
D03*
X84250Y822250D02*
D03*
X256750Y638750D02*
D03*
X232750D02*
D03*
X280750D02*
D03*
X208250Y675250D02*
D03*
X232250Y691750D02*
D03*
X256750D02*
D03*
X280750D02*
D03*
X304750D02*
D03*
X359250Y696750D02*
D03*
X347250D02*
D03*
X359250Y691750D02*
D03*
X347250D02*
D03*
X370250Y697250D02*
D03*
Y692250D02*
D03*
Y687250D02*
D03*
Y682250D02*
D03*
X71750Y823750D02*
D03*
X79250Y817750D02*
D03*
X365750Y832750D02*
D03*
Y626250D02*
D03*
X353250Y832750D02*
D03*
X353140Y630314D02*
D03*
X340750Y832750D02*
D03*
Y634750D02*
D03*
X328250Y832750D02*
D03*
X336750Y638750D02*
D03*
X198250Y832750D02*
D03*
X203750D02*
D03*
X232080Y669750D02*
D03*
Y664250D02*
D03*
X229250Y832750D02*
D03*
X222750D02*
D03*
X241250Y638750D02*
D03*
X247750D02*
D03*
D95*
X473500Y794500D02*
D03*
M02*
