G04*
G04 #@! TF.GenerationSoftware,Altium Limited,Altium Designer,22.4.2 (48)*
G04*
G04 Layer_Color=65535*
%FSLAX44Y44*%
%MOMM*%
G71*
G04*
G04 #@! TF.SameCoordinates,A2904C07-0F36-4402-9195-DF30BD9EA298*
G04*
G04*
G04 #@! TF.FilePolarity,Positive*
G04*
G01*
G75*
%ADD10C,0.1000*%
%ADD11C,0.2500*%
%ADD12C,0.3000*%
%ADD13C,0.2000*%
%ADD14C,0.1500*%
%ADD15C,0.4000*%
%ADD16C,0.1200*%
G36*
X187000Y815375D02*
X183000Y817375D01*
X187000Y819375D01*
Y815375D01*
D02*
G37*
G36*
X304494Y540807D02*
X305873Y540019D01*
X307252Y539428D01*
X308237Y539034D01*
X308631Y538837D01*
X310207Y537261D01*
X310601Y537064D01*
X311093Y536177D01*
X311586Y534897D01*
X312078Y534208D01*
X312866Y532435D01*
X313063Y531647D01*
X313556Y530366D01*
X313851Y530071D01*
X314048Y529677D01*
X314639Y528298D01*
X315329Y525245D01*
X315723Y524260D01*
X316018Y523964D01*
X316412Y522979D01*
X316806Y521600D01*
X317298Y520320D01*
X318086Y519138D01*
X318579Y517464D01*
X319071Y515198D01*
X320155Y512933D01*
X320549Y511357D01*
X321041Y510076D01*
X321337Y509781D01*
X321534Y509387D01*
X322322Y507614D01*
X322814Y505349D01*
X323405Y503773D01*
X324095Y502099D01*
X324291Y501311D01*
X324883Y499735D01*
X325276Y499341D01*
X325473Y498947D01*
X326064Y497568D01*
X326261Y496780D01*
X326557Y495499D01*
X326754Y494711D01*
X327640Y492643D01*
X328034Y491264D01*
X328330Y490181D01*
X329019Y489097D01*
X329807Y487915D01*
X330103Y486438D01*
X330497Y484862D01*
X330891Y483877D01*
X331383Y482597D01*
X331777Y481218D01*
X332072Y480134D01*
X332467Y479149D01*
X333353Y478263D01*
X333747Y476884D01*
X334042Y475604D01*
X334239Y474816D01*
X335323Y472156D01*
X335815Y469891D01*
X336111Y469202D01*
X336505Y468807D01*
X336702Y468414D01*
X337096Y468020D01*
X337490Y467035D01*
X337982Y464966D01*
X338573Y463390D01*
X339066Y462110D01*
X339263Y461322D01*
X339558Y460042D01*
X339952Y459057D01*
X340740Y457875D01*
X341232Y456791D01*
X341528Y455511D01*
X341725Y454723D01*
X342808Y452261D01*
X343104Y450980D01*
X343301Y449995D01*
X343498Y449207D01*
X344187Y448124D01*
X344778Y447139D01*
X345172Y445760D01*
X345369Y444972D01*
X346354Y442805D01*
X346748Y441426D01*
X347044Y440146D01*
X347241Y439358D01*
X347635Y438373D01*
X348324Y437486D01*
X348718Y436501D01*
X349013Y435418D01*
X349211Y434630D01*
X349801Y433448D01*
X350294Y432365D01*
X350589Y431281D01*
X350983Y429311D01*
X351377Y428326D01*
X352264Y426849D01*
X352658Y425470D01*
X353347Y423599D01*
X353643Y423303D01*
X354037Y422318D01*
X354431Y420939D01*
X354923Y418674D01*
X356007Y416606D01*
X356795Y414045D01*
X356598Y412863D01*
X355711Y412370D01*
X353840Y411681D01*
X352756Y411189D01*
X351377Y410794D01*
X350097Y410499D01*
X349112Y410105D01*
X346650Y409022D01*
X344975Y408726D01*
X343005Y408332D01*
X342020Y407938D01*
X340937Y407446D01*
X339558Y407052D01*
X338770Y406855D01*
X337687Y406559D01*
X336997Y406264D01*
X335618Y405476D01*
X334042Y405082D01*
X332663Y404885D01*
X331088Y404491D01*
X329118Y403703D01*
X327739Y403309D01*
X326951Y403112D01*
X325670Y402816D01*
X324095Y401832D01*
X322420Y401339D01*
X321041Y401142D01*
X319465Y400748D01*
X318185Y400256D01*
X315919Y399566D01*
X314639Y399271D01*
X313851Y399074D01*
X310995Y397596D01*
X309616Y397399D01*
X308335Y397104D01*
X307351Y396710D01*
X306464Y396611D01*
X305578Y397301D01*
X304888Y399172D01*
X304002Y400650D01*
X303608Y402029D01*
X303312Y403703D01*
X302918Y405279D01*
X301835Y407741D01*
X301539Y409219D01*
X301342Y410006D01*
X300357Y411582D01*
X299865Y412863D01*
X299569Y414537D01*
X299175Y416113D01*
X298388Y418083D01*
X298092Y419166D01*
X297895Y419954D01*
X297600Y421038D01*
X297304Y421727D01*
X296516Y422909D01*
X296122Y423894D01*
X295433Y427145D01*
X295039Y428129D01*
X294546Y429410D01*
X294152Y430986D01*
X293857Y432266D01*
X293561Y432956D01*
X292576Y434335D01*
X291985Y436698D01*
X291690Y437979D01*
X291099Y439555D01*
X290606Y441229D01*
X290410Y442017D01*
X290114Y443494D01*
X289818Y444184D01*
X288834Y445563D01*
X288440Y446548D01*
X287947Y447828D01*
X286470Y449306D01*
X286273Y449700D01*
X285977Y449995D01*
X284992Y450389D01*
X282628Y450783D01*
X279871Y450586D01*
X278098Y449601D01*
X277704Y449207D01*
X277408Y449109D01*
X277211Y448715D01*
X276719Y448222D01*
X276325Y448025D01*
X275832Y447336D01*
X275241Y445957D01*
X275044Y445169D01*
X274552Y443889D01*
X273468Y442411D01*
X273173Y441131D01*
X272779Y440146D01*
X271696Y438077D01*
X271400Y436797D01*
X271203Y435812D01*
X270809Y434827D01*
X270021Y433645D01*
X269529Y432365D01*
X268839Y430493D01*
X268544Y430198D01*
X267953Y428819D01*
X267362Y426455D01*
X265786Y423106D01*
X265294Y421826D01*
X264013Y419364D01*
X263718Y418083D01*
X263521Y417295D01*
X263127Y416310D01*
X262240Y414636D01*
X261846Y413257D01*
X260861Y411484D01*
X260073Y409711D01*
X259778Y408234D01*
X259384Y407249D01*
X258300Y404983D01*
X258103Y404195D01*
X257710Y403210D01*
X256724Y401832D01*
X256331Y400453D01*
X256133Y399665D01*
X255444Y397793D01*
X254558Y395725D01*
X254361Y394937D01*
X253967Y393952D01*
X253080Y392869D01*
X252588Y391785D01*
X252095Y389717D01*
X251701Y388732D01*
X250815Y386663D01*
X250618Y385876D01*
X250125Y384595D01*
X249436Y383906D01*
X249239Y383512D01*
X248648Y382133D01*
X248353Y380655D01*
X247959Y379670D01*
X247072Y377602D01*
X246777Y376519D01*
X246284Y375238D01*
X245693Y374647D01*
X245496Y374253D01*
X244905Y372874D01*
X245102Y368540D01*
X245496Y368147D01*
X245693Y367753D01*
X246383Y367260D01*
X247466Y365586D01*
X248353Y365093D01*
X250519Y364108D01*
X251307Y363911D01*
X254065Y364108D01*
X255444Y364699D01*
X257020Y365093D01*
X259384Y365487D01*
X260664Y365980D01*
X263127Y367063D01*
X265195Y367556D01*
X266180Y367949D01*
X268248Y368836D01*
X270120Y369132D01*
X272090Y369525D01*
X274355Y370609D01*
X275931Y371003D01*
X277211Y371298D01*
X280068Y372579D01*
X282432Y372973D01*
X284007Y373367D01*
X286174Y374352D01*
X287750Y374746D01*
X289031Y375041D01*
X292281Y376519D01*
X294152Y376814D01*
X295137Y377011D01*
X295925Y377208D01*
X296910Y377602D01*
X297994Y378094D01*
X299569Y378488D01*
X300850Y378784D01*
X301835Y379178D01*
X302130Y379473D01*
X303903Y380261D01*
X305775Y380557D01*
X306759Y380754D01*
X307547Y380951D01*
X309123Y381542D01*
X310404Y382034D01*
X312669Y382527D01*
X313654Y382921D01*
X314344Y383413D01*
X315723Y384004D01*
X318086Y384398D01*
X318874Y384595D01*
X320746Y385285D01*
X323011Y385974D01*
X324488Y386269D01*
X325473Y386663D01*
X326655Y387451D01*
X327542Y387747D01*
X328330Y387944D01*
X330595Y388436D01*
X331383Y388633D01*
X332368Y389027D01*
X334042Y389520D01*
X334830Y389717D01*
X336209Y389914D01*
X337490Y390406D01*
X338179Y390899D01*
X339164Y391490D01*
X340740Y391884D01*
X342414Y392179D01*
X344581Y392967D01*
X345369Y393164D01*
X346453Y393460D01*
X348324Y393755D01*
X349309Y394149D01*
X349998Y394641D01*
X350983Y395232D01*
X352559Y395626D01*
X354628Y396119D01*
X358075Y397202D01*
X359454Y397399D01*
X360242Y397596D01*
X361522Y398089D01*
X361818Y398384D01*
X362212Y398581D01*
X363591Y399172D01*
X364379Y399369D01*
X366447Y399862D01*
X367432Y400256D01*
X368712Y400748D01*
X371076Y401142D01*
X371864Y401339D01*
X372948Y401634D01*
X374524Y402620D01*
X375410Y402915D01*
X376198Y403112D01*
X377478Y403407D01*
X378266Y403604D01*
X379350Y404097D01*
X380335Y404491D01*
X381615Y404786D01*
X383979Y405180D01*
X384767Y405377D01*
X386441Y406067D01*
X388214Y405870D01*
X388608Y405476D01*
X389987Y404688D01*
X390283Y404392D01*
X390676Y402816D01*
X390480Y400453D01*
X389593Y399369D01*
X388017Y397793D01*
X387032Y397399D01*
X385752Y396907D01*
X385456Y396611D01*
X385062Y396414D01*
X382108Y394838D01*
X381320Y394050D01*
X380926Y393853D01*
X379941Y393460D01*
X378168Y392475D01*
X376789Y391884D01*
X375410Y391096D01*
X374425Y390111D01*
X373440Y389717D01*
X371667Y388732D01*
X369894Y387944D01*
X369500Y387747D01*
X368417Y386860D01*
X366939Y385974D01*
X365955Y385580D01*
X364576Y384595D01*
X362704Y383906D01*
X361621Y382822D01*
X360242Y382231D01*
X358863Y381443D01*
X357878Y380852D01*
X356893Y380458D01*
X355120Y379473D01*
X354529Y378882D01*
X351968Y377504D01*
X351574Y377109D01*
X349408Y376321D01*
X348324Y375435D01*
X348029Y375140D01*
X345468Y373761D01*
X344483Y373170D01*
X342513Y372382D01*
X341429Y371495D01*
X338770Y370018D01*
X338179Y369427D01*
X337096Y369132D01*
X336111Y368737D01*
X335815Y368442D01*
X335421Y368245D01*
X335027Y367851D01*
X334633Y367654D01*
X332467Y366472D01*
X331088Y365487D01*
X329216Y364798D01*
X328527Y364305D01*
X328133Y363911D01*
X325966Y362729D01*
X325375Y362138D01*
X323996Y361547D01*
X322716Y361055D01*
X322420Y360760D01*
X322026Y360563D01*
X320844Y359775D01*
X320056Y359577D01*
X318677Y358593D01*
X318086Y358002D01*
X316215Y357312D01*
X315525Y356820D01*
X314541Y356229D01*
X313556Y355835D01*
X313162Y355638D01*
X312078Y354751D01*
X311783Y354456D01*
X311389Y354259D01*
X310010Y353668D01*
X308631Y352880D01*
X305676Y351304D01*
X305184Y350615D01*
X304100Y350122D01*
X302820Y349630D01*
X302130Y349137D01*
X300357Y348349D01*
X299963Y348152D01*
X298880Y347266D01*
X298388Y346773D01*
X297009Y346182D01*
X295236Y345197D01*
X293857Y344606D01*
X292872Y344212D01*
X292379Y343917D01*
X292182Y343523D01*
X291493Y342834D01*
X290212Y342341D01*
X288637Y341356D01*
X287356Y340864D01*
X285977Y340076D01*
X284894Y339189D01*
X283810Y338697D01*
X282432Y337909D01*
X281447Y337318D01*
X280166Y336825D01*
X279083Y336136D01*
X278295Y335348D01*
X277310Y334954D01*
X275537Y333969D01*
X272188Y332196D01*
X271794Y331802D01*
X271400Y331605D01*
X269233Y330423D01*
X268839Y330029D01*
X268445Y329832D01*
X267460Y329438D01*
X266180Y328946D01*
X265294Y328059D01*
X262733Y326680D01*
X261551Y325892D01*
X260270Y325400D01*
X259581Y325105D01*
X258497Y324218D01*
X257414Y323726D01*
X256035Y322938D01*
X255444Y322347D01*
X254459Y321953D01*
X253179Y321460D01*
X252489Y320968D01*
X252095Y320574D01*
X249140Y318998D01*
X248549Y318407D01*
X247565Y318013D01*
X246284Y317521D01*
X245595Y317028D01*
X244413Y316240D01*
X243625Y316043D01*
X242443Y314861D01*
X242049Y314664D01*
X241064Y314270D01*
X239783Y313778D01*
X239488Y313482D01*
X239094Y313285D01*
X236139Y311709D01*
X235154Y310724D01*
X233283Y310035D01*
X232101Y309247D01*
X231018Y308755D01*
X229639Y307967D01*
X228851Y307179D01*
X227472Y306588D01*
X225305Y305406D01*
X222744Y304027D01*
X221956Y303239D01*
X220971Y302845D01*
X219691Y302353D01*
X217622Y301466D01*
X216342Y301171D01*
X209349Y300284D01*
X179407Y300481D01*
X178816Y300678D01*
X177437Y300875D01*
X176649Y301072D01*
X175368Y301565D01*
X174482Y302254D01*
X174088Y302451D01*
X173004Y303337D01*
X172808Y303731D01*
X172414Y304125D01*
X172217Y304519D01*
X171429Y305307D01*
X170247Y309247D01*
X170050Y310626D01*
X170247Y312793D01*
X170444Y313384D01*
X170838Y314763D01*
X171035Y315551D01*
X171330Y316831D01*
X171724Y317816D01*
X172611Y319293D01*
X173004Y320869D01*
X173300Y322150D01*
X173694Y323135D01*
X174186Y323824D01*
X174777Y325203D01*
X175467Y327075D01*
X176255Y328256D01*
X176747Y329931D01*
X176944Y330719D01*
X177240Y331802D01*
X177634Y332787D01*
X178126Y333280D01*
X178520Y334265D01*
X178717Y335052D01*
X179210Y336333D01*
X179998Y337515D01*
X180490Y338795D01*
X180982Y340864D01*
X181376Y341849D01*
X182263Y343326D01*
X182460Y344508D01*
X183642Y346675D01*
X184233Y348054D01*
X184430Y348842D01*
X184725Y350122D01*
X185119Y351107D01*
X185612Y351993D01*
X185710Y352092D01*
X186892Y355441D01*
X187582Y356130D01*
X187976Y357115D01*
X188370Y358691D01*
X188665Y359775D01*
X189059Y360760D01*
X189355Y361055D01*
X189748Y362040D01*
X190142Y363616D01*
X190931Y364995D01*
X191324Y365389D01*
X191521Y365783D01*
X191915Y366768D01*
X192408Y368836D01*
X192802Y369821D01*
X193688Y371889D01*
X193984Y373170D01*
X194969Y374746D01*
X195461Y375238D01*
X195757Y376321D01*
X195954Y377109D01*
X196151Y378094D01*
X197234Y380557D01*
X197628Y382133D01*
X198120Y383413D01*
X199007Y384300D01*
X199401Y385285D01*
X199795Y386860D01*
X200287Y388141D01*
X200780Y389224D01*
X201174Y390209D01*
X201666Y392278D01*
X202159Y392967D01*
X202750Y393558D01*
X202947Y393952D01*
X203144Y394543D01*
X203341Y395331D01*
X204129Y397498D01*
X204720Y398877D01*
X205114Y400256D01*
X205409Y401339D01*
X206394Y402915D01*
X206689Y403210D01*
X207083Y404589D01*
X207773Y406461D01*
X208659Y408529D01*
X208856Y409317D01*
X209152Y410597D01*
X209447Y411287D01*
X210629Y413060D01*
X210826Y413848D01*
X211516Y415719D01*
X212402Y417788D01*
X212796Y419364D01*
X213289Y420644D01*
X214077Y421826D01*
X214569Y422909D01*
X214865Y423993D01*
X215259Y424978D01*
X216145Y426455D01*
X216440Y427735D01*
X216637Y428720D01*
X216834Y429508D01*
X217819Y431084D01*
X218312Y432168D01*
X218607Y433251D01*
X219001Y434236D01*
X219888Y435714D01*
X220183Y436797D01*
X220380Y437782D01*
X220577Y438570D01*
X220971Y439555D01*
X221759Y440737D01*
X222744Y443494D01*
X223532Y444677D01*
X224025Y446351D01*
X224221Y447139D01*
X224517Y448222D01*
X225994Y451473D01*
X226487Y452753D01*
X227176Y453836D01*
X227767Y455215D01*
X228260Y457481D01*
X229737Y460731D01*
X230033Y461814D01*
X230821Y462996D01*
X231313Y463883D01*
X231707Y465262D01*
X231904Y466050D01*
X232593Y467921D01*
X232889Y468217D01*
X233480Y470186D01*
X233972Y471467D01*
X234268Y471762D01*
X234465Y472156D01*
X234859Y472550D01*
X235253Y473535D01*
X235647Y475111D01*
X235942Y476195D01*
X237026Y478657D01*
X237223Y479445D01*
X237715Y480725D01*
X238208Y481415D01*
X238996Y482597D01*
X239291Y483877D01*
X239488Y484665D01*
X240079Y486241D01*
X240769Y487915D01*
X241162Y489491D01*
X241950Y490870D01*
X242541Y491461D01*
X242935Y492446D01*
X243132Y493234D01*
X243428Y494318D01*
X243822Y495302D01*
X244314Y496386D01*
X244511Y497174D01*
X244905Y498553D01*
X245398Y499833D01*
X246087Y500523D01*
X246284Y500917D01*
X246875Y502295D01*
X247171Y503576D01*
X247565Y504561D01*
X248254Y506235D01*
X248648Y507614D01*
X248944Y508698D01*
X250421Y510766D01*
X250716Y512046D01*
X250913Y512834D01*
X251898Y515001D01*
X252194Y516085D01*
X252588Y517661D01*
X253376Y519039D01*
X253770Y519434D01*
X254361Y520812D01*
X254656Y522093D01*
X255740Y524358D01*
X256331Y526722D01*
X257316Y528495D01*
X258103Y530268D01*
X258300Y531056D01*
X259679Y534011D01*
X260172Y535291D01*
X260467Y535980D01*
X261354Y537064D01*
X262240Y537753D01*
X262437Y538147D01*
X262930Y538640D01*
X263324Y538837D01*
X264702Y539428D01*
X267657Y540807D01*
X269627Y541004D01*
X304494Y540807D01*
D02*
G37*
G36*
X373145Y370904D02*
X373539Y369525D01*
X373834Y368245D01*
X374425Y366669D01*
X375114Y364995D01*
X375607Y362926D01*
X376296Y361843D01*
X376690Y361449D01*
X377084Y360464D01*
X377281Y359676D01*
X377577Y358396D01*
X377774Y357608D01*
X378266Y356524D01*
X378660Y355539D01*
X378857Y354751D01*
X379153Y353471D01*
X379645Y352191D01*
X380532Y351107D01*
X381024Y349827D01*
X381517Y347758D01*
X382304Y345788D01*
X382600Y344705D01*
X382797Y343917D01*
X383092Y342637D01*
X383782Y341553D01*
X384570Y340371D01*
X384964Y338795D01*
X385259Y337712D01*
X385653Y336727D01*
X386343Y335052D01*
Y334659D01*
X386441Y334560D01*
X386638Y333575D01*
X386835Y332787D01*
X387229Y331802D01*
X388116Y330522D01*
X388510Y329537D01*
X388805Y328256D01*
X389396Y326680D01*
X389889Y325597D01*
X390283Y324218D01*
X390578Y322938D01*
X390775Y322150D01*
X391071Y321460D01*
X392055Y320081D01*
X392351Y318998D01*
X392745Y317422D01*
X393828Y315157D01*
X394025Y314369D01*
X394518Y312103D01*
X394912Y311118D01*
X395207Y310823D01*
X395404Y310429D01*
X395995Y309050D01*
X396389Y307671D01*
X397571Y305110D01*
X397867Y303830D01*
X398162Y302746D01*
X397965Y300777D01*
X397473Y300284D01*
X344680Y300481D01*
X344089Y300678D01*
X342710Y300875D01*
X341922Y301072D01*
X340839Y301367D01*
X339657Y302155D01*
X339164Y302648D01*
X338770Y302845D01*
X338081Y303337D01*
X337884Y303731D01*
X337096Y305110D01*
X336505Y305701D01*
X336308Y306095D01*
X335914Y306489D01*
X335520Y307868D01*
X335126Y309444D01*
X334338Y311414D01*
X334042Y312497D01*
X333648Y314467D01*
X333255Y315452D01*
X332762Y316142D01*
X331974Y317915D01*
X331777Y318703D01*
X331482Y319983D01*
X330891Y321559D01*
X330398Y323233D01*
X330004Y324809D01*
X329807Y325991D01*
X329019Y327370D01*
X328625Y327764D01*
X328034Y329734D01*
X327739Y331014D01*
X327148Y332590D01*
X326655Y333871D01*
X326360Y335151D01*
X326163Y336333D01*
X325966Y337121D01*
X325572Y338106D01*
X325276Y338401D01*
X325079Y338795D01*
X324488Y340174D01*
X324291Y340962D01*
X323996Y342046D01*
X323503Y343129D01*
X323700Y344114D01*
X326064Y345690D01*
X327148Y346182D01*
X328921Y347167D01*
X329315Y347561D01*
X329709Y347758D01*
X330103Y348152D01*
X331088Y348546D01*
X332860Y349531D01*
X334239Y350122D01*
X335224Y350713D01*
X336209Y351698D01*
X337194Y352092D01*
X339361Y353274D01*
X340740Y353865D01*
X342513Y354850D01*
X343301Y355638D01*
X344286Y356032D01*
X345665Y356820D01*
X346650Y357411D01*
X348521Y358100D01*
X349604Y359184D01*
X352559Y360760D01*
X355908Y362532D01*
X356499Y363123D01*
X357878Y363714D01*
X358272Y363911D01*
X358666Y364305D01*
X359060Y364502D01*
X359454Y364896D01*
X361621Y365684D01*
X362704Y366571D01*
X365757Y368245D01*
X366152Y368639D01*
X367136Y369033D01*
X368417Y369525D01*
X369106Y370018D01*
X369500Y370412D01*
X369894Y370609D01*
X371667Y371397D01*
X372258Y371594D01*
X373145Y370904D01*
D02*
G37*
G36*
X164264Y833679D02*
Y831002D01*
Y830989D01*
Y830975D01*
Y830891D01*
X164250Y830780D01*
X164236Y830642D01*
X164208Y830475D01*
X164153Y830323D01*
X164097Y830184D01*
X164014Y830059D01*
X164000Y830045D01*
X163972Y830018D01*
X163917Y829976D01*
X163848Y829935D01*
X163751Y829879D01*
X163640Y829837D01*
X163515Y829810D01*
X163376Y829796D01*
X163307D01*
X163237Y829810D01*
X163140Y829824D01*
X163043Y829865D01*
X162932Y829907D01*
X162835Y829976D01*
X162738Y830059D01*
X162724Y830073D01*
X162697Y830115D01*
X162669Y830184D01*
X162627Y830281D01*
X162572Y830406D01*
X162544Y830573D01*
X162516Y830767D01*
X162502Y831002D01*
Y831932D01*
X157995D01*
Y829352D01*
X159549D01*
Y829366D01*
Y829380D01*
Y829463D01*
X159562Y829574D01*
Y829699D01*
X159590Y829837D01*
X159618Y829976D01*
X159646Y830101D01*
X159701Y830184D01*
X159715Y830198D01*
X159756Y830240D01*
X159826Y830309D01*
X159923Y830378D01*
X160034Y830434D01*
X160159Y830503D01*
X160284Y830545D01*
X160436Y830559D01*
X160505D01*
X160575Y830545D01*
X160658Y830531D01*
X160755Y830489D01*
X160866Y830448D01*
X160963Y830378D01*
X161060Y830281D01*
X161074Y830267D01*
X161102Y830226D01*
X161143Y830156D01*
X161185Y830059D01*
X161227Y829935D01*
X161268Y829768D01*
X161296Y829574D01*
X161310Y829352D01*
Y827591D01*
Y827577D01*
Y827563D01*
Y827480D01*
X161296Y827369D01*
X161282Y827230D01*
X161254Y827064D01*
X161199Y826911D01*
X161143Y826773D01*
X161060Y826648D01*
X161046Y826634D01*
X161019Y826606D01*
X160963Y826564D01*
X160894Y826523D01*
X160797Y826468D01*
X160686Y826426D01*
X160561Y826398D01*
X160422Y826384D01*
X160353D01*
X160284Y826398D01*
X160186Y826426D01*
X160075Y826468D01*
X159951Y826537D01*
X159826Y826620D01*
X159701Y826745D01*
Y826759D01*
X159673Y826786D01*
X159659Y826842D01*
X159632Y826925D01*
X159604Y827036D01*
X159576Y827175D01*
X159562Y827369D01*
X159549Y827591D01*
X157995D01*
Y825011D01*
X159909D01*
X160020Y824997D01*
X160159Y824984D01*
X160311Y824956D01*
X160464Y824900D01*
X160602Y824845D01*
X160727Y824762D01*
X160741Y824748D01*
X160769Y824720D01*
X160811Y824665D01*
X160866Y824595D01*
X160921Y824498D01*
X160963Y824387D01*
X160991Y824262D01*
X161005Y824124D01*
Y824110D01*
Y824054D01*
X160991Y823985D01*
X160977Y823888D01*
X160935Y823791D01*
X160894Y823680D01*
X160824Y823583D01*
X160727Y823486D01*
X160713Y823472D01*
X160672Y823444D01*
X160602Y823416D01*
X160505Y823375D01*
X160381Y823319D01*
X160214Y823292D01*
X160020Y823264D01*
X159798Y823250D01*
X155846D01*
X155735Y823264D01*
X155596Y823278D01*
X155430Y823306D01*
X155277Y823347D01*
X155138Y823402D01*
X155014Y823486D01*
X155000Y823500D01*
X154972Y823527D01*
X154930Y823583D01*
X154889Y823666D01*
X154833Y823749D01*
X154792Y823860D01*
X154764Y823999D01*
X154750Y824138D01*
Y824151D01*
Y824207D01*
X154764Y824276D01*
X154778Y824360D01*
X154819Y824456D01*
X154861Y824567D01*
X154930Y824665D01*
X155014Y824762D01*
X155027Y824775D01*
X155069Y824803D01*
X155138Y824845D01*
X155235Y824886D01*
X155360Y824928D01*
X155527Y824970D01*
X155721Y824997D01*
X155957Y825011D01*
X156234D01*
Y831932D01*
X155846D01*
X155735Y831945D01*
X155596Y831959D01*
X155430Y831987D01*
X155277Y832029D01*
X155138Y832084D01*
X155014Y832167D01*
X155000Y832181D01*
X154972Y832209D01*
X154930Y832264D01*
X154889Y832334D01*
X154833Y832431D01*
X154792Y832542D01*
X154764Y832667D01*
X154750Y832805D01*
Y832819D01*
Y832875D01*
X154764Y832944D01*
X154778Y833041D01*
X154819Y833138D01*
X154861Y833249D01*
X154930Y833346D01*
X155014Y833443D01*
X155027Y833457D01*
X155069Y833485D01*
X155138Y833527D01*
X155235Y833568D01*
X155360Y833610D01*
X155527Y833651D01*
X155721Y833679D01*
X155957Y833693D01*
X164264Y833679D01*
D02*
G37*
G36*
X184442D02*
X184553D01*
X184664Y833665D01*
X184803Y833651D01*
X184955Y833624D01*
X185108Y833568D01*
X185247Y833513D01*
X185371Y833429D01*
X185385Y833416D01*
X185413Y833388D01*
X185455Y833332D01*
X185510Y833263D01*
X185566Y833180D01*
X185607Y833069D01*
X185635Y832944D01*
X185649Y832805D01*
Y832792D01*
Y832736D01*
X185635Y832667D01*
X185621Y832570D01*
X185579Y832473D01*
X185538Y832362D01*
X185469Y832251D01*
X185371Y832153D01*
X185358Y832140D01*
X185316Y832112D01*
X185247Y832084D01*
X185149Y832043D01*
X185025Y831987D01*
X184858Y831959D01*
X184664Y831932D01*
X184442Y831918D01*
Y823250D01*
X182709D01*
X178160Y830337D01*
Y825011D01*
X178909D01*
X179020Y824997D01*
X179158Y824984D01*
X179311Y824956D01*
X179464Y824900D01*
X179602Y824845D01*
X179727Y824762D01*
X179741Y824748D01*
X179769Y824720D01*
X179810Y824665D01*
X179866Y824595D01*
X179921Y824498D01*
X179963Y824387D01*
X179991Y824262D01*
X180004Y824124D01*
Y824110D01*
Y824054D01*
X179991Y823985D01*
X179977Y823888D01*
X179935Y823791D01*
X179893Y823680D01*
X179824Y823583D01*
X179727Y823486D01*
X179713Y823472D01*
X179671Y823444D01*
X179602Y823416D01*
X179505Y823375D01*
X179380Y823319D01*
X179214Y823292D01*
X179020Y823264D01*
X178798Y823250D01*
X176288D01*
X176177Y823264D01*
X176038Y823278D01*
X175872Y823306D01*
X175719Y823347D01*
X175580Y823402D01*
X175455Y823486D01*
X175442Y823500D01*
X175414Y823527D01*
X175372Y823583D01*
X175344Y823640D01*
X175303Y823583D01*
X175206Y823486D01*
X175192Y823472D01*
X175150Y823444D01*
X175081Y823416D01*
X174984Y823375D01*
X174859Y823319D01*
X174693Y823292D01*
X174499Y823264D01*
X174277Y823250D01*
X171836D01*
X171725Y823264D01*
X171586Y823278D01*
X171420Y823306D01*
X171267Y823347D01*
X171129Y823402D01*
X171004Y823486D01*
X170990Y823500D01*
X170962Y823527D01*
X170921Y823583D01*
X170879Y823666D01*
X170823Y823749D01*
X170782Y823860D01*
X170754Y823999D01*
X170740Y824138D01*
Y824151D01*
Y824207D01*
X170754Y824276D01*
X170768Y824360D01*
X170810Y824456D01*
X170851Y824567D01*
X170921Y824665D01*
X171004Y824762D01*
X171018Y824775D01*
X171059Y824803D01*
X171129Y824845D01*
X171226Y824886D01*
X171350Y824928D01*
X171517Y824970D01*
X171711Y824997D01*
X171947Y825011D01*
X172377D01*
X171933Y826093D01*
X167661D01*
X167218Y825011D01*
X167759D01*
X167869Y824997D01*
X168022Y824984D01*
X168175Y824956D01*
X168327Y824900D01*
X168466Y824845D01*
X168591Y824762D01*
X168605Y824748D01*
X168632Y824720D01*
X168674Y824665D01*
X168729Y824595D01*
X168785Y824498D01*
X168826Y824387D01*
X168854Y824262D01*
X168868Y824124D01*
Y824110D01*
Y824054D01*
X168854Y823985D01*
X168840Y823888D01*
X168799Y823791D01*
X168757Y823680D01*
X168688Y823583D01*
X168591Y823486D01*
X168577Y823472D01*
X168535Y823444D01*
X168466Y823416D01*
X168369Y823375D01*
X168244Y823319D01*
X168078Y823292D01*
X167883Y823264D01*
X167648Y823250D01*
X165207D01*
X165096Y823264D01*
X164957Y823278D01*
X164805Y823306D01*
X164652Y823347D01*
X164513Y823402D01*
X164402Y823486D01*
X164389Y823500D01*
X164361Y823527D01*
X164319Y823583D01*
X164264Y823666D01*
X164208Y823749D01*
X164167Y823860D01*
X164139Y823999D01*
X164125Y824138D01*
Y824151D01*
Y824207D01*
X164139Y824276D01*
X164167Y824360D01*
X164194Y824456D01*
X164236Y824567D01*
X164305Y824665D01*
X164402Y824762D01*
X164416Y824775D01*
X164458Y824803D01*
X164527Y824845D01*
X164610Y824886D01*
X164735Y824928D01*
X164902Y824970D01*
X165096Y824997D01*
X165318Y825011D01*
X168119Y831932D01*
X166857D01*
X166746Y831945D01*
X166607Y831959D01*
X166455Y831987D01*
X166302Y832029D01*
X166164Y832084D01*
X166039Y832167D01*
X166025Y832181D01*
X165997Y832209D01*
X165956Y832264D01*
X165914Y832334D01*
X165859Y832431D01*
X165817Y832542D01*
X165789Y832667D01*
X165775Y832805D01*
Y832819D01*
Y832875D01*
X165789Y832944D01*
X165803Y833041D01*
X165845Y833138D01*
X165886Y833249D01*
X165956Y833346D01*
X166039Y833443D01*
X166053Y833457D01*
X166094Y833485D01*
X166164Y833527D01*
X166261Y833568D01*
X166386Y833610D01*
X166552Y833651D01*
X166746Y833679D01*
X166968Y833693D01*
X170754Y833679D01*
X174277Y825011D01*
X174388D01*
X174499Y824997D01*
X174623D01*
X174762Y824970D01*
X174901Y824942D01*
X175026Y824900D01*
X175109Y824845D01*
X175123Y824831D01*
X175164Y824789D01*
X175234Y824720D01*
X175303Y824637D01*
X175323Y824596D01*
X175372Y824665D01*
X175455Y824762D01*
X175469Y824775D01*
X175511Y824803D01*
X175580Y824845D01*
X175677Y824886D01*
X175802Y824928D01*
X175969Y824970D01*
X176163Y824997D01*
X176399Y825011D01*
Y831932D01*
X176010D01*
X175899Y831945D01*
X175761Y831959D01*
X175594Y831987D01*
X175442Y832029D01*
X175303Y832084D01*
X175178Y832167D01*
X175164Y832181D01*
X175137Y832209D01*
X175095Y832264D01*
X175053Y832334D01*
X174998Y832431D01*
X174956Y832542D01*
X174928Y832667D01*
X174915Y832805D01*
Y832819D01*
Y832875D01*
X174928Y832944D01*
X174942Y833041D01*
X174984Y833138D01*
X175026Y833249D01*
X175095Y833346D01*
X175178Y833443D01*
X175192Y833457D01*
X175234Y833485D01*
X175303Y833527D01*
X175400Y833568D01*
X175525Y833610D01*
X175691Y833651D01*
X175885Y833679D01*
X176121Y833693D01*
X178146Y833679D01*
X182681Y826592D01*
Y831932D01*
X181932D01*
X181821Y831945D01*
X181682Y831959D01*
X181516Y831987D01*
X181364Y832029D01*
X181225Y832084D01*
X181100Y832167D01*
X181086Y832181D01*
X181058Y832209D01*
X181017Y832264D01*
X180975Y832334D01*
X180920Y832431D01*
X180878Y832542D01*
X180850Y832667D01*
X180837Y832805D01*
Y832819D01*
Y832875D01*
X180850Y832944D01*
X180864Y833041D01*
X180906Y833138D01*
X180947Y833249D01*
X181017Y833346D01*
X181100Y833443D01*
X181114Y833457D01*
X181155Y833485D01*
X181225Y833527D01*
X181322Y833568D01*
X181447Y833610D01*
X181613Y833651D01*
X181807Y833679D01*
X182043Y833693D01*
X184442Y833679D01*
D02*
G37*
%LPC*%
G36*
X169797Y831349D02*
X168369Y827854D01*
X171226D01*
X169797Y831349D01*
D02*
G37*
%LPD*%
D10*
X373750Y806250D02*
G03*
X372750Y806250I-500J0D01*
G01*
D02*
G03*
X373750Y806250I500J0D01*
G01*
X412750Y823750D02*
G03*
X412750Y823750I-500J0D01*
G01*
X369750Y810250D02*
Y830250D01*
X389750Y810250D02*
Y830250D01*
D11*
X263000Y827250D02*
G03*
X263000Y827250I-1250J0D01*
G01*
X379250Y829250D02*
G03*
X379250Y829250I-1250J0D01*
G01*
X209600Y698750D02*
G03*
X209600Y698750I-1250J0D01*
G01*
D12*
X241000Y841250D02*
G03*
X241000Y841250I-1000J0D01*
G01*
D13*
X19250Y803600D02*
Y883600D01*
Y803600D02*
X129250D01*
Y883600D01*
X569500Y734750D02*
X569500Y11750D01*
X569199Y737420D02*
X569500Y734750D01*
X568311Y739957D02*
X569199Y737420D01*
X566882Y742232D02*
X568311Y739957D01*
X564982Y744132D02*
X566882Y742232D01*
X562706Y745562D02*
X564982Y744132D01*
X560170Y746449D02*
X562706Y745562D01*
X557500Y746750D02*
X560170Y746449D01*
X12000Y746750D02*
X557500D01*
X9330Y746449D02*
X12000Y746750D01*
X6793Y745562D02*
X9330Y746449D01*
X4518Y744132D02*
X6793Y745562D01*
X2618Y742232D02*
X4518Y744132D01*
X1188Y739957D02*
X2618Y742232D01*
X301Y737420D02*
X1188Y739957D01*
X-0Y734750D02*
X301Y737420D01*
X-0Y734750D02*
X-0Y11750D01*
X301Y9080D01*
X1188Y6543D01*
X2618Y4268D01*
X4518Y2368D01*
X6793Y938D01*
X9330Y51D01*
X12000Y-250D01*
X557500D01*
X560170Y51D01*
X562707Y938D01*
X564982Y2368D01*
X566882Y4268D01*
X568312Y6543D01*
X569199Y9080D01*
X569500Y11750D01*
X402250Y816010D02*
Y817490D01*
X410248Y816010D02*
Y817490D01*
X276700Y790750D02*
X282700D01*
X228250Y818000D02*
X269750D01*
X228250Y776500D02*
Y818000D01*
Y776500D02*
X269750D01*
Y818000D01*
X204250Y816250D02*
Y822250D01*
X383750Y805250D02*
X429750D01*
X383750Y765250D02*
X429750D01*
X383750Y800000D02*
Y805250D01*
X429750Y800000D02*
Y805250D01*
X383750Y765250D02*
Y770500D01*
X429750Y765250D02*
Y770500D01*
X306625Y765250D02*
X361250D01*
Y789000D01*
Y809500D02*
Y833250D01*
X306625D02*
X361250D01*
X293250Y778625D02*
Y789000D01*
Y778625D02*
X306625Y765250D01*
X293250Y819875D02*
X306625Y833250D01*
X293250Y809500D02*
Y819875D01*
X254750Y845750D02*
Y858750D01*
X238500Y845750D02*
X254750D01*
X183500Y886250D02*
X243500D01*
X172250Y845750D02*
Y858750D01*
Y845750D02*
X188500D01*
X293000Y845750D02*
Y857750D01*
Y845750D02*
X309000D01*
X305500Y886250D02*
X388000D01*
X385000Y845750D02*
X400500D01*
Y857750D01*
X470750Y780250D02*
Y786250D01*
X173850Y636600D02*
Y693900D01*
Y636600D02*
X395150D01*
Y693900D01*
X173850D02*
X395150D01*
D14*
X394250Y816250D02*
X398250D01*
X413750Y816750D02*
X417750D01*
X422250D02*
X426250D01*
X244750Y766750D02*
Y770750D01*
X247500Y824250D02*
Y828250D01*
X261000Y766750D02*
Y770750D01*
X227750Y766750D02*
Y770750D01*
X141000Y797500D02*
Y810999D01*
X141000Y810999D02*
X156500D01*
X198500Y797500D02*
Y810999D01*
X183000Y810999D02*
X198500D01*
X154000Y768499D02*
X185500D01*
X183000Y817375D02*
X187000Y819375D01*
X183000Y817375D02*
X187000Y815375D01*
Y819375D01*
X209250Y795750D02*
Y801750D01*
X220250Y795750D02*
Y801750D01*
X94250Y794750D02*
Y798750D01*
D15*
X439750Y765549D02*
Y804949D01*
D16*
X540050Y792950D02*
Y794150D01*
X443450Y792950D02*
X540050D01*
X443450D02*
Y794150D01*
X239752Y757751D02*
Y763749D01*
X242751D01*
X243750Y762749D01*
Y760750D01*
X242751Y759750D01*
X239752D01*
X241751D02*
X243750Y757751D01*
X245750Y763749D02*
X249748D01*
Y762749D01*
X245750Y758751D01*
Y757751D01*
X434749Y811752D02*
X428751D01*
Y814751D01*
X429751Y815750D01*
X431750D01*
X432750Y814751D01*
Y811752D01*
Y813751D02*
X434749Y815750D01*
X428751Y821748D02*
X429751Y819749D01*
X431750Y817750D01*
X433749D01*
X434749Y818749D01*
Y820749D01*
X433749Y821748D01*
X432750D01*
X431750Y820749D01*
Y817750D01*
X418749Y828252D02*
X412751D01*
Y831251D01*
X413751Y832250D01*
X415750D01*
X416750Y831251D01*
Y828252D01*
Y830251D02*
X418749Y832250D01*
X412751Y838248D02*
Y834250D01*
X415750D01*
X414750Y836249D01*
Y837249D01*
X415750Y838248D01*
X417749D01*
X418749Y837249D01*
Y835249D01*
X417749Y834250D01*
X387250Y835251D02*
Y839249D01*
X386250Y840249D01*
X384251D01*
X383251Y839249D01*
Y835251D01*
X384251Y834251D01*
X386250D01*
X385251Y836250D02*
X387250Y834251D01*
X386250D02*
X387250Y835251D01*
X389249Y834251D02*
X391249D01*
X390249D01*
Y840249D01*
X389249Y839249D01*
X403251Y828252D02*
X409249D01*
Y831251D01*
X408249Y832250D01*
X404251D01*
X403251Y831251D01*
Y828252D01*
X404251Y834250D02*
X403251Y835249D01*
Y837249D01*
X404251Y838248D01*
X405250D01*
X406250Y837249D01*
Y836249D01*
Y837249D01*
X407250Y838248D01*
X408249D01*
X409249Y837249D01*
Y835249D01*
X408249Y834250D01*
X394251Y832250D02*
X393251Y831251D01*
Y829251D01*
X394251Y828252D01*
X398249D01*
X399249Y829251D01*
Y831251D01*
X398249Y832250D01*
X399249Y837249D02*
X393251D01*
X396250Y834250D01*
Y838248D01*
X229251Y826749D02*
Y821751D01*
X230251Y820751D01*
X232250D01*
X233250Y821751D01*
Y826749D01*
X235249Y820751D02*
X237249D01*
X236249D01*
Y826749D01*
X235249Y825749D01*
X242752Y831251D02*
Y837249D01*
X245751D01*
X246750Y836249D01*
Y834250D01*
X245751Y833250D01*
X242752D01*
X244751D02*
X246750Y831251D01*
X251749D02*
Y837249D01*
X248750Y834250D01*
X252748D01*
X270252Y765751D02*
Y771749D01*
X273251D01*
X274250Y770749D01*
Y768750D01*
X273251Y767750D01*
X270252D01*
X272251D02*
X274250Y765751D01*
X276250Y770749D02*
X277249Y771749D01*
X279249D01*
X280248Y770749D01*
Y769750D01*
X279249Y768750D01*
X278249D01*
X279249D01*
X280248Y767750D01*
Y766751D01*
X279249Y765751D01*
X277249D01*
X276250Y766751D01*
X209002Y765751D02*
Y771749D01*
X212001D01*
X213000Y770749D01*
Y768750D01*
X212001Y767750D01*
X209002D01*
X211001D02*
X213000Y765751D01*
X218998D02*
X215000D01*
X218998Y769750D01*
Y770749D01*
X217999Y771749D01*
X215999D01*
X215000Y770749D01*
X90751Y785751D02*
Y791749D01*
X93750D01*
X94750Y790749D01*
Y788750D01*
X93750Y787750D01*
X90751D01*
X92751D02*
X94750Y785751D01*
X96749D02*
X98749D01*
X97749D01*
Y791749D01*
X96749Y790749D01*
X146750Y819749D02*
X144751D01*
X145751D01*
Y814751D01*
X144751Y813751D01*
X143751D01*
X142752Y814751D01*
X152748Y819749D02*
X150749Y818749D01*
X148750Y816750D01*
Y814751D01*
X149749Y813751D01*
X151749D01*
X152748Y814751D01*
Y815750D01*
X151749Y816750D01*
X148750D01*
X180250Y703249D02*
X178251D01*
X179251D01*
Y698251D01*
X178251Y697251D01*
X177251D01*
X176252Y698251D01*
X186248Y703249D02*
X182250D01*
Y700250D01*
X184249Y701250D01*
X185249D01*
X186248Y700250D01*
Y698251D01*
X185249Y697251D01*
X183249D01*
X182250Y698251D01*
X532750Y789749D02*
X530751D01*
X531751D01*
Y784751D01*
X530751Y783751D01*
X529751D01*
X528752Y784751D01*
X537749Y783751D02*
Y789749D01*
X534750Y786750D01*
X538748D01*
X302750Y842249D02*
X300751D01*
X301751D01*
Y837251D01*
X300751Y836251D01*
X299751D01*
X298752Y837251D01*
X304750Y841249D02*
X305749Y842249D01*
X307749D01*
X308748Y841249D01*
Y840250D01*
X307749Y839250D01*
X306749D01*
X307749D01*
X308748Y838250D01*
Y837251D01*
X307749Y836251D01*
X305749D01*
X304750Y837251D01*
X178750Y841749D02*
X176751D01*
X177751D01*
Y836751D01*
X176751Y835751D01*
X175751D01*
X174752Y836751D01*
X184748Y835751D02*
X180750D01*
X184748Y839750D01*
Y840749D01*
X183749Y841749D01*
X181749D01*
X180750Y840749D01*
X36250Y800249D02*
X34251D01*
X35250D01*
Y795251D01*
X34251Y794251D01*
X33251D01*
X32251Y795251D01*
X38249Y794251D02*
X40249D01*
X39249D01*
Y800249D01*
X38249Y799249D01*
X203250Y831249D02*
X199252D01*
Y828250D01*
X201251D01*
X199252D01*
Y825251D01*
X209248D02*
X205250D01*
X209248Y829250D01*
Y830249D01*
X208249Y831249D01*
X206249D01*
X205250Y830249D01*
X471250Y776749D02*
X467251D01*
Y773750D01*
X469251D01*
X467251D01*
Y770751D01*
X473249D02*
X475249D01*
X474249D01*
Y776749D01*
X473249Y775749D01*
X403251Y763249D02*
Y757251D01*
X406250D01*
X407250Y758251D01*
Y762249D01*
X406250Y763249D01*
X403251D01*
X409249Y757251D02*
X411249D01*
X410249D01*
Y763249D01*
X409249Y762249D01*
X213750Y783249D02*
X212751Y784249D01*
X210751D01*
X209752Y783249D01*
Y779251D01*
X210751Y778251D01*
X212751D01*
X213750Y779251D01*
X215750Y783249D02*
X216749Y784249D01*
X218749D01*
X219748Y783249D01*
Y782250D01*
X218749Y781250D01*
X217749D01*
X218749D01*
X219748Y780250D01*
Y779251D01*
X218749Y778251D01*
X216749D01*
X215750Y779251D01*
X278700Y808749D02*
X277701Y809749D01*
X275701D01*
X274702Y808749D01*
Y804751D01*
X275701Y803751D01*
X277701D01*
X278700Y804751D01*
X284698Y803751D02*
X280700D01*
X284698Y807750D01*
Y808749D01*
X283699Y809749D01*
X281699D01*
X280700Y808749D01*
X293750Y833749D02*
X292750Y834749D01*
X290751D01*
X289751Y833749D01*
Y829751D01*
X290751Y828751D01*
X292750D01*
X293750Y829751D01*
X295749Y828751D02*
X297749D01*
X296749D01*
Y834749D01*
X295749Y833749D01*
M02*
