M48
;Layer_Color=9474304
;FILE_FORMAT=2:5
INCH,LZ
;TYPE=PLATED
T1F00S00C0.01000
T2F00S00C0.01378
T3F00S00C0.04016
T4F00S00C0.04173
T5F00S00C0.11811
%
T01
X0003897Y002765
X00024Y0040036
X0011277Y0040644
X0014516Y0036034
X0023931Y0038475
X0034223Y0036316
X0046116Y0034315
X0053847Y0033516
X0050288Y0038812
X0046623Y0045275
X0046184Y0051014
X0044312Y0059193
X0043998Y006931
X0052366Y0069356
X005506Y0064431
X0057985Y00601
X0062402Y0056567
X0061796Y0052525
X0056921Y0051607
X0068599Y004766
X0071745Y004594
X0072817Y0057215
X0067322Y0037749
X006458Y0029203
X0066436Y0024522
X0065256Y001819
X0061801Y0015639
X0062515Y0008181
X0053739Y0011464
X0049334Y0019376
X0057604Y0023234
X0071728Y0020179
X0074498Y0022116
X0072873Y0030048
X0071894Y0002501
X0042753Y0008144
X0037996Y0006879
X0033877Y0011274
X0036164Y0015066
X0032275Y0003323
X0032326Y0048556
X0024324Y0062564
X0016772Y0068482
X0016728Y0072205
X0012928Y0065657
X00024Y0066106
Y0052707
X0016411Y0056567
X005645Y0073865
X0076618Y0063791
X0080204Y0067339
X0082368Y0059245
X0087589Y0056582
X0091072Y0055775
X0091258Y0064923
X008744Y0062084
X0098879Y0065324
X0105295Y0072539
X0124922Y0065531
X0124348Y0056855
X0121428Y0055659
X0119136Y0052621
X011571Y0045246
X0115981Y0038373
X0117972Y0033693
X0114702Y0031
X0122524Y0023671
X0127485Y0023898
X0127746Y0028453
X0131014Y0019444
X0148704Y0016644
X0163549Y0020369
X017796Y0015734
X0192151Y0020689
X0189309Y0029017
X0189473Y0039414
X0195958Y0039719
X0204337Y0039658
X0211526Y0039611
X0218377Y0040383
X0229287Y0040213
X0229243Y0029502
X022074Y0030009
X0204972Y0029606
X019983Y0013539
X0199842Y0002987
X0184561Y00029
X0166657Y0002486
X0143167Y0002483
X0118939Y0002469
X0094129Y0002468
Y0008419
X0094816Y0027153
X0089898Y0023657
X0083786Y0027841
X0083811Y0033713
X0083635Y0038901
X0099288Y0038691
X0129254Y0044272
X0130667Y0048884
X0134163Y0052897
X0137306Y004393
X013754Y0033564
X0138224Y0062953
X0139039Y0073693
X0189489Y0069071
X0195665Y0069375
X0202962Y0063907
X0202914Y0053942
X0202878Y0048926
X0189384Y0048884
X0189489Y005879
X0077039Y0025166
X0077484Y0018053
X0077491Y0012668
X0083335Y0018053
X02334Y00516
Y00564
Y00816
Y00864
Y00912
X023089Y0097312
X0230956Y0106586
X0211526Y0101314
Y0095869
X0205758Y0097111
Y010375
Y0110445
X0194966Y0111014
X0191633Y0114015
X0191237Y0103412
X0181265Y0118728
X0178791Y0134293
X0195375Y0134229
X020333Y0124161
X0164269Y0119823
X0162305Y0134614
X0149632Y013455
X0137637Y013454
X0125106Y0134529
X0113174Y013454
X0101342
X0093785Y0126607
X0096202Y0121033
X0087857Y0119823
X0087769Y0114935
X0087813Y0108651
X0087857Y0102352
X0080484Y010156
X008706Y0089428
X0094853Y0093035
X009217Y0081814
X0077901Y0082735
X0105384Y0079677
X0111558Y0094933
X0125028Y0103086
X0137006Y0104272
X0136675Y0094272
X0137054Y0083531
X0126261Y0085008
X013225Y0110725
X013741Y0120123
X0113083Y0115173
X00866Y0130895
X0066451Y0130771
X0051217Y0130668
X0035094Y0126368
X0034223Y0099213
X0033703Y0089428
X0043877Y0089215
X0044069Y0079511
X0060145Y0077876
X0060218Y0087093
X0054466Y0092939
X0047617Y0099415
X0047845Y0106739
X0068864Y0114924
X0069723Y0090538
X0074881Y0075837
X0016728Y0075974
X0016737Y0080047
X0016728Y0084016
X0012988Y0086362
X0022003Y0091612
X0015704Y0100808
X0005956Y0104636
X00024Y0094047
Y0079366
T02
X0009449Y0009449
X0015748Y000689
X0022047Y0009449
X0024606Y0015748
X0022047Y0022047
X0015748Y0024606
X0009449Y0022047
X000689Y0015748
X0211614
X0214173Y0022047
X0220472Y0024606
X0226772Y0022047
X0229331Y0015748
X0226772Y0009449
X0220472Y000689
X0214173Y0009449
Y0115748
X0211614Y0122047
X0214173Y0128347
X0220472Y0130905
X0226772Y0128347
X0229331Y0122047
X0226772Y0115748
X0220472Y0113189
X0022047Y0115748
X0024606Y0122047
X0022047Y0128347
X0015748Y0130905
X0009449Y0128347
X000689Y0122047
X0009449Y0115748
X0015748Y0113189
T03
X01269Y0010052
X01369
T04
X0041339Y0024272
Y0034272
Y0044272
Y0054272
Y0064272
Y0074272
Y0084272
Y0094272
Y0104272
Y0114272
T05
X0015748Y0015748
X0220472
Y0122047
X0015748
M30
