M48
;Layer_Color=9474304
;FILE_FORMAT=4:4
METRIC,LZ
;TYPE=PLATED
T1F00S00C0.2000
T3F00S00C1.0600
T4F00S00C2.4100
;TYPE=NON_PLATED
T5F00S00C1.4500
T6F00S00C3.0000
T7F00S00C3.2000
%
T01
X000345Y0003125
X000595
X000845
X00072Y0005625
X00047
X00022
X000345Y0008125
X000595
X000845
X00072Y0010625
X00047
X00022
X000345Y0013125
X000595
X000845
X00072Y0015625
X00047
X00022
X000345Y0018125
X000595
X000845
X00072Y0020625
X00047
X00022
X000345Y0023125
X000595
X000845
X00072Y0025625
X00047
X00022
X000345Y0028125
X000595
X000845
X00072Y0030625
X00047
X00022
X00097
X00122
X00147
X00172
X00197
X00222
X00247
X00272
X00297
X00322
X00347
X00372
X00397
X00422
X00447
X00472
X004595Y0028125
X004345
X004095
X003845
X003595
X003345
X003095
X002845
X002595
X002345
X002095
X001845
X001595
X001345
X001095
X00122Y0025625
X00147
X00172
X00197
X00222
X00247
X00272
X00297
X00322
X00347
X00372
X00397
X00422
X00447
X00472
X004595Y0023125
X004345
X004095
X003845
X003595
X003345
X003095
X002845
X002595
X002345
X002095
X001845
X001595
X001345
X001095
X00122Y0020625
X00147
X00172
X00197
X00222
X00247
X00272
X00297
X00322
X00347
X00372
X00397
X00422
X00447
X00472
X004595Y0018125
X004345
X004095
X003845
X003595
X003345
X003095
X002845
X002595
X002345
X002095
X001845
X001595
X001345
X001095
X00122Y0015625
X00147
X00172
X00197
X00222
X00247
X00272
X00297
X00322
X00347
X00372
X00397
X00422
X00447
X00472
X004595Y0013125
X004345
X004095
X003845
X003595
X003345
X003095
X002845
X002595
X002345
X002095
X001845
X001595
X001345
X001095
X00122Y0010625
X00147
X00172
X00197
X00222
X00247
X00272
X00297
X00322
X00347
X00372
X00397
X00422
X00447
X00472
X004595Y0008125
X004345
X004095
X003845
X003595
X003345
X003095
X002845
X002595
X002345
X002095
X001845
X001595
X001345
X001095
X00122Y0005625
X00147
X00172
X00197
X00222
X00247
X00272
X00297
X00322
X00347
X00372
X00397
X00422
X00447
X00472
X004595Y0003125
X004345
X004095
X003845
X003595
X003345
X003095
X002845
X002595
X002345
X002095
X001845
X001595
X001345
X001095
X00097Y0005625
Y0010625
Y0015625
Y0020625
Y0025625
X00497
X00522
X00547
X005595Y0028125
X005345
X005095
X004845
X00497Y0030625
X00522
X00547
X005595Y0023125
X005345
X005095
X004845
X00497Y0020625
X00522
X00547
X005595Y0018125
X00547Y0015625
X005595Y0013125
X005345
X005095
X004845
X00497Y0015625
X004845Y0018125
X00497Y0010625
X00522
X00547
X005595Y0008125
X005345
X005095
X004845
X00497Y0005625
X00522
X00547
X005595Y0003125
X005345
X005095
X004845
Y0033125
X005095
X005345
X005595
X00547Y0035625
X00522
X00497
X005095Y0038125
X005345
X005595
X00547Y0040625
X00522
X00497
X005095Y0043125
X005345
X005595
X00547Y0045625
X00522
X00497
X005095Y0048125
X005345
X005595
X00547Y0050625
X00522
X00497
X005095Y0053125
X005345
X005595
X00547Y0055625
X00522
X00497
X005095Y0058125
X005345
X005595
X00547Y0060625
X00522
X00497
X005095Y0063125
X005345
X005595
X00547Y0065625
X00522
X00497
X005095Y0068125
X005345
X005595
X00547Y0070625
X00522
X00497
X004845Y0068125
Y0063125
Y0058125
Y0053125
Y0048125
Y0043125
Y0038125
X004595
X004345
X004095
X003845
X003595
X003345
X003095
X002845
X002595
X002345
X002095
X001845
X001595
X001345
X001095
X00122Y0040625
X00147
X00172
X00197
X00222
X00247
X00272
X00297
X00322
X00347
X00372
X00397
X00422
X00447
X00472
X004595Y0043125
X004345
X004095
X003845
X003595
X003345
X003095
X002845
X002595
X002345
X002095
X001845
X001595
X001345
X001095
X00122Y0045625
X00147
X00172
X00197
X00222
X00247
X00272
X00297
X00322
X00347
X00372
X00397
X00422
X00447
X00472
X004595Y0048125
X004345
X004095
X003845
X003595
X003345
X003095
X002845
X002595
X002345
X002095
X001845
X001595
X001345
X001095
X00122Y0050625
X00147
X00172
X00197
X00222
X00247
X00272
X00297
X00322
X00347
X00372
X00397
X00422
X00447
X00472
X004595Y0053125
X004345
X004095
X003845
X003595
X003345
X003095
X002845
X002595
X002345
X002095
X001845
X001595
X001345
X001095
X00122Y0055625
X00147
X00172
X00197
X00222
X00247
X00272
X00297
X00322
X00347
X00372
X00397
X00422
X00447
X00472
X004595Y0058125
X004345
X004095
X003845
X003595
X003345
X003095
X002845
X002595
X002345
X002095
X001845
X001595
X001345
X001095
X00122Y0060625
X00147
X00172
X00197
X00222
X00247
X00272
X00297
X00322
X00347
X00372
X00397
X00422
X00447
X00472
X004595Y0063125
X004345
X004095
X003845
X0036575Y0062625
X0035314Y00630314
X0034075Y0063475
X0033675Y0063875
X003095Y0063125
X0028075Y0063875
X0025675
X0024775
X0024125
X0023275
X0023208Y0066425
Y0066975
X0023225Y0069175
X0025675
X0028075
X00272Y0070625
X00297
X0030475Y0069175
X0031975Y0067525
X0035875Y0067075
X0035925Y0069175
Y0069675
X0037025Y0069725
Y0069225
Y0068725
Y0068225
X0034725Y0069175
Y0069675
X004095Y0068125
X004345
X004595
X00472Y0070625
X00447
Y0065625
X00472
X00422
X00397
X0026625Y0067525
X0020825
X001845Y0068125
X001595
X00172Y0070625
X00147
X00122
X00097
X001095Y0068125
X00172Y0065625
X00222Y0070625
X00097Y0060625
Y0055625
Y0050625
Y0045625
Y0040625
Y0035625
X00122
X00147
X00172
X00197
X00222
X00247
X00272
X00297
X00322
X00347
X00372
X00397
X00422
X00447
X00472
X004595Y0033125
X004345
X004095
X003845
X003595
X003345
X003095
X002845
X002595
X002345
X002095
X001845
X001595
X001345
X001095
X000845
X000595
X000345
X00047Y0035625
X00072
X000845Y0038125
X000595
X000345
X00047Y0040625
X00072
X000845Y0043125
X000595
X000345
X00047Y0045625
X00072
X000845Y0048125
X000595
X000345
X00047Y0050625
X00072
X000845Y0053125
X000595
X000345
X00047Y0055625
X00072
X000845Y0058125
X000595
X000345
X00047Y0060625
X00072
X000845Y0063125
X00047Y0065625
X00022
X000345Y0068125
X000595
X00047Y0070625
X00022
Y0060625
Y0055625
Y0050625
Y0045625
Y0040625
Y0035625
X000345Y0073125
X000595
X00047Y0075625
X00022
X000345Y0078125
X000595
X0004425Y0080675
X0004375Y0083475
X00047Y0085625
X00072
X0006675Y0083725
X0007175Y0082375
X0007925Y0081775
X0008425Y0082225
X0008175Y0087925
X0005675
X0010675
X0013175
X0015675
X00147Y0085625
X001595Y0083125
X0016425Y0082325
X0015975Y0081725
Y0080875
X00147Y0080625
X001595Y0078125
X00172Y0075625
X00147
X00122
X00097
X001095Y0078125
X0010425Y0080675
X0010475Y0083475
X00097Y0085625
X001345Y0083125
X0019825Y0083275
X0020375
X002095Y0083125
X0022275Y0083275
X0022925
X0025675Y0082625
X0026175Y0081425
X0026625Y0081025
X0025225Y0080075
X0024575
Y0079375
X0025225
X0023925
X0023775Y0078075
X0024875Y0078025
X0024975Y0077425
X002655Y0077325
X0026475Y0078175
X0027375Y0078375
X00272Y0075625
X00297
X003095Y0078125
Y0073125
X002845
X002595
X00247Y0075625
X0021358Y0076875
X0021825Y0078375
X0020875Y0078375
X0021358Y0080125
X0020675Y0087925
X0028175
X0030675
X0033175
X0035675
X0038175
X0040675
X0043175
X0045675
X0048175
X00422Y0085625
X0042425Y0082575
X00447Y0080625
X00422Y0075625
X00397
X004095Y0073125
X003845
X0037625Y0077775
X0037125Y0078275
Y0079275
Y0080175
X0037625Y0079725
Y0078775
X0036575Y0083275
X0035325
X0034075
X0032825
X0031575
X002845Y0083125
X00272Y0085625
X001845Y0073125
X001595
X001345
X001095
X004595
X004845
X005095
X005345
X005595
X00547Y0075625
X00522
X00497
X005095Y0078125
X005345
X005595
X00547Y0080625
X00522
X005595Y0083125
X004845
X00497Y0085625
X0050675Y0087925
X0053175
T03
X0047675Y0080275
X0050675
T04
X0045525Y0084595
X0052825
T05
X001905Y0065025
X003785
T06
X001395Y0066325
T07
X005295Y0017725
X000395Y0063425
M30
