G04*
G04 #@! TF.GenerationSoftware,Altium Limited,Altium Designer,20.1.8 (145)*
G04*
G04 Layer_Color=2752767*
%FSLAX44Y44*%
%MOMM*%
G71*
G04*
G04 #@! TF.SameCoordinates,C9CF11F6-8CB7-4B33-927B-0983859D9422*
G04*
G04*
G04 #@! TF.FilePolarity,Positive*
G04*
G01*
G75*
%ADD74C,0.0508*%
%ADD75C,0.0677*%
D74*
X345694Y23499D02*
Y27563D01*
X349758D01*
Y23499D01*
X345694D01*
X320294D02*
Y27563D01*
X324358D01*
Y23499D01*
X320294D01*
X105000Y59619D02*
X102968Y63683D01*
X107032D01*
X105000Y59619D01*
Y85019D02*
X102968Y89083D01*
X107032D01*
X105000Y85019D01*
Y110419D02*
X102968Y114483D01*
X107032D01*
X105000Y110419D01*
Y135819D02*
X102968Y139883D01*
X107032D01*
X105000Y135819D01*
Y161219D02*
X102968Y165283D01*
X107032D01*
X105000Y161219D01*
Y186619D02*
X102968Y190683D01*
X107032D01*
X105000Y186619D01*
Y212019D02*
X102968Y216083D01*
X107032D01*
X105000Y212019D01*
Y237419D02*
X102968Y241483D01*
X107032D01*
X105000Y237419D01*
Y262819D02*
X102968Y266883D01*
X107032D01*
X105000Y262819D01*
Y288219D02*
X102968Y292283D01*
X107032D01*
X105000Y288219D01*
X40000Y60468D02*
X41016Y61484D01*
X42032D01*
X41016Y62500D01*
X42032Y63516D01*
X41016D01*
X40000Y64532D01*
X38984Y63516D01*
X37968D01*
X38984Y62500D01*
X37968Y61484D01*
X38984D01*
X40000Y60468D01*
X62500Y37968D02*
X63516Y38984D01*
X64532D01*
X63516Y40000D01*
X64532Y41016D01*
X63516D01*
X62500Y42032D01*
X61484Y41016D01*
X60468D01*
X61484Y40000D01*
X60468Y38984D01*
X61484D01*
X62500Y37968D01*
X40000Y15468D02*
X41016Y16484D01*
X42032D01*
X41016Y17500D01*
X42032Y18516D01*
X41016D01*
X40000Y19532D01*
X38984Y18516D01*
X37968D01*
X38984Y17500D01*
X37968Y16484D01*
X38984D01*
X40000Y15468D01*
X17500Y37968D02*
X18516Y38984D01*
X19532D01*
X18516Y40000D01*
X19532Y41016D01*
X18516D01*
X17500Y42032D01*
X16484Y41016D01*
X15468D01*
X16484Y40000D01*
X15468Y38984D01*
X16484D01*
X17500Y37968D01*
X56000Y21968D02*
X57016Y22984D01*
X58032D01*
X57016Y24000D01*
X58032Y25016D01*
X57016D01*
X56000Y26032D01*
X54984Y25016D01*
X53968D01*
X54984Y24000D01*
X53968Y22984D01*
X54984D01*
X56000Y21968D01*
X24000Y53968D02*
X25016Y54984D01*
X26032D01*
X25016Y56000D01*
X26032Y57016D01*
X25016D01*
X24000Y58032D01*
X22984Y57016D01*
X21968D01*
X22984Y56000D01*
X21968Y54984D01*
X22984D01*
X24000Y53968D01*
Y21968D02*
X25016Y22984D01*
X26032D01*
X25016Y24000D01*
X26032Y25016D01*
X25016D01*
X24000Y26032D01*
X22984Y25016D01*
X21968D01*
X22984Y24000D01*
X21968Y22984D01*
X22984D01*
X24000Y21968D01*
X56000Y53968D02*
X57016Y54984D01*
X58032D01*
X57016Y56000D01*
X58032Y57016D01*
X57016D01*
X56000Y58032D01*
X54984Y57016D01*
X53968D01*
X54984Y56000D01*
X53968Y54984D01*
X54984D01*
X56000Y53968D01*
Y323968D02*
X57016Y324984D01*
X58032D01*
X57016Y326000D01*
X58032Y327016D01*
X57016D01*
X56000Y328032D01*
X54984Y327016D01*
X53968D01*
X54984Y326000D01*
X53968Y324984D01*
X54984D01*
X56000Y323968D01*
X24000Y291968D02*
X25016Y292984D01*
X26032D01*
X25016Y294000D01*
X26032Y295016D01*
X25016D01*
X24000Y296032D01*
X22984Y295016D01*
X21968D01*
X22984Y294000D01*
X21968Y292984D01*
X22984D01*
X24000Y291968D01*
Y323968D02*
X25016Y324984D01*
X26032D01*
X25016Y326000D01*
X26032Y327016D01*
X25016D01*
X24000Y328032D01*
X22984Y327016D01*
X21968D01*
X22984Y326000D01*
X21968Y324984D01*
X22984D01*
X24000Y323968D01*
X56000Y291968D02*
X57016Y292984D01*
X58032D01*
X57016Y294000D01*
X58032Y295016D01*
X57016D01*
X56000Y296032D01*
X54984Y295016D01*
X53968D01*
X54984Y294000D01*
X53968Y292984D01*
X54984D01*
X56000Y291968D01*
X17500Y307968D02*
X18516Y308984D01*
X19532D01*
X18516Y310000D01*
X19532Y311016D01*
X18516D01*
X17500Y312032D01*
X16484Y311016D01*
X15468D01*
X16484Y310000D01*
X15468Y308984D01*
X16484D01*
X17500Y307968D01*
X40000Y285468D02*
X41016Y286484D01*
X42032D01*
X41016Y287500D01*
X42032Y288516D01*
X41016D01*
X40000Y289532D01*
X38984Y288516D01*
X37968D01*
X38984Y287500D01*
X37968Y286484D01*
X38984D01*
X40000Y285468D01*
X62500Y307968D02*
X63516Y308984D01*
X64532D01*
X63516Y310000D01*
X64532Y311016D01*
X63516D01*
X62500Y312032D01*
X61484Y311016D01*
X60468D01*
X61484Y310000D01*
X60468Y308984D01*
X61484D01*
X62500Y307968D01*
X40000Y330468D02*
X41016Y331484D01*
X42032D01*
X41016Y332500D01*
X42032Y333516D01*
X41016D01*
X40000Y334532D01*
X38984Y333516D01*
X37968D01*
X38984Y332500D01*
X37968Y331484D01*
X38984D01*
X40000Y330468D01*
X560000Y60468D02*
X561016Y61484D01*
X562032D01*
X561016Y62500D01*
X562032Y63516D01*
X561016D01*
X560000Y64532D01*
X558984Y63516D01*
X557968D01*
X558984Y62500D01*
X557968Y61484D01*
X558984D01*
X560000Y60468D01*
X582500Y37968D02*
X583516Y38984D01*
X584532D01*
X583516Y40000D01*
X584532Y41016D01*
X583516D01*
X582500Y42032D01*
X581484Y41016D01*
X580468D01*
X581484Y40000D01*
X580468Y38984D01*
X581484D01*
X582500Y37968D01*
X560000Y15468D02*
X561016Y16484D01*
X562032D01*
X561016Y17500D01*
X562032Y18516D01*
X561016D01*
X560000Y19532D01*
X558984Y18516D01*
X557968D01*
X558984Y17500D01*
X557968Y16484D01*
X558984D01*
X560000Y15468D01*
X537500Y37968D02*
X538516Y38984D01*
X539532D01*
X538516Y40000D01*
X539532Y41016D01*
X538516D01*
X537500Y42032D01*
X536484Y41016D01*
X535468D01*
X536484Y40000D01*
X535468Y38984D01*
X536484D01*
X537500Y37968D01*
X576000Y21968D02*
X577016Y22984D01*
X578032D01*
X577016Y24000D01*
X578032Y25016D01*
X577016D01*
X576000Y26032D01*
X574984Y25016D01*
X573968D01*
X574984Y24000D01*
X573968Y22984D01*
X574984D01*
X576000Y21968D01*
X544000Y53968D02*
X545016Y54984D01*
X546032D01*
X545016Y56000D01*
X546032Y57016D01*
X545016D01*
X544000Y58032D01*
X542984Y57016D01*
X541968D01*
X542984Y56000D01*
X541968Y54984D01*
X542984D01*
X544000Y53968D01*
Y21968D02*
X545016Y22984D01*
X546032D01*
X545016Y24000D01*
X546032Y25016D01*
X545016D01*
X544000Y26032D01*
X542984Y25016D01*
X541968D01*
X542984Y24000D01*
X541968Y22984D01*
X542984D01*
X544000Y21968D01*
X576000Y53968D02*
X577016Y54984D01*
X578032D01*
X577016Y56000D01*
X578032Y57016D01*
X577016D01*
X576000Y58032D01*
X574984Y57016D01*
X573968D01*
X574984Y56000D01*
X573968Y54984D01*
X574984D01*
X576000Y53968D01*
Y323968D02*
X577016Y324984D01*
X578032D01*
X577016Y326000D01*
X578032Y327016D01*
X577016D01*
X576000Y328032D01*
X574984Y327016D01*
X573968D01*
X574984Y326000D01*
X573968Y324984D01*
X574984D01*
X576000Y323968D01*
X544000Y291968D02*
X545016Y292984D01*
X546032D01*
X545016Y294000D01*
X546032Y295016D01*
X545016D01*
X544000Y296032D01*
X542984Y295016D01*
X541968D01*
X542984Y294000D01*
X541968Y292984D01*
X542984D01*
X544000Y291968D01*
Y323968D02*
X545016Y324984D01*
X546032D01*
X545016Y326000D01*
X546032Y327016D01*
X545016D01*
X544000Y328032D01*
X542984Y327016D01*
X541968D01*
X542984Y326000D01*
X541968Y324984D01*
X542984D01*
X544000Y323968D01*
X576000Y291968D02*
X577016Y292984D01*
X578032D01*
X577016Y294000D01*
X578032Y295016D01*
X577016D01*
X576000Y296032D01*
X574984Y295016D01*
X573968D01*
X574984Y294000D01*
X573968Y292984D01*
X574984D01*
X576000Y291968D01*
X537500Y307968D02*
X538516Y308984D01*
X539532D01*
X538516Y310000D01*
X539532Y311016D01*
X538516D01*
X537500Y312032D01*
X536484Y311016D01*
X535468D01*
X536484Y310000D01*
X535468Y308984D01*
X536484D01*
X537500Y307968D01*
X560000Y285468D02*
X561016Y286484D01*
X562032D01*
X561016Y287500D01*
X562032Y288516D01*
X561016D01*
X560000Y289532D01*
X558984Y288516D01*
X557968D01*
X558984Y287500D01*
X557968Y286484D01*
X558984D01*
X560000Y285468D01*
X582500Y307968D02*
X583516Y308984D01*
X584532D01*
X583516Y310000D01*
X584532Y311016D01*
X583516D01*
X582500Y312032D01*
X581484Y311016D01*
X580468D01*
X581484Y310000D01*
X580468Y308984D01*
X581484D01*
X582500Y307968D01*
X560000Y330468D02*
X561016Y331484D01*
X562032D01*
X561016Y332500D01*
X562032Y333516D01*
X561016D01*
X560000Y334532D01*
X558984Y333516D01*
X557968D01*
X558984Y332500D01*
X557968Y331484D01*
X558984D01*
X560000Y330468D01*
X313811Y142379D02*
X314827Y144411D01*
X313811Y146443D01*
X315843Y145427D01*
X317875Y146443D01*
X316859Y144411D01*
X317875Y142379D01*
X315843Y143395D01*
X313811Y142379D01*
X115102Y85129D02*
X116118Y87161D01*
X115102Y89193D01*
X117134Y88177D01*
X119166Y89193D01*
X118150Y87161D01*
X119166Y85129D01*
X117134Y86145D01*
X115102Y85129D01*
X134739Y83099D02*
X135755Y85131D01*
X134739Y87163D01*
X136771Y86147D01*
X138803Y87163D01*
X137787Y85131D01*
X138803Y83099D01*
X136771Y84115D01*
X134739Y83099D01*
X351126Y185149D02*
X352142Y187181D01*
X351126Y189212D01*
X353158Y188197D01*
X355190Y189212D01*
X354174Y187181D01*
X355190Y185149D01*
X353158Y186164D01*
X351126Y185149D01*
X142547Y129049D02*
X143563Y131081D01*
X142547Y133113D01*
X144579Y132097D01*
X146611Y133113D01*
X145595Y131081D01*
X146611Y129049D01*
X144579Y130065D01*
X142547Y129049D01*
X154930Y131380D02*
X155946Y133412D01*
X154930Y135444D01*
X156962Y134428D01*
X158994Y135444D01*
X157978Y133412D01*
X158994Y131380D01*
X156962Y132396D01*
X154930Y131380D01*
X84896Y90210D02*
X85912Y92241D01*
X84896Y94274D01*
X86928Y93258D01*
X88960Y94274D01*
X87944Y92241D01*
X88960Y90210D01*
X86928Y91226D01*
X84896Y90210D01*
X229762Y162871D02*
X230778Y164903D01*
X229762Y166935D01*
X231794Y165919D01*
X233826Y166935D01*
X232810Y164903D01*
X233826Y162871D01*
X231794Y163887D01*
X229762Y162871D01*
X119495Y269085D02*
X120511Y271117D01*
X119495Y273149D01*
X121527Y272133D01*
X123559Y273149D01*
X122543Y271117D01*
X123559Y269085D01*
X121527Y270101D01*
X119495Y269085D01*
X125700Y96550D02*
X126716Y98582D01*
X125700Y100614D01*
X127732Y99598D01*
X129764Y100614D01*
X128748Y98582D01*
X129764Y96550D01*
X127732Y97566D01*
X125700Y96550D01*
X115275Y127544D02*
X116291Y129576D01*
X115275Y131608D01*
X117307Y130592D01*
X119339Y131608D01*
X118323Y129576D01*
X119339Y127544D01*
X117307Y128560D01*
X115275Y127544D01*
X134466Y27086D02*
X135482Y29118D01*
X134466Y31150D01*
X136498Y30134D01*
X138530Y31150D01*
X137514Y29118D01*
X138530Y27086D01*
X136498Y28102D01*
X134466Y27086D01*
X154943Y37691D02*
X155959Y39723D01*
X154943Y41755D01*
X156975Y40739D01*
X159007Y41755D01*
X157991Y39723D01*
X159007Y37691D01*
X156975Y38707D01*
X154943Y37691D01*
X156756Y18749D02*
X157772Y20781D01*
X156756Y22813D01*
X158788Y21797D01*
X160820Y22813D01*
X159804Y20781D01*
X160820Y18749D01*
X158788Y19765D01*
X156756Y18749D01*
X106562Y18653D02*
X107578Y20685D01*
X106562Y22717D01*
X108594Y21701D01*
X110626Y22717D01*
X109610Y20685D01*
X110626Y18653D01*
X108594Y19669D01*
X106562Y18653D01*
X229291Y139637D02*
X230307Y141670D01*
X229291Y143701D01*
X231323Y142685D01*
X233355Y143701D01*
X232339Y141670D01*
X233355Y139637D01*
X231323Y140653D01*
X229291Y139637D01*
X4064Y99660D02*
X5080Y101692D01*
X4064Y103724D01*
X6096Y102708D01*
X8128Y103724D01*
X7112Y101692D01*
X8128Y99660D01*
X6096Y100676D01*
X4064Y99660D01*
Y165877D02*
X5080Y167908D01*
X4064Y169940D01*
X6096Y168925D01*
X8128Y169940D01*
X7112Y167908D01*
X8128Y165877D01*
X6096Y166893D01*
X4064Y165877D01*
Y131845D02*
X5080Y133877D01*
X4064Y135909D01*
X6096Y134893D01*
X8128Y135909D01*
X7112Y133877D01*
X8128Y131845D01*
X6096Y132861D01*
X4064Y131845D01*
Y199557D02*
X5080Y201589D01*
X4064Y203621D01*
X6096Y202605D01*
X8128Y203621D01*
X7112Y201589D01*
X8128Y199557D01*
X6096Y200573D01*
X4064Y199557D01*
Y236847D02*
X5080Y238879D01*
X4064Y240911D01*
X6096Y239895D01*
X8128Y240911D01*
X7112Y238879D01*
X8128Y236847D01*
X6096Y237863D01*
X4064Y236847D01*
X89825Y36234D02*
X90841Y38266D01*
X89825Y40298D01*
X91857Y39282D01*
X93889Y40298D01*
X92873Y38266D01*
X93889Y36234D01*
X91857Y37250D01*
X89825Y36234D01*
X210402Y96778D02*
X211418Y98810D01*
X210402Y100842D01*
X212434Y99826D01*
X214466Y100842D01*
X213450Y98810D01*
X214466Y96778D01*
X212434Y97794D01*
X210402Y96778D01*
X192578Y159997D02*
X193594Y162029D01*
X192578Y164061D01*
X194610Y163045D01*
X196642Y164061D01*
X195626Y162029D01*
X196642Y159997D01*
X194610Y161013D01*
X192578Y159997D01*
X182923Y143295D02*
X183939Y145327D01*
X182923Y147359D01*
X184955Y146343D01*
X186987Y147359D01*
X185971Y145327D01*
X186987Y143295D01*
X184955Y144311D01*
X182923Y143295D01*
X210847Y83598D02*
X211863Y85630D01*
X210847Y87662D01*
X212879Y86646D01*
X214911Y87662D01*
X213895Y85630D01*
X214911Y83598D01*
X212879Y84614D01*
X210847Y83598D01*
X168965Y93851D02*
X169981Y95883D01*
X168965Y97915D01*
X170997Y96899D01*
X173029Y97915D01*
X172013Y95883D01*
X173029Y93851D01*
X170997Y94867D01*
X168965Y93851D01*
X535245Y241476D02*
X536261Y243508D01*
X535245Y245541D01*
X537277Y244524D01*
X539309Y245541D01*
X538293Y243508D01*
X539309Y241476D01*
X537277Y242493D01*
X535245Y241476D01*
Y255305D02*
X536261Y257337D01*
X535245Y259369D01*
X537277Y258353D01*
X539309Y259369D01*
X538293Y257337D01*
X539309Y255305D01*
X537277Y256321D01*
X535245Y255305D01*
X156470Y141648D02*
X157486Y143680D01*
X156470Y145712D01*
X158502Y144696D01*
X160534Y145712D01*
X159518Y143680D01*
X160534Y141648D01*
X158502Y142664D01*
X156470Y141648D01*
X58754Y95696D02*
X59770Y97728D01*
X58754Y99760D01*
X60786Y98744D01*
X62818Y99760D01*
X61802Y97728D01*
X62818Y95696D01*
X60786Y96712D01*
X58754Y95696D01*
X84015Y26604D02*
X85031Y28636D01*
X84015Y30668D01*
X86047Y29652D01*
X88079Y30668D01*
X87063Y28636D01*
X88079Y26604D01*
X86047Y27620D01*
X84015Y26604D01*
X7865Y68199D02*
X8881Y70231D01*
X7865Y72263D01*
X9897Y71247D01*
X11929Y72263D01*
X10913Y70231D01*
X11929Y68199D01*
X9897Y69215D01*
X7865Y68199D01*
X175064Y227934D02*
X176080Y229966D01*
X175064Y231998D01*
X177096Y230982D01*
X179128Y231998D01*
X178112Y229966D01*
X179128Y227934D01*
X177096Y228950D01*
X175064Y227934D01*
X346725Y109551D02*
X347741Y111583D01*
X346725Y113615D01*
X348757Y112599D01*
X350789Y113615D01*
X349773Y111583D01*
X350789Y109551D01*
X348757Y110567D01*
X346725Y109551D01*
X345123Y237419D02*
X346139Y239451D01*
X345123Y241483D01*
X347155Y240467D01*
X349187Y241483D01*
X348171Y239451D01*
X349187Y237419D01*
X347155Y238435D01*
X345123Y237419D01*
X345964Y262819D02*
X346980Y264851D01*
X345964Y266883D01*
X347996Y265867D01*
X350028Y266883D01*
X349012Y264851D01*
X350028Y262819D01*
X347996Y263835D01*
X345964Y262819D01*
X520594Y278499D02*
X521610Y280531D01*
X520594Y282563D01*
X522626Y281547D01*
X524658Y282563D01*
X523642Y280531D01*
X524658Y278499D01*
X522626Y279515D01*
X520594Y278499D01*
Y261493D02*
X521610Y263525D01*
X520594Y265557D01*
X522626Y264541D01*
X524658Y265557D01*
X523642Y263525D01*
X524658Y261493D01*
X522626Y262509D01*
X520594Y261493D01*
Y244631D02*
X521610Y246663D01*
X520594Y248695D01*
X522626Y247679D01*
X524658Y248695D01*
X523642Y246663D01*
X524658Y244631D01*
X522626Y245647D01*
X520594Y244631D01*
X26613Y101204D02*
X27629Y103236D01*
X26613Y105268D01*
X28645Y104252D01*
X30677Y105268D01*
X29661Y103236D01*
X30677Y101204D01*
X28645Y102220D01*
X26613Y101204D01*
X193648Y61890D02*
X194664Y63922D01*
X193648Y65954D01*
X195680Y64938D01*
X197712Y65954D01*
X196696Y63922D01*
X197712Y61890D01*
X195680Y62906D01*
X193648Y61890D01*
X210784Y68683D02*
X211800Y70715D01*
X210784Y72747D01*
X212816Y71731D01*
X214848Y72747D01*
X213832Y70715D01*
X214848Y68683D01*
X212816Y69699D01*
X210784Y68683D01*
X172209Y119025D02*
X173225Y121057D01*
X172209Y123089D01*
X174241Y122073D01*
X176273Y123089D01*
X175257Y121057D01*
X176273Y119025D01*
X174241Y120041D01*
X172209Y119025D01*
X180159Y49222D02*
X181175Y51254D01*
X180159Y53286D01*
X182190Y52270D01*
X184223Y53286D01*
X183207Y51254D01*
X184223Y49222D01*
X182190Y50238D01*
X180159Y49222D01*
X166715Y60254D02*
X167731Y62286D01*
X166715Y64318D01*
X168747Y63302D01*
X170779Y64318D01*
X169763Y62286D01*
X170779Y60254D01*
X168747Y61270D01*
X166715Y60254D01*
X479003Y122133D02*
X480019Y124165D01*
X479003Y126197D01*
X481035Y125181D01*
X483067Y126197D01*
X482051Y124165D01*
X483067Y122133D01*
X481035Y123149D01*
X479003Y122133D01*
X479269Y147295D02*
X480285Y149327D01*
X479269Y151359D01*
X481301Y150343D01*
X483333Y151359D01*
X482317Y149327D01*
X483333Y147295D01*
X481301Y148311D01*
X479269Y147295D01*
X479269Y173409D02*
X480285Y175441D01*
X479269Y177473D01*
X481301Y176457D01*
X483333Y177473D01*
X482317Y175441D01*
X483333Y173409D01*
X481301Y174425D01*
X479269Y173409D01*
X187194Y54143D02*
X188210Y56175D01*
X187194Y58207D01*
X189226Y57191D01*
X191258Y58207D01*
X190242Y56175D01*
X191258Y54143D01*
X189226Y55159D01*
X187194Y54143D01*
X209639Y43822D02*
X210655Y45854D01*
X209639Y47885D01*
X211671Y46870D01*
X213703Y47885D01*
X212687Y45854D01*
X213703Y43822D01*
X211671Y44837D01*
X209639Y43822D01*
X347321Y83221D02*
X348337Y85253D01*
X347321Y87285D01*
X349353Y86269D01*
X351385Y87285D01*
X350369Y85253D01*
X351385Y83221D01*
X349353Y84237D01*
X347321Y83221D01*
X300574Y131626D02*
X301590Y133658D01*
X300574Y135690D01*
X302606Y134674D01*
X304638Y135690D01*
X303622Y133658D01*
X304638Y131626D01*
X302606Y132642D01*
X300574Y131626D01*
X326274Y110419D02*
X327290Y112451D01*
X326274Y114483D01*
X328306Y113467D01*
X330338Y114483D01*
X329322Y112451D01*
X330338Y110419D01*
X328306Y111435D01*
X326274Y110419D01*
X338741Y132326D02*
X339757Y134358D01*
X338741Y136390D01*
X340774Y135374D01*
X342805Y136390D01*
X341790Y134358D01*
X342805Y132326D01*
X340774Y133342D01*
X338741Y132326D01*
X309180Y58092D02*
X310196Y60124D01*
X309180Y62155D01*
X311212Y61139D01*
X313244Y62155D01*
X312228Y60124D01*
X313244Y58092D01*
X311212Y59107D01*
X309180Y58092D01*
X322442Y70238D02*
X323458Y72270D01*
X322442Y74303D01*
X324474Y73286D01*
X326506Y74303D01*
X325490Y72270D01*
X326506Y70238D01*
X324474Y71255D01*
X322442Y70238D01*
X297616Y83549D02*
X298632Y85581D01*
X297616Y87613D01*
X299648Y86597D01*
X301680Y87613D01*
X300664Y85581D01*
X301680Y83549D01*
X299648Y84565D01*
X297616Y83549D01*
X237056Y19353D02*
X238072Y21385D01*
X237056Y23417D01*
X239088Y22401D01*
X241120Y23417D01*
X240104Y21385D01*
X241120Y19353D01*
X239088Y20369D01*
X237056Y19353D01*
X300072Y4239D02*
X301088Y6271D01*
X300072Y8303D01*
X302104Y7287D01*
X304136Y8303D01*
X303120Y6271D01*
X304136Y4239D01*
X302104Y5256D01*
X300072Y4239D01*
X321780Y58668D02*
X322796Y60700D01*
X321780Y62732D01*
X323812Y61716D01*
X325844Y62732D01*
X324828Y60700D01*
X325844Y58668D01*
X323812Y59684D01*
X321780Y58668D01*
X552645Y100540D02*
X553661Y102572D01*
X552645Y104604D01*
X554677Y103588D01*
X556709Y104604D01*
X555693Y102572D01*
X556709Y100540D01*
X554677Y101556D01*
X552645Y100540D01*
X486032Y50518D02*
X487048Y52550D01*
X486032Y54582D01*
X488064Y53566D01*
X490096Y54582D01*
X489080Y52550D01*
X490096Y50518D01*
X488064Y51534D01*
X486032Y50518D01*
X518598Y73166D02*
X519614Y75198D01*
X518598Y77230D01*
X520630Y76214D01*
X522662Y77230D01*
X521646Y75198D01*
X522662Y73166D01*
X520630Y74182D01*
X518598Y73166D01*
X580356Y100109D02*
X581372Y102141D01*
X580356Y104173D01*
X582388Y103157D01*
X584421Y104173D01*
X583405Y102141D01*
X584421Y100109D01*
X582388Y101125D01*
X580356Y100109D01*
X289312Y76708D02*
X290328Y78740D01*
X289312Y80772D01*
X291344Y79756D01*
X293376Y80772D01*
X292360Y78740D01*
X293376Y76708D01*
X291344Y77724D01*
X289312Y76708D01*
X265417Y182218D02*
X266433Y184250D01*
X265417Y186282D01*
X267449Y185266D01*
X269481Y186282D01*
X268465Y184250D01*
X269481Y182218D01*
X267449Y183234D01*
X265417Y182218D01*
X306396Y139341D02*
X307412Y141373D01*
X306396Y143405D01*
X308428Y142389D01*
X310460Y143405D01*
X309444Y141373D01*
X310460Y139341D01*
X308428Y140357D01*
X306396Y139341D01*
X329863Y122133D02*
X330879Y124165D01*
X329863Y126197D01*
X331895Y125181D01*
X333927Y126197D01*
X332911Y124165D01*
X333927Y122133D01*
X331895Y123149D01*
X329863Y122133D01*
X238800Y66936D02*
X239816Y68968D01*
X238800Y71000D01*
X240832Y69984D01*
X242864Y71000D01*
X241848Y68968D01*
X242864Y66936D01*
X240832Y67952D01*
X238800Y66936D01*
X349056Y157869D02*
X350072Y159901D01*
X349056Y161933D01*
X351088Y160917D01*
X353120Y161933D01*
X352104Y159901D01*
X353120Y157869D01*
X351088Y158885D01*
X349056Y157869D01*
X137821Y161622D02*
X138837Y163654D01*
X137821Y165686D01*
X139853Y164670D01*
X141885Y165686D01*
X140869Y163654D01*
X141885Y161622D01*
X139853Y162638D01*
X137821Y161622D01*
X180199Y114656D02*
X181215Y116688D01*
X180199Y118720D01*
X182231Y117704D01*
X184263Y118720D01*
X183247Y116688D01*
X184263Y114656D01*
X182231Y115672D01*
X180199Y114656D01*
X346086Y210136D02*
X347102Y212168D01*
X346086Y214200D01*
X348118Y213184D01*
X350150Y214200D01*
X349134Y212168D01*
X350150Y210136D01*
X348118Y211152D01*
X346086Y210136D01*
X513369Y134981D02*
X514385Y137013D01*
X513369Y139045D01*
X515401Y138029D01*
X517433Y139045D01*
X516417Y137013D01*
X517433Y134981D01*
X515401Y135997D01*
X513369Y134981D01*
X59750Y156879D02*
X60766Y158911D01*
X59750Y160943D01*
X61782Y159927D01*
X63814Y160943D01*
X62798Y158911D01*
X63814Y156879D01*
X61782Y157895D01*
X59750Y156879D01*
X226310Y58057D02*
X227326Y60090D01*
X226310Y62122D01*
X228342Y61105D01*
X230374Y62122D01*
X229358Y60090D01*
X230374Y58057D01*
X228342Y59074D01*
X226310Y58057D01*
X242322Y305393D02*
X243338Y307425D01*
X242322Y309457D01*
X244354Y308441D01*
X246386Y309457D01*
X245370Y307425D01*
X246386Y305393D01*
X244354Y306409D01*
X242322Y305393D01*
X250160Y96242D02*
X251176Y98274D01*
X250160Y100306D01*
X252192Y99290D01*
X254224Y100306D01*
X253208Y98274D01*
X254224Y96242D01*
X252192Y97258D01*
X250160Y96242D01*
X478813Y71671D02*
X479829Y73703D01*
X478813Y75735D01*
X480845Y74719D01*
X482877Y75735D01*
X481861Y73703D01*
X482877Y71671D01*
X480845Y72687D01*
X478813Y71671D01*
X494957Y174181D02*
X495973Y176213D01*
X494957Y178245D01*
X496988Y177229D01*
X499021Y178245D01*
X498004Y176213D01*
X499021Y174181D01*
X496988Y175197D01*
X494957Y174181D01*
X330744Y47354D02*
X331760Y49386D01*
X330744Y51418D01*
X332776Y50402D01*
X334808Y51418D01*
X333792Y49386D01*
X334808Y47354D01*
X332776Y48370D01*
X330744Y47354D01*
X535245Y98580D02*
X536261Y100612D01*
X535245Y102644D01*
X537277Y101628D01*
X539309Y102644D01*
X538293Y100612D01*
X539309Y98580D01*
X537277Y99596D01*
X535245Y98580D01*
X484715Y287565D02*
X485731Y289597D01*
X484715Y291629D01*
X486747Y290613D01*
X488779Y291629D01*
X487763Y289597D01*
X488779Y287565D01*
X486747Y288581D01*
X484715Y287565D01*
X346990Y303081D02*
X348006Y305113D01*
X346990Y307145D01*
X349022Y306129D01*
X351054Y307145D01*
X350038Y305113D01*
X351054Y303081D01*
X349022Y304097D01*
X346990Y303081D01*
X292560Y95435D02*
X293576Y97467D01*
X292560Y99499D01*
X294592Y98483D01*
X296624Y99499D01*
X295608Y97467D01*
X296624Y95435D01*
X294592Y96451D01*
X292560Y95435D01*
X291872Y112892D02*
X292888Y114924D01*
X291872Y116956D01*
X293904Y115940D01*
X295936Y116956D01*
X294920Y114924D01*
X295936Y112892D01*
X293904Y113908D01*
X291872Y112892D01*
X220443Y141688D02*
X221459Y143720D01*
X220443Y145752D01*
X222475Y144736D01*
X224507Y145752D01*
X223491Y143720D01*
X224507Y141688D01*
X222475Y142704D01*
X220443Y141688D01*
X413381Y49706D02*
X414397Y51738D01*
X413381Y53770D01*
X415413Y52754D01*
X417445Y53770D01*
X416429Y51738D01*
X417445Y49706D01*
X415413Y50722D01*
X413381Y49706D01*
X466752Y5335D02*
X467768Y7367D01*
X466752Y9399D01*
X468784Y8383D01*
X470816Y9399D01*
X469800Y7367D01*
X470816Y5335D01*
X468784Y6351D01*
X466752Y5335D01*
X237056Y4236D02*
X238072Y6268D01*
X237056Y8300D01*
X239088Y7284D01*
X241120Y8300D01*
X240104Y6268D01*
X241120Y4236D01*
X239088Y5252D01*
X237056Y4236D01*
X220065Y155661D02*
X221081Y157693D01*
X220065Y159725D01*
X222097Y158709D01*
X224129Y159725D01*
X223113Y157693D01*
X224129Y155661D01*
X222097Y156677D01*
X220065Y155661D01*
X207182Y148450D02*
X208198Y150483D01*
X207182Y152514D01*
X209214Y151498D01*
X211246Y152514D01*
X210230Y150483D01*
X211246Y148450D01*
X209214Y149466D01*
X207182Y148450D01*
X201687Y169010D02*
X202703Y171042D01*
X201687Y173074D01*
X203719Y172058D01*
X205751Y173074D01*
X204735Y171042D01*
X205751Y169010D01*
X203719Y170026D01*
X201687Y169010D01*
X315271Y164416D02*
X316287Y166448D01*
X315271Y168480D01*
X317303Y167464D01*
X319335Y168480D01*
X318319Y166448D01*
X319335Y164416D01*
X317303Y165432D01*
X315271Y164416D01*
X202398Y255931D02*
X203414Y257963D01*
X202398Y259995D01*
X204430Y258979D01*
X206462Y259995D01*
X205446Y257963D01*
X206462Y255931D01*
X204430Y256947D01*
X202398Y255931D01*
X285199Y290508D02*
X286215Y292540D01*
X285199Y294572D01*
X287231Y293556D01*
X289263Y294572D01*
X288247Y292540D01*
X289263Y290508D01*
X287231Y291524D01*
X285199Y290508D01*
X479231Y98080D02*
X480247Y100112D01*
X479231Y102143D01*
X481263Y101128D01*
X483295Y102143D01*
X482279Y100112D01*
X483295Y98080D01*
X481263Y99095D01*
X479231Y98080D01*
X514426Y313338D02*
X515442Y315370D01*
X514426Y317402D01*
X516458Y316386D01*
X518490Y317402D01*
X517474Y315370D01*
X518490Y313338D01*
X516458Y314354D01*
X514426Y313338D01*
X513492Y160291D02*
X514508Y162323D01*
X513492Y164355D01*
X515524Y163339D01*
X517556Y164355D01*
X516540Y162323D01*
X517556Y160291D01*
X515524Y161307D01*
X513492Y160291D01*
X318672Y213888D02*
X319688Y215920D01*
X318672Y217952D01*
X320704Y216936D01*
X322736Y217952D01*
X321720Y215920D01*
X322736Y213888D01*
X320704Y214904D01*
X318672Y213888D01*
X495702Y98855D02*
X496718Y100886D01*
X495702Y102919D01*
X497734Y101903D01*
X499766Y102919D01*
X498750Y100886D01*
X499766Y98855D01*
X497734Y99871D01*
X495702Y98855D01*
X513278Y122239D02*
X514294Y124271D01*
X513278Y126303D01*
X515310Y125287D01*
X517342Y126303D01*
X516326Y124271D01*
X517342Y122239D01*
X515310Y123255D01*
X513278Y122239D01*
X415210Y302319D02*
X416226Y304351D01*
X415210Y306383D01*
X417242Y305367D01*
X419274Y306383D01*
X418258Y304351D01*
X419274Y302319D01*
X417242Y303335D01*
X415210Y302319D01*
X493181Y279943D02*
X494198Y281975D01*
X493181Y284007D01*
X495214Y282991D01*
X497245Y284007D01*
X496230Y281975D01*
X497245Y279943D01*
X495214Y280959D01*
X493181Y279943D01*
X458381Y299538D02*
X459397Y301570D01*
X458381Y303602D01*
X460413Y302586D01*
X462445Y303602D01*
X461429Y301570D01*
X462445Y299538D01*
X460413Y300554D01*
X458381Y299538D01*
X80076Y121301D02*
X81091Y123333D01*
X80076Y125365D01*
X82107Y124349D01*
X84139Y125365D01*
X83124Y123333D01*
X84139Y121301D01*
X82107Y122317D01*
X80076Y121301D01*
X452097Y339072D02*
X453113Y341104D01*
X452097Y343136D01*
X454129Y342120D01*
X456161Y343136D01*
X455145Y341104D01*
X456161Y339072D01*
X454129Y340088D01*
X452097Y339072D01*
X53857Y230662D02*
X54872Y232694D01*
X53857Y234726D01*
X55889Y233710D01*
X57920Y234726D01*
X56905Y232694D01*
X57920Y230662D01*
X55889Y231678D01*
X53857Y230662D01*
X84896Y249968D02*
X85912Y252000D01*
X84896Y254032D01*
X86928Y253016D01*
X88960Y254032D01*
X87944Y252000D01*
X88960Y249968D01*
X86928Y250984D01*
X84896Y249968D01*
X83573Y225116D02*
X84589Y227148D01*
X83573Y229179D01*
X85605Y228164D01*
X87637Y229179D01*
X86621Y227148D01*
X87637Y225116D01*
X85605Y226131D01*
X83573Y225116D01*
X183066Y74290D02*
X184082Y76322D01*
X183066Y78354D01*
X185098Y77338D01*
X187130Y78354D01*
X186114Y76322D01*
X187130Y74290D01*
X185098Y75306D01*
X183066Y74290D01*
X144281Y56983D02*
X145297Y59015D01*
X144281Y61047D01*
X146313Y60031D01*
X148345Y61047D01*
X147329Y59015D01*
X148345Y56983D01*
X146313Y57999D01*
X144281Y56983D01*
X162002Y72143D02*
X163018Y74175D01*
X162002Y76207D01*
X164034Y75191D01*
X166066Y76207D01*
X165050Y74175D01*
X166066Y72143D01*
X164034Y73159D01*
X162002Y72143D01*
X180579Y4320D02*
X181595Y6352D01*
X180579Y8384D01*
X182611Y7368D01*
X184643Y8384D01*
X183627Y6352D01*
X184643Y4320D01*
X182611Y5336D01*
X180579Y4320D01*
X79946Y6410D02*
X80962Y8442D01*
X79946Y10474D01*
X81978Y9458D01*
X84010Y10474D01*
X82994Y8442D01*
X84010Y6410D01*
X81978Y7426D01*
X79946Y6410D01*
X163718Y44170D02*
X164734Y46202D01*
X163718Y48234D01*
X165750Y47218D01*
X167782Y48234D01*
X166766Y46202D01*
X167782Y44170D01*
X165750Y45186D01*
X163718Y44170D01*
X194795Y30146D02*
X195811Y32178D01*
X194795Y34210D01*
X196827Y33194D01*
X198859Y34210D01*
X197843Y32178D01*
X198859Y30146D01*
X196827Y31162D01*
X194795Y30146D01*
X194777Y43822D02*
X195793Y45854D01*
X194777Y47885D01*
X196809Y46870D01*
X198841Y47885D01*
X197825Y45854D01*
X198841Y43822D01*
X196809Y44837D01*
X194777Y43822D01*
X94478Y15442D02*
X95494Y17474D01*
X94478Y19506D01*
X96510Y18490D01*
X98542Y19506D01*
X97526Y17474D01*
X98542Y15442D01*
X96510Y16458D01*
X94478Y15442D01*
X558646Y74190D02*
X559662Y76222D01*
X558646Y78254D01*
X560678Y77238D01*
X562710Y78254D01*
X561694Y76222D01*
X562710Y74190D01*
X560678Y75206D01*
X558646Y74190D01*
X516984Y98700D02*
X518000Y100732D01*
X516984Y102764D01*
X519016Y101748D01*
X521048Y102764D01*
X520032Y100732D01*
X521048Y98700D01*
X519016Y99716D01*
X516984Y98700D01*
X150735Y195773D02*
X151751Y197805D01*
X150735Y199837D01*
X152767Y198821D01*
X154799Y199837D01*
X153783Y197805D01*
X154799Y195773D01*
X152767Y196789D01*
X150735Y195773D01*
X141352Y185586D02*
X142368Y187618D01*
X141352Y189650D01*
X143384Y188634D01*
X145416Y189650D01*
X144400Y187618D01*
X145416Y185586D01*
X143384Y186602D01*
X141352Y185586D01*
X130978Y174131D02*
X131994Y176163D01*
X130978Y178195D01*
X133010Y177179D01*
X135042Y178195D01*
X134026Y176163D01*
X135042Y174131D01*
X133010Y175147D01*
X130978Y174131D01*
X145250Y150622D02*
X146266Y152654D01*
X145250Y154685D01*
X147282Y153670D01*
X149314Y154685D01*
X148298Y152654D01*
X149314Y150622D01*
X147282Y151637D01*
X145250Y150622D01*
X109724Y174017D02*
X110740Y176049D01*
X109724Y178081D01*
X111756Y177065D01*
X113788Y178081D01*
X112772Y176049D01*
X113788Y174017D01*
X111756Y175033D01*
X109724Y174017D01*
X110520Y148318D02*
X111536Y150350D01*
X110520Y152382D01*
X112552Y151366D01*
X114584Y152382D01*
X113568Y150350D01*
X114584Y148318D01*
X112552Y149334D01*
X110520Y148318D01*
X39652Y141648D02*
X40668Y143680D01*
X39652Y145712D01*
X41684Y144696D01*
X43716Y145712D01*
X42700Y143680D01*
X43716Y141648D01*
X41684Y142664D01*
X39652Y141648D01*
X232080Y205776D02*
X233097Y207808D01*
X232080Y209840D01*
X234112Y208824D01*
X236145Y209840D01*
X235128Y207808D01*
X236145Y205776D01*
X234112Y206792D01*
X232080Y205776D01*
X249121Y163891D02*
X250137Y165923D01*
X249121Y167955D01*
X251152Y166939D01*
X253185Y167955D01*
X252169Y165923D01*
X253185Y163891D01*
X251152Y164907D01*
X249121Y163891D01*
X238896Y234277D02*
X239912Y236309D01*
X238896Y238341D01*
X240928Y237325D01*
X242960Y238341D01*
X241944Y236309D01*
X242960Y234277D01*
X240928Y235293D01*
X238896Y234277D01*
X265644Y200347D02*
X266660Y202379D01*
X265644Y204411D01*
X267676Y203395D01*
X269708Y204411D01*
X268692Y202379D01*
X269708Y200347D01*
X267676Y201363D01*
X265644Y200347D01*
X281325Y239097D02*
X282341Y241129D01*
X281325Y243161D01*
X283357Y242145D01*
X285389Y243161D01*
X284373Y241129D01*
X285389Y239097D01*
X283357Y240113D01*
X281325Y239097D01*
X333883Y279209D02*
X334899Y281241D01*
X333883Y283273D01*
X335915Y282257D01*
X337947Y283273D01*
X336931Y281241D01*
X337947Y279209D01*
X335915Y280225D01*
X333883Y279209D01*
X315538Y259807D02*
X316554Y261840D01*
X315538Y263871D01*
X317570Y262855D01*
X319602Y263871D01*
X318586Y261840D01*
X319602Y259807D01*
X317570Y260823D01*
X315538Y259807D01*
X172883Y289875D02*
X173899Y291907D01*
X172883Y293939D01*
X174915Y292923D01*
X176947Y293939D01*
X175931Y291907D01*
X176947Y289875D01*
X174915Y290891D01*
X172883Y289875D01*
X236182Y319549D02*
X237198Y321581D01*
X236182Y323613D01*
X238214Y322597D01*
X240246Y323613D01*
X239230Y321581D01*
X240246Y319549D01*
X238214Y320565D01*
X236182Y319549D01*
X255377Y339698D02*
X256393Y341730D01*
X255377Y343763D01*
X257409Y342747D01*
X259441Y343763D01*
X258425Y341730D01*
X259441Y339698D01*
X257409Y340714D01*
X255377Y339698D01*
X285431D02*
X286447Y341730D01*
X285431Y343763D01*
X287463Y342747D01*
X289495Y343763D01*
X288479Y341730D01*
X289495Y339698D01*
X287463Y340714D01*
X285431Y339698D01*
X315737Y339672D02*
X316753Y341704D01*
X315737Y343736D01*
X317769Y342720D01*
X319801Y343736D01*
X318785Y341704D01*
X319801Y339672D01*
X317769Y340688D01*
X315737Y339672D01*
X347567Y339698D02*
X348583Y341730D01*
X347567Y343763D01*
X349599Y342747D01*
X351631Y343763D01*
X350615Y341730D01*
X351631Y339698D01*
X349599Y340714D01*
X347567Y339698D01*
X378033Y339725D02*
X379049Y341757D01*
X378033Y343789D01*
X380065Y342773D01*
X382097Y343789D01*
X381081Y341757D01*
X382097Y339725D01*
X380065Y340741D01*
X378033Y339725D01*
X410224Y339887D02*
X411240Y341919D01*
X410224Y343951D01*
X412256Y342935D01*
X414288Y343951D01*
X413272Y341919D01*
X414288Y339887D01*
X412256Y340903D01*
X410224Y339887D01*
X494219Y338909D02*
X495235Y340941D01*
X494219Y342973D01*
X496251Y341957D01*
X498283Y342973D01*
X497267Y340941D01*
X498283Y338909D01*
X496251Y339925D01*
X494219Y338909D01*
X584430Y245139D02*
X585446Y247171D01*
X584430Y249203D01*
X586462Y248187D01*
X588494Y249203D01*
X587478Y247171D01*
X588494Y245139D01*
X586462Y246155D01*
X584430Y245139D01*
X584596Y268696D02*
X585612Y270728D01*
X584596Y272760D01*
X586628Y271744D01*
X588661Y272760D01*
X587645Y270728D01*
X588661Y268696D01*
X586628Y269712D01*
X584596Y268696D01*
X483711Y260635D02*
X484727Y262667D01*
X483711Y264699D01*
X485743Y263683D01*
X487775Y264699D01*
X486759Y262667D01*
X487775Y260635D01*
X485743Y261651D01*
X483711Y260635D01*
X580245Y72903D02*
X581261Y74935D01*
X580245Y76968D01*
X582277Y75951D01*
X584309Y76968D01*
X583293Y74935D01*
X584309Y72903D01*
X582277Y73920D01*
X580245Y72903D01*
X449987Y37934D02*
X451003Y39966D01*
X449987Y41998D01*
X452019Y40982D01*
X454051Y41998D01*
X453035Y39966D01*
X454051Y37934D01*
X452019Y38950D01*
X449987Y37934D01*
X505566Y5556D02*
X506582Y7588D01*
X505566Y9620D01*
X507598Y8604D01*
X509630Y9620D01*
X508614Y7588D01*
X509630Y5556D01*
X507598Y6572D01*
X505566Y5556D01*
X421277Y4281D02*
X422293Y6313D01*
X421277Y8346D01*
X423309Y7329D01*
X425341Y8346D01*
X424325Y6313D01*
X425341Y4281D01*
X423309Y5297D01*
X421277Y4281D01*
X361611Y4276D02*
X362627Y6308D01*
X361611Y8340D01*
X363643Y7324D01*
X365675Y8340D01*
X364659Y6308D01*
X365675Y4276D01*
X363643Y5292D01*
X361611Y4276D01*
X195836Y208115D02*
X196852Y210147D01*
X195836Y212179D01*
X197868Y211163D01*
X199900Y212179D01*
X198884Y210147D01*
X199900Y208115D01*
X197868Y209131D01*
X195836Y208115D01*
X188165Y190595D02*
X189181Y192627D01*
X188165Y194659D01*
X190198Y193643D01*
X192229Y194659D01*
X191213Y192627D01*
X192229Y190595D01*
X190198Y191611D01*
X188165Y190595D01*
X109903Y199927D02*
X110919Y201959D01*
X109903Y203991D01*
X111935Y202975D01*
X113967Y203991D01*
X112951Y201959D01*
X113967Y199927D01*
X111935Y200943D01*
X109903Y199927D01*
X109416Y224573D02*
X110432Y226605D01*
X109416Y228637D01*
X111448Y227621D01*
X113480Y228637D01*
X112464Y226605D01*
X113480Y224573D01*
X111448Y225589D01*
X109416Y224573D01*
X136313Y234032D02*
X137329Y236064D01*
X136313Y238096D01*
X138344Y237080D01*
X140377Y238096D01*
X139361Y236064D01*
X140377Y234032D01*
X138344Y235048D01*
X136313Y234032D01*
X118914Y250482D02*
X119930Y252514D01*
X118914Y254546D01*
X120946Y253530D01*
X122978Y254546D01*
X121962Y252514D01*
X122978Y250482D01*
X120946Y251498D01*
X118914Y250482D01*
X150922Y219184D02*
X151938Y221216D01*
X150922Y223248D01*
X152954Y222232D01*
X154986Y223248D01*
X153970Y221216D01*
X154986Y219184D01*
X152954Y220200D01*
X150922Y219184D01*
X219099Y225116D02*
X220115Y227148D01*
X219099Y229179D01*
X221131Y228164D01*
X223163Y229179D01*
X222147Y227148D01*
X223163Y225116D01*
X221131Y226131D01*
X219099Y225116D01*
X217932Y330442D02*
X218948Y332474D01*
X217932Y334506D01*
X219964Y333490D01*
X221996Y334506D01*
X220980Y332474D01*
X221996Y330442D01*
X219964Y331458D01*
X217932Y330442D01*
X221125Y302319D02*
X222141Y304351D01*
X221125Y306383D01*
X223157Y305367D01*
X225189Y306383D01*
X224173Y304351D01*
X225189Y302319D01*
X223157Y303335D01*
X221125Y302319D01*
X166752Y330126D02*
X167768Y332159D01*
X166752Y334190D01*
X168785Y333175D01*
X170816Y334190D01*
X169800Y332159D01*
X170816Y330126D01*
X168785Y331143D01*
X166752Y330126D01*
X128059Y329865D02*
X129075Y331897D01*
X128059Y333929D01*
X130091Y332913D01*
X132123Y333929D01*
X131107Y331897D01*
X132123Y329865D01*
X130091Y330881D01*
X128059Y329865D01*
X87105Y318942D02*
X88121Y320974D01*
X87105Y323006D01*
X89137Y321990D01*
X91169Y323006D01*
X90153Y320974D01*
X91169Y318942D01*
X89137Y319958D01*
X87105Y318942D01*
X37857Y254020D02*
X38872Y256052D01*
X37857Y258084D01*
X39889Y257068D01*
X41920Y258084D01*
X40904Y256052D01*
X41920Y254020D01*
X39889Y255036D01*
X37857Y254020D01*
X13096Y263744D02*
X14112Y265776D01*
X13096Y267808D01*
X15129Y266792D01*
X17161Y267808D01*
X16144Y265776D01*
X17161Y263744D01*
X15129Y264760D01*
X13096Y263744D01*
X34840Y89495D02*
X35856Y91527D01*
X34840Y93559D01*
X36872Y92543D01*
X38904Y93559D01*
X37888Y91527D01*
X38904Y89495D01*
X36872Y90511D01*
X34840Y89495D01*
X30807Y164738D02*
X31823Y166770D01*
X30807Y168802D01*
X32838Y167786D01*
X34871Y168802D01*
X33854Y166770D01*
X34871Y164738D01*
X32838Y165754D01*
X30807Y164738D01*
X30958Y217328D02*
X31974Y219360D01*
X30958Y221392D01*
X32990Y220376D01*
X35022Y221392D01*
X34006Y219360D01*
X35022Y217328D01*
X32990Y218344D01*
X30958Y217328D01*
X40458Y211370D02*
X41474Y213402D01*
X40458Y215434D01*
X42490Y214418D01*
X44522Y215434D01*
X43506Y213402D01*
X44522Y211370D01*
X42490Y212386D01*
X40458Y211370D01*
X40480Y201288D02*
X41496Y203320D01*
X40480Y205352D01*
X42512Y204336D01*
X44544Y205352D01*
X43528Y203320D01*
X44544Y201288D01*
X42512Y202304D01*
X40480Y201288D01*
X40458Y190942D02*
X41474Y192974D01*
X40458Y195006D01*
X42490Y193990D01*
X44522Y195006D01*
X43506Y192974D01*
X44522Y190942D01*
X42490Y191958D01*
X40458Y190942D01*
Y181370D02*
X41474Y183402D01*
X40458Y185434D01*
X42490Y184418D01*
X44522Y185434D01*
X43506Y183402D01*
X44522Y181370D01*
X42490Y182386D01*
X40458Y181370D01*
X40569Y171912D02*
X41585Y173944D01*
X40569Y175976D01*
X42601Y174960D01*
X44633Y175976D01*
X43617Y173944D01*
X44633Y171912D01*
X42601Y172928D01*
X40569Y171912D01*
X116390Y112966D02*
X117406Y114999D01*
X116390Y117030D01*
X118422Y116014D01*
X120454Y117030D01*
X119438Y114999D01*
X120454Y112966D01*
X118422Y113982D01*
X116390Y112966D01*
X220902Y289902D02*
X221918Y291934D01*
X220902Y293966D01*
X222934Y292950D01*
X224966Y293966D01*
X223950Y291934D01*
X224966Y289902D01*
X222934Y290918D01*
X220902Y289902D01*
X221013Y273942D02*
X222029Y275974D01*
X221013Y278006D01*
X223045Y276990D01*
X225077Y278006D01*
X224061Y275974D01*
X225077Y273942D01*
X223045Y274958D01*
X221013Y273942D01*
X221125Y257942D02*
X222141Y259974D01*
X221125Y262006D01*
X223157Y260990D01*
X225189Y262006D01*
X224173Y259974D01*
X225189Y257942D01*
X223157Y258958D01*
X221125Y257942D01*
X123276Y47183D02*
X124292Y49215D01*
X123276Y51247D01*
X125308Y50231D01*
X127340Y51247D01*
X126324Y49215D01*
X127340Y47183D01*
X125308Y48199D01*
X123276Y47183D01*
X505536Y32357D02*
X506552Y34389D01*
X505536Y36421D01*
X507568Y35405D01*
X509600Y36421D01*
X508584Y34389D01*
X509600Y32357D01*
X507568Y33373D01*
X505536Y32357D01*
X375677Y40244D02*
X376693Y42276D01*
X375677Y44308D01*
X377709Y43292D01*
X379741Y44308D01*
X378725Y42276D01*
X379741Y40244D01*
X377709Y41260D01*
X375677Y40244D01*
X590804Y129032D02*
X591820Y131064D01*
X590804Y133096D01*
X592836Y132080D01*
X594868Y133096D01*
X593852Y131064D01*
X594868Y129032D01*
X592836Y130048D01*
X590804Y129032D01*
Y141224D02*
X591820Y143256D01*
X590804Y145288D01*
X592836Y144272D01*
X594868Y145288D01*
X593852Y143256D01*
X594868Y141224D01*
X592836Y142240D01*
X590804Y141224D01*
Y205232D02*
X591820Y207264D01*
X590804Y209296D01*
X592836Y208280D01*
X594868Y209296D01*
X593852Y207264D01*
X594868Y205232D01*
X592836Y206248D01*
X590804Y205232D01*
Y217424D02*
X591820Y219456D01*
X590804Y221488D01*
X592836Y220472D01*
X594868Y221488D01*
X593852Y219456D01*
X594868Y217424D01*
X592836Y218440D01*
X590804Y217424D01*
Y229616D02*
X591820Y231648D01*
X590804Y233680D01*
X592836Y232664D01*
X594868Y233680D01*
X593852Y231648D01*
X594868Y229616D01*
X592836Y230632D01*
X590804Y229616D01*
D75*
X42032Y40000D02*
G03*
X42032Y40000I-2032J0D01*
G01*
Y310000D02*
G03*
X42032Y310000I-2032J0D01*
G01*
X562032Y40000D02*
G03*
X562032Y40000I-2032J0D01*
G01*
Y310000D02*
G03*
X562032Y310000I-2032J0D01*
G01*
M02*
