G04*
G04 #@! TF.GenerationSoftware,Altium Limited,Altium Designer,20.1.8 (145)*
G04*
G04 Layer_Color=8388736*
%FSLAX44Y44*%
%MOMM*%
G71*
G04*
G04 #@! TF.SameCoordinates,C9CF11F6-8CB7-4B33-927B-0983859D9422*
G04*
G04*
G04 #@! TF.FilePolarity,Negative*
G04*
G01*
G75*
%ADD23R,0.1000X0.1000*%
G04:AMPARAMS|DCode=37|XSize=0.9532mm|YSize=1.2032mm|CornerRadius=0.2816mm|HoleSize=0mm|Usage=FLASHONLY|Rotation=90.000|XOffset=0mm|YOffset=0mm|HoleType=Round|Shape=RoundedRectangle|*
%AMROUNDEDRECTD37*
21,1,0.9532,0.6400,0,0,90.0*
21,1,0.3900,1.2032,0,0,90.0*
1,1,0.5632,0.3200,0.1950*
1,1,0.5632,0.3200,-0.1950*
1,1,0.5632,-0.3200,-0.1950*
1,1,0.5632,-0.3200,0.1950*
%
%ADD37ROUNDEDRECTD37*%
G04:AMPARAMS|DCode=38|XSize=1.8132mm|YSize=0.7932mm|CornerRadius=0.2521mm|HoleSize=0mm|Usage=FLASHONLY|Rotation=0.000|XOffset=0mm|YOffset=0mm|HoleType=Round|Shape=RoundedRectangle|*
%AMROUNDEDRECTD38*
21,1,1.8132,0.2891,0,0,0.0*
21,1,1.3091,0.7932,0,0,0.0*
1,1,0.5041,0.6546,-0.1446*
1,1,0.5041,-0.6546,-0.1446*
1,1,0.5041,-0.6546,0.1446*
1,1,0.5041,0.6546,0.1446*
%
%ADD38ROUNDEDRECTD38*%
G04:AMPARAMS|DCode=39|XSize=1.2132mm|YSize=0.8132mm|CornerRadius=0.2511mm|HoleSize=0mm|Usage=FLASHONLY|Rotation=90.000|XOffset=0mm|YOffset=0mm|HoleType=Round|Shape=RoundedRectangle|*
%AMROUNDEDRECTD39*
21,1,1.2132,0.3111,0,0,90.0*
21,1,0.7111,0.8132,0,0,90.0*
1,1,0.5021,0.1556,0.3556*
1,1,0.5021,0.1556,-0.3556*
1,1,0.5021,-0.1556,-0.3556*
1,1,0.5021,-0.1556,0.3556*
%
%ADD39ROUNDEDRECTD39*%
G04:AMPARAMS|DCode=40|XSize=0.6832mm|YSize=0.6032mm|CornerRadius=0.2016mm|HoleSize=0mm|Usage=FLASHONLY|Rotation=0.000|XOffset=0mm|YOffset=0mm|HoleType=Round|Shape=RoundedRectangle|*
%AMROUNDEDRECTD40*
21,1,0.6832,0.2000,0,0,0.0*
21,1,0.2800,0.6032,0,0,0.0*
1,1,0.4032,0.1400,-0.1000*
1,1,0.4032,-0.1400,-0.1000*
1,1,0.4032,-0.1400,0.1000*
1,1,0.4032,0.1400,0.1000*
%
%ADD40ROUNDEDRECTD40*%
G04:AMPARAMS|DCode=41|XSize=1.4732mm|YSize=3.6322mm|CornerRadius=0.4191mm|HoleSize=0mm|Usage=FLASHONLY|Rotation=90.000|XOffset=0mm|YOffset=0mm|HoleType=Round|Shape=RoundedRectangle|*
%AMROUNDEDRECTD41*
21,1,1.4732,2.7940,0,0,90.0*
21,1,0.6350,3.6322,0,0,90.0*
1,1,0.8382,1.3970,0.3175*
1,1,0.8382,1.3970,-0.3175*
1,1,0.8382,-1.3970,-0.3175*
1,1,0.8382,-1.3970,0.3175*
%
%ADD41ROUNDEDRECTD41*%
G04:AMPARAMS|DCode=42|XSize=1.4732mm|YSize=5.2832mm|CornerRadius=0.4191mm|HoleSize=0mm|Usage=FLASHONLY|Rotation=90.000|XOffset=0mm|YOffset=0mm|HoleType=Round|Shape=RoundedRectangle|*
%AMROUNDEDRECTD42*
21,1,1.4732,4.4450,0,0,90.0*
21,1,0.6350,5.2832,0,0,90.0*
1,1,0.8382,2.2225,0.3175*
1,1,0.8382,2.2225,-0.3175*
1,1,0.8382,-2.2225,-0.3175*
1,1,0.8382,-2.2225,0.3175*
%
%ADD42ROUNDEDRECTD42*%
G04:AMPARAMS|DCode=43|XSize=0.9402mm|YSize=2.9972mm|CornerRadius=0.2858mm|HoleSize=0mm|Usage=FLASHONLY|Rotation=90.000|XOffset=0mm|YOffset=0mm|HoleType=Round|Shape=RoundedRectangle|*
%AMROUNDEDRECTD43*
21,1,0.9402,2.4255,0,0,90.0*
21,1,0.3685,2.9972,0,0,90.0*
1,1,0.5717,1.2128,0.1843*
1,1,0.5717,1.2128,-0.1843*
1,1,0.5717,-1.2128,-0.1843*
1,1,0.5717,-1.2128,0.1843*
%
%ADD43ROUNDEDRECTD43*%
G04:AMPARAMS|DCode=44|XSize=1.1932mm|YSize=1.5832mm|CornerRadius=0.3541mm|HoleSize=0mm|Usage=FLASHONLY|Rotation=0.000|XOffset=0mm|YOffset=0mm|HoleType=Round|Shape=RoundedRectangle|*
%AMROUNDEDRECTD44*
21,1,1.1932,0.8751,0,0,0.0*
21,1,0.4851,1.5832,0,0,0.0*
1,1,0.7081,0.2426,-0.4376*
1,1,0.7081,-0.2426,-0.4376*
1,1,0.7081,-0.2426,0.4376*
1,1,0.7081,0.2426,0.4376*
%
%ADD44ROUNDEDRECTD44*%
G04:AMPARAMS|DCode=45|XSize=0.6032mm|YSize=0.7832mm|CornerRadius=0.2016mm|HoleSize=0mm|Usage=FLASHONLY|Rotation=90.000|XOffset=0mm|YOffset=0mm|HoleType=Round|Shape=RoundedRectangle|*
%AMROUNDEDRECTD45*
21,1,0.6032,0.3800,0,0,90.0*
21,1,0.2000,0.7832,0,0,90.0*
1,1,0.4032,0.1900,0.1000*
1,1,0.4032,0.1900,-0.1000*
1,1,0.4032,-0.1900,-0.1000*
1,1,0.4032,-0.1900,0.1000*
%
%ADD45ROUNDEDRECTD45*%
G04:AMPARAMS|DCode=46|XSize=3.6032mm|YSize=2.0032mm|CornerRadius=0.5516mm|HoleSize=0mm|Usage=FLASHONLY|Rotation=180.000|XOffset=0mm|YOffset=0mm|HoleType=Round|Shape=RoundedRectangle|*
%AMROUNDEDRECTD46*
21,1,3.6032,0.9000,0,0,180.0*
21,1,2.5000,2.0032,0,0,180.0*
1,1,1.1032,-1.2500,0.4500*
1,1,1.1032,1.2500,0.4500*
1,1,1.1032,1.2500,-0.4500*
1,1,1.1032,-1.2500,-0.4500*
%
%ADD46ROUNDEDRECTD46*%
G04:AMPARAMS|DCode=47|XSize=0.8032mm|YSize=1.7532mm|CornerRadius=0.2516mm|HoleSize=0mm|Usage=FLASHONLY|Rotation=270.000|XOffset=0mm|YOffset=0mm|HoleType=Round|Shape=RoundedRectangle|*
%AMROUNDEDRECTD47*
21,1,0.8032,1.2500,0,0,270.0*
21,1,0.3000,1.7532,0,0,270.0*
1,1,0.5032,-0.6250,-0.1500*
1,1,0.5032,-0.6250,0.1500*
1,1,0.5032,0.6250,0.1500*
1,1,0.5032,0.6250,-0.1500*
%
%ADD47ROUNDEDRECTD47*%
G04:AMPARAMS|DCode=48|XSize=1.4032mm|YSize=2.0032mm|CornerRadius=0.4016mm|HoleSize=0mm|Usage=FLASHONLY|Rotation=270.000|XOffset=0mm|YOffset=0mm|HoleType=Round|Shape=RoundedRectangle|*
%AMROUNDEDRECTD48*
21,1,1.4032,1.2000,0,0,270.0*
21,1,0.6000,2.0032,0,0,270.0*
1,1,0.8032,-0.6000,-0.3000*
1,1,0.8032,-0.6000,0.3000*
1,1,0.8032,0.6000,0.3000*
1,1,0.8032,0.6000,-0.3000*
%
%ADD48ROUNDEDRECTD48*%
G04:AMPARAMS|DCode=49|XSize=1.4032mm|YSize=1.9032mm|CornerRadius=0.4016mm|HoleSize=0mm|Usage=FLASHONLY|Rotation=90.000|XOffset=0mm|YOffset=0mm|HoleType=Round|Shape=RoundedRectangle|*
%AMROUNDEDRECTD49*
21,1,1.4032,1.1000,0,0,90.0*
21,1,0.6000,1.9032,0,0,90.0*
1,1,0.8032,0.5500,0.3000*
1,1,0.8032,0.5500,-0.3000*
1,1,0.8032,-0.5500,-0.3000*
1,1,0.8032,-0.5500,0.3000*
%
%ADD49ROUNDEDRECTD49*%
G04:AMPARAMS|DCode=50|XSize=0.7032mm|YSize=1.3032mm|CornerRadius=0.2266mm|HoleSize=0mm|Usage=FLASHONLY|Rotation=90.000|XOffset=0mm|YOffset=0mm|HoleType=Round|Shape=RoundedRectangle|*
%AMROUNDEDRECTD50*
21,1,0.7032,0.8500,0,0,90.0*
21,1,0.2500,1.3032,0,0,90.0*
1,1,0.4532,0.4250,0.1250*
1,1,0.4532,0.4250,-0.1250*
1,1,0.4532,-0.4250,-0.1250*
1,1,0.4532,-0.4250,0.1250*
%
%ADD50ROUNDEDRECTD50*%
G04:AMPARAMS|DCode=51|XSize=2.8956mm|YSize=0.8382mm|CornerRadius=0.235mm|HoleSize=0mm|Usage=FLASHONLY|Rotation=180.000|XOffset=0mm|YOffset=0mm|HoleType=Round|Shape=RoundedRectangle|*
%AMROUNDEDRECTD51*
21,1,2.8956,0.3683,0,0,180.0*
21,1,2.4257,0.8382,0,0,180.0*
1,1,0.4699,-1.2129,0.1842*
1,1,0.4699,1.2129,0.1842*
1,1,0.4699,1.2129,-0.1842*
1,1,0.4699,-1.2129,-0.1842*
%
%ADD51ROUNDEDRECTD51*%
G04:AMPARAMS|DCode=52|XSize=0.8332mm|YSize=0.8132mm|CornerRadius=0.2511mm|HoleSize=0mm|Usage=FLASHONLY|Rotation=180.000|XOffset=0mm|YOffset=0mm|HoleType=Round|Shape=RoundedRectangle|*
%AMROUNDEDRECTD52*
21,1,0.8332,0.3111,0,0,180.0*
21,1,0.3311,0.8132,0,0,180.0*
1,1,0.5021,-0.1656,0.1556*
1,1,0.5021,0.1656,0.1556*
1,1,0.5021,0.1656,-0.1556*
1,1,0.5021,-0.1656,-0.1556*
%
%ADD52ROUNDEDRECTD52*%
G04:AMPARAMS|DCode=53|XSize=0.6032mm|YSize=0.7832mm|CornerRadius=0.2016mm|HoleSize=0mm|Usage=FLASHONLY|Rotation=180.000|XOffset=0mm|YOffset=0mm|HoleType=Round|Shape=RoundedRectangle|*
%AMROUNDEDRECTD53*
21,1,0.6032,0.3800,0,0,180.0*
21,1,0.2000,0.7832,0,0,180.0*
1,1,0.4032,-0.1000,0.1900*
1,1,0.4032,0.1000,0.1900*
1,1,0.4032,0.1000,-0.1900*
1,1,0.4032,-0.1000,-0.1900*
%
%ADD53ROUNDEDRECTD53*%
%ADD54C,1.7532*%
%ADD55R,1.7532X1.7532*%
%ADD56C,6.2032*%
%ADD57R,1.7932X1.7932*%
%ADD58C,1.7932*%
G36*
X149977Y83548D02*
X148992D01*
X147060Y83933D01*
X145240Y84686D01*
X143602Y85781D01*
X142209Y87174D01*
X141115Y88811D01*
X140361Y90631D01*
X139977Y92563D01*
Y93548D01*
Y94533D01*
X140361Y96465D01*
X141115Y98285D01*
X142209Y99923D01*
X143602Y101316D01*
X145240Y102410D01*
X147060Y103164D01*
X148992Y103548D01*
X149977D01*
Y83548D01*
D02*
G37*
G36*
X158894Y103164D02*
X160714Y102410D01*
X162352Y101316D01*
X163745Y99923D01*
X164839Y98285D01*
X165593Y96465D01*
X165977Y94533D01*
Y93548D01*
Y92563D01*
X165593Y90631D01*
X164839Y88811D01*
X163745Y87174D01*
X162352Y85781D01*
X160714Y84686D01*
X158894Y83933D01*
X156962Y83548D01*
X155977D01*
Y103548D01*
X156962D01*
X158894Y103164D01*
D02*
G37*
D23*
X162977Y93548D02*
D03*
X142977D02*
D03*
D37*
X254357Y35317D02*
D03*
X213857D02*
D03*
Y14067D02*
D03*
X254357Y13817D02*
D03*
D38*
X144337Y39500D02*
D03*
Y20500D02*
D03*
X121437D02*
D03*
Y30000D02*
D03*
Y39500D02*
D03*
D39*
X37993Y112128D02*
D03*
X47493Y93028D02*
D03*
X28493D02*
D03*
D40*
X158502Y69608D02*
D03*
X145302D02*
D03*
D41*
X313055Y292100D02*
D03*
X283845Y266700D02*
D03*
X313055Y241300D02*
D03*
X283845Y215900D02*
D03*
X313055Y190500D02*
D03*
X283845Y165100D02*
D03*
D42*
X380990Y289300D02*
D03*
X449590D02*
D03*
X380990Y263900D02*
D03*
X449590D02*
D03*
X380990Y238500D02*
D03*
X449590D02*
D03*
X380990Y213100D02*
D03*
X449590D02*
D03*
X380990Y187700D02*
D03*
X449590D02*
D03*
X380990Y162300D02*
D03*
X449590D02*
D03*
X380990Y136900D02*
D03*
X449590D02*
D03*
X380990Y111500D02*
D03*
X449590D02*
D03*
X380990Y86100D02*
D03*
X449590D02*
D03*
X380990Y60700D02*
D03*
X449590D02*
D03*
D43*
X531940Y232150D02*
D03*
X572660D02*
D03*
X531940Y219450D02*
D03*
X572660D02*
D03*
X531940Y206750D02*
D03*
X572660D02*
D03*
X531940Y194050D02*
D03*
X572660D02*
D03*
X531940Y181350D02*
D03*
X572660D02*
D03*
X531940Y168650D02*
D03*
X572660D02*
D03*
X531940Y155950D02*
D03*
X572660D02*
D03*
X531940Y143250D02*
D03*
X572660D02*
D03*
X531940Y130550D02*
D03*
X572660D02*
D03*
X531940Y117850D02*
D03*
X572660D02*
D03*
D44*
X51222Y134743D02*
D03*
X32922D02*
D03*
D45*
X96621Y32718D02*
D03*
Y23718D02*
D03*
X165708Y33786D02*
D03*
Y24786D02*
D03*
D46*
X558145Y257305D02*
D03*
X161449Y309050D02*
D03*
D47*
X174328Y220000D02*
D03*
Y210000D02*
D03*
Y200000D02*
D03*
Y190000D02*
D03*
Y180000D02*
D03*
Y170000D02*
D03*
Y160000D02*
D03*
Y150000D02*
D03*
Y140000D02*
D03*
Y130000D02*
D03*
X58390Y217976D02*
D03*
Y207976D02*
D03*
Y197976D02*
D03*
Y187976D02*
D03*
Y177976D02*
D03*
Y167976D02*
D03*
D48*
X149078Y233000D02*
D03*
Y117000D02*
D03*
X33140Y154976D02*
D03*
Y230976D02*
D03*
D49*
X220076Y321000D02*
D03*
Y239000D02*
D03*
D50*
X234076Y308000D02*
D03*
Y300000D02*
D03*
Y292000D02*
D03*
Y284000D02*
D03*
Y276000D02*
D03*
Y268000D02*
D03*
Y260000D02*
D03*
Y252000D02*
D03*
D51*
X230803Y129540D02*
D03*
X271443D02*
D03*
X230803Y116840D02*
D03*
X271443D02*
D03*
X230803Y104140D02*
D03*
X271443D02*
D03*
X230803Y91440D02*
D03*
X271443D02*
D03*
X230803Y78740D02*
D03*
X271443D02*
D03*
D52*
X125899Y56136D02*
D03*
X134899D02*
D03*
D53*
X127611Y71312D02*
D03*
X136611D02*
D03*
D54*
X347726Y25531D02*
D03*
D55*
X322326D02*
D03*
D56*
X40000Y40000D02*
D03*
Y310000D02*
D03*
X560000Y40000D02*
D03*
Y310000D02*
D03*
D57*
X105000Y61651D02*
D03*
D58*
Y87051D02*
D03*
Y112451D02*
D03*
Y137851D02*
D03*
Y163251D02*
D03*
Y188651D02*
D03*
Y214051D02*
D03*
Y239451D02*
D03*
Y264851D02*
D03*
Y290251D02*
D03*
M02*
