G04*
G04 #@! TF.GenerationSoftware,Altium Limited,Altium Designer,20.1.8 (145)*
G04*
G04 Layer_Color=32896*
%FSLAX44Y44*%
%MOMM*%
G71*
G04*
G04 #@! TF.SameCoordinates,C9CF11F6-8CB7-4B33-927B-0983859D9422*
G04*
G04*
G04 #@! TF.FilePolarity,Positive*
G04*
G01*
G75*
%ADD73C,0.0250*%
D73*
X140977Y93548D02*
G03*
X150977Y83548I10000J0D01*
G01*
Y103548D02*
G03*
X140977Y93548I0J-10000D01*
G01*
X164977D02*
G03*
X154977Y103548I-10000J0D01*
G01*
Y83548D02*
G03*
X164977Y93548I0J10000D01*
G01*
X249357Y31567D02*
X259357D01*
X249357D02*
Y39067D01*
X259357D01*
Y31567D02*
Y39067D01*
X208857Y31567D02*
X218857D01*
X208857D02*
Y39067D01*
X218857D01*
Y31567D02*
Y39067D01*
X208857Y17817D02*
X218857D01*
Y10317D02*
Y17817D01*
X208857Y10317D02*
X218857D01*
X208857D02*
Y17817D01*
X249357Y17567D02*
X259357D01*
Y10067D02*
Y17567D01*
X249357Y10067D02*
X259357D01*
X249357D02*
Y17567D01*
X213107Y40567D02*
X255107D01*
Y8567D02*
Y40567D01*
X213107Y8567D02*
X255107D01*
X213107D02*
Y40567D01*
X125137Y15500D02*
X140637D01*
Y44500D01*
X125137D02*
X140637D01*
X125137Y15500D02*
Y44500D01*
X142887Y37725D02*
X146387D01*
Y41275D01*
X142887D02*
X146387D01*
X142887Y37725D02*
Y41275D01*
Y18725D02*
X146387D01*
Y22275D01*
X142887D02*
X146387D01*
X142887Y18725D02*
Y22275D01*
X119387D02*
X122887D01*
X119387Y18725D02*
Y22275D01*
Y18725D02*
X122887D01*
Y22275D01*
X119387Y31775D02*
X122887D01*
X119387Y28225D02*
Y31775D01*
Y28225D02*
X122887D01*
Y31775D01*
X119387Y41275D02*
X122887D01*
X119387Y37725D02*
Y41275D01*
Y37725D02*
X122887D01*
Y41275D01*
X23493Y96078D02*
X52493D01*
Y109078D01*
X23493D02*
X52493D01*
X23493Y96078D02*
Y109078D01*
X40143Y111078D02*
Y114078D01*
X35843D02*
X40143D01*
X35843Y111078D02*
Y114078D01*
Y111078D02*
X40143D01*
X45343Y91078D02*
Y94078D01*
Y91078D02*
X49643D01*
Y94078D01*
X45343D02*
X49643D01*
X26343Y91078D02*
Y94078D01*
Y91078D02*
X30643D01*
Y94078D01*
X26343D02*
X30643D01*
X156902Y68108D02*
Y71108D01*
X159902D01*
Y68108D02*
Y71108D01*
X156902Y68108D02*
X159902D01*
X146902D02*
Y71108D01*
X143902Y68108D02*
X146902D01*
X143902D02*
Y71108D01*
X146902D01*
X157902Y65608D02*
Y73608D01*
X145902Y65608D02*
X157902D01*
X145902D02*
Y73608D01*
X157902D01*
X308326Y37531D02*
X361326D01*
Y13531D02*
Y37531D01*
X308326Y13531D02*
X361326D01*
X308326D02*
Y37531D01*
X150977Y83548D02*
Y103548D01*
X154977Y83548D02*
Y103548D01*
X285750Y152400D02*
X311150D01*
X285750D02*
Y304800D01*
X311150D01*
Y152400D02*
Y304800D01*
X461640Y9900D02*
Y340100D01*
X368940D02*
X461640D01*
X368940Y9900D02*
Y340100D01*
Y9900D02*
X461640D01*
X585650Y109000D02*
Y240750D01*
X518950D02*
X585650D01*
X518950Y109000D02*
Y240750D01*
Y109000D02*
X585650D01*
X48072Y128493D02*
Y140993D01*
X52072D01*
Y128493D02*
Y140993D01*
X48072Y128493D02*
X52072D01*
X36072D02*
Y140993D01*
X32072Y128493D02*
X36072D01*
X32072D02*
Y140993D01*
X36072D01*
X52072Y128493D02*
Y140993D01*
X32072Y128493D02*
X52072D01*
X32072D02*
Y140993D01*
X52072D01*
X94121Y30718D02*
X99121D01*
X94121D02*
Y33218D01*
X99121D01*
Y30718D02*
Y33218D01*
X94121Y25718D02*
X99121D01*
Y23218D02*
Y25718D01*
X94121Y23218D02*
X99121D01*
X94121D02*
Y25718D01*
Y33218D02*
X99121D01*
Y23218D02*
Y33218D01*
X94121Y23218D02*
X99121D01*
X94121D02*
Y33218D01*
X544645Y252305D02*
X571645D01*
X544645Y262305D02*
X571645D01*
X544645Y252305D02*
Y262305D01*
X571645Y252305D02*
Y262305D01*
X142128Y235000D02*
X171702D01*
Y115000D02*
Y235000D01*
X142128Y115000D02*
X171702D01*
X142128D02*
Y235000D01*
X234576Y237000D02*
Y323000D01*
X214576D02*
X234576D01*
X214576Y237000D02*
Y323000D01*
Y237000D02*
X234576D01*
X55140Y152976D02*
Y232976D01*
X26140D02*
X55140D01*
X26140Y152976D02*
Y232976D01*
Y152976D02*
X55140D01*
X101800Y58451D02*
X108200D01*
X101800D02*
Y64851D01*
X108200D01*
Y58451D02*
Y64851D01*
X101800Y83851D02*
X108200D01*
X101800D02*
Y90251D01*
X108200D01*
Y83851D02*
Y90251D01*
X101800Y109251D02*
X108200D01*
X101800D02*
Y115651D01*
X108200D01*
Y109251D02*
Y115651D01*
X101800Y134651D02*
X108200D01*
X101800D02*
Y141051D01*
X108200D01*
Y134651D02*
Y141051D01*
X101800Y160051D02*
X108200D01*
X101800D02*
Y166451D01*
X108200D01*
Y160051D02*
Y166451D01*
X101800Y185451D02*
X108200D01*
X101800D02*
Y191851D01*
X108200D01*
Y185451D02*
Y191851D01*
X101800Y210851D02*
X108200D01*
X101800D02*
Y217251D01*
X108200D01*
Y210851D02*
Y217251D01*
X101800Y236251D02*
X108200D01*
X101800D02*
Y242651D01*
X108200D01*
Y236251D02*
Y242651D01*
X101800Y261651D02*
X108200D01*
X101800D02*
Y268051D01*
X108200D01*
Y261651D02*
Y268051D01*
X101800Y287051D02*
X108200D01*
X101800D02*
Y293451D01*
X108200D01*
Y287051D02*
Y293451D01*
X92300Y73251D02*
X117700D01*
X92300D02*
Y278651D01*
X117700D01*
Y73251D02*
Y278651D01*
X222123Y72140D02*
X280123D01*
Y136140D01*
X222123D02*
X280123D01*
X222123Y72140D02*
Y136140D01*
X125399Y58636D02*
X135399D01*
X125399Y53636D02*
Y58636D01*
Y53636D02*
X135399D01*
Y58636D01*
X125399D02*
X127899D01*
X125399Y53636D02*
Y58636D01*
Y53636D02*
X127899D01*
Y58636D01*
X132899Y53636D02*
X135399D01*
Y58636D01*
X132899D02*
X135399D01*
X132899Y53636D02*
Y58636D01*
X129611Y68812D02*
Y73812D01*
X127111Y68812D02*
X129611D01*
X127111D02*
Y73812D01*
X129611D01*
X134611Y68812D02*
Y73812D01*
X137111D01*
Y68812D02*
Y73812D01*
X134611Y68812D02*
X137111D01*
X127111D02*
Y73812D01*
X137111D01*
Y68812D02*
Y73812D01*
X127111Y68812D02*
X137111D01*
X163208Y31786D02*
X168208D01*
X163208D02*
Y34286D01*
X168208D01*
Y31786D02*
Y34286D01*
X163208Y26786D02*
X168208D01*
Y24286D02*
Y26786D01*
X163208Y24286D02*
X168208D01*
X163208D02*
Y26786D01*
Y34286D02*
X168208D01*
Y24286D02*
Y34286D01*
X163208Y24286D02*
X168208D01*
X163208D02*
Y34286D01*
X174949Y304050D02*
Y314050D01*
X147949Y304050D02*
Y314050D01*
X174949D01*
X147949Y304050D02*
X174949D01*
M02*
