G04*
G04 #@! TF.GenerationSoftware,Altium Limited,Altium Designer,20.1.8 (145)*
G04*
G04 Layer_Color=65535*
%FSLAX44Y44*%
%MOMM*%
G71*
G04*
G04 #@! TF.SameCoordinates,C9CF11F6-8CB7-4B33-927B-0983859D9422*
G04*
G04*
G04 #@! TF.FilePolarity,Positive*
G04*
G01*
G75*
%ADD10C,0.2500*%
%ADD11C,0.2000*%
%ADD12C,0.1200*%
%ADD13C,0.4000*%
%ADD14C,0.5000*%
%ADD15C,0.1778*%
%ADD16C,0.1397*%
%ADD17C,0.1400*%
%ADD18C,0.1800*%
G36*
X201635Y207216D02*
X201773D01*
Y206803D01*
X201910D01*
Y206390D01*
X202048D01*
Y206114D01*
X202186D01*
Y205287D01*
X202324D01*
Y205012D01*
X202461D01*
Y204323D01*
X202324D01*
Y204186D01*
X202186D01*
Y204048D01*
X195023D01*
Y203910D01*
X194609D01*
Y203772D01*
X194334D01*
Y203497D01*
X194058D01*
Y203359D01*
X193920D01*
Y203221D01*
X193783D01*
Y202946D01*
X193645D01*
Y202532D01*
X193507D01*
Y201706D01*
X193645D01*
Y201155D01*
X193783D01*
Y200879D01*
X193920D01*
Y200742D01*
X194058D01*
Y200604D01*
X194196D01*
Y200466D01*
X194334D01*
Y200328D01*
X194471D01*
Y200191D01*
X194609D01*
Y200053D01*
X195023D01*
Y199915D01*
X201635D01*
Y199777D01*
X201773D01*
Y199364D01*
X201910D01*
Y198951D01*
X202048D01*
Y198537D01*
X202186D01*
Y197849D01*
X202324D01*
Y197435D01*
X202461D01*
Y196747D01*
X202324D01*
Y196609D01*
X202186D01*
Y196471D01*
X190890D01*
Y199777D01*
X193094D01*
Y200053D01*
X192956D01*
Y200191D01*
X192681D01*
Y200328D01*
X192543D01*
Y200466D01*
X192405D01*
Y200604D01*
X192130D01*
Y200742D01*
X191992D01*
Y200879D01*
X191716D01*
Y201017D01*
X191579D01*
Y201430D01*
X191441D01*
Y201568D01*
X191303D01*
Y201706D01*
X191165D01*
Y201981D01*
X191028D01*
Y202395D01*
X190890D01*
Y202946D01*
X190752D01*
Y204186D01*
X190890D01*
Y204599D01*
X191028D01*
Y205012D01*
X191165D01*
Y205287D01*
X191303D01*
Y205425D01*
X191441D01*
Y205701D01*
X191579D01*
Y206114D01*
X191854D01*
Y206252D01*
X191992D01*
Y206390D01*
X192267D01*
Y206527D01*
X192405D01*
Y206665D01*
X192543D01*
Y206803D01*
X192681D01*
Y206941D01*
X193232D01*
Y207078D01*
X193507D01*
Y207216D01*
X194058D01*
Y207354D01*
X201635D01*
Y207216D01*
D02*
G37*
G36*
X202324Y193165D02*
X204390D01*
Y192752D01*
X204528D01*
Y192338D01*
X204666D01*
Y192063D01*
X204803D01*
Y191374D01*
X204941D01*
Y190961D01*
X205079D01*
Y190410D01*
X205217D01*
Y190134D01*
X205079D01*
Y189859D01*
X204803D01*
Y189721D01*
X202324D01*
Y187654D01*
X199982D01*
Y189721D01*
X193920D01*
Y189583D01*
X193645D01*
Y189445D01*
X193507D01*
Y189170D01*
X193369D01*
Y187930D01*
X193094D01*
Y187792D01*
X192543D01*
Y187654D01*
X191441D01*
Y187517D01*
X191028D01*
Y187930D01*
X190890D01*
Y188757D01*
X190752D01*
Y190410D01*
X190890D01*
Y190961D01*
X191028D01*
Y191236D01*
X191165D01*
Y191512D01*
X191303D01*
Y191787D01*
X191441D01*
Y191925D01*
X191579D01*
Y192201D01*
X191716D01*
Y192338D01*
X191854D01*
Y192476D01*
X192130D01*
Y192614D01*
X192267D01*
Y192752D01*
X192405D01*
Y192889D01*
X192818D01*
Y193027D01*
X193920D01*
Y193165D01*
X199982D01*
Y194680D01*
X202324D01*
Y193165D01*
D02*
G37*
G36*
X197778Y185864D02*
X198466D01*
Y185726D01*
X198880D01*
Y185588D01*
X199293D01*
Y185450D01*
X199569D01*
Y185313D01*
X199844D01*
Y185175D01*
X200119D01*
Y185037D01*
X200395D01*
Y184899D01*
X200533D01*
Y184762D01*
X200671D01*
Y184624D01*
X200808D01*
Y184486D01*
X200946D01*
Y184348D01*
X201084D01*
Y184211D01*
X201222D01*
Y184073D01*
X201359D01*
Y183935D01*
X201497D01*
Y183660D01*
X201635D01*
Y183522D01*
X201773D01*
Y183384D01*
X201910D01*
Y183109D01*
X202048D01*
Y182833D01*
X202186D01*
Y182282D01*
X202324D01*
Y181731D01*
X202461D01*
Y180767D01*
X202599D01*
Y180353D01*
X202461D01*
Y179114D01*
X202324D01*
Y178700D01*
X202186D01*
Y178011D01*
X202048D01*
Y177874D01*
X201910D01*
Y177598D01*
X201773D01*
Y177323D01*
X201635D01*
Y177185D01*
X201497D01*
Y177047D01*
X201359D01*
Y176910D01*
X201222D01*
Y176634D01*
X201084D01*
Y176496D01*
X200946D01*
Y176358D01*
X200671D01*
Y176221D01*
X200533D01*
Y176083D01*
X200395D01*
Y175945D01*
X200257D01*
Y175807D01*
X199982D01*
Y175670D01*
X199706D01*
Y175532D01*
X199431D01*
Y175394D01*
X199018D01*
Y175256D01*
X198604D01*
Y175119D01*
X197915D01*
Y174981D01*
X195987D01*
Y182695D01*
X194885D01*
Y182558D01*
X194609D01*
Y182420D01*
X194196D01*
Y182282D01*
X193920D01*
Y182144D01*
X193783D01*
Y182006D01*
X193645D01*
Y181869D01*
X193507D01*
Y181593D01*
X193369D01*
Y181180D01*
X193232D01*
Y180353D01*
X193094D01*
Y180078D01*
X193232D01*
Y179251D01*
X193369D01*
Y178838D01*
X193507D01*
Y178700D01*
X193645D01*
Y178425D01*
X193920D01*
Y178287D01*
X194058D01*
Y178149D01*
X194334D01*
Y176221D01*
X194196D01*
Y175119D01*
X193783D01*
Y175256D01*
X193507D01*
Y175394D01*
X193094D01*
Y175532D01*
X192818D01*
Y175670D01*
X192681D01*
Y175807D01*
X192543D01*
Y175945D01*
X192405D01*
Y176083D01*
X192267D01*
Y176221D01*
X192130D01*
Y176358D01*
X191992D01*
Y176496D01*
X191854D01*
Y176634D01*
X191716D01*
Y176772D01*
X191579D01*
Y177185D01*
X191441D01*
Y177460D01*
X191303D01*
Y177736D01*
X191165D01*
Y178011D01*
X191028D01*
Y178425D01*
X190890D01*
Y178976D01*
X190752D01*
Y181593D01*
X190890D01*
Y182144D01*
X191028D01*
Y182558D01*
X191165D01*
Y182833D01*
X191303D01*
Y183109D01*
X191441D01*
Y183384D01*
X191579D01*
Y183660D01*
X191716D01*
Y183935D01*
X191854D01*
Y184073D01*
X191992D01*
Y184211D01*
X192130D01*
Y184348D01*
X192267D01*
Y184486D01*
X192405D01*
Y184624D01*
X192543D01*
Y184762D01*
X192681D01*
Y184899D01*
X192818D01*
Y185037D01*
X193094D01*
Y185175D01*
X193369D01*
Y185313D01*
X193645D01*
Y185450D01*
X193920D01*
Y185588D01*
X194334D01*
Y185726D01*
X194747D01*
Y185864D01*
X195436D01*
Y186001D01*
X197778D01*
Y185864D01*
D02*
G37*
G36*
X201635Y172501D02*
X201773D01*
Y172088D01*
X201910D01*
Y171812D01*
X202048D01*
Y171399D01*
X202186D01*
Y170710D01*
X202324D01*
Y170297D01*
X202461D01*
Y169746D01*
X202324D01*
Y169608D01*
X202186D01*
Y169471D01*
X200395D01*
Y169057D01*
X200671D01*
Y168920D01*
X200946D01*
Y168782D01*
X201222D01*
Y168644D01*
X201497D01*
Y168506D01*
X201635D01*
Y168368D01*
X201910D01*
Y168093D01*
X202048D01*
Y167955D01*
X202186D01*
Y167680D01*
X202324D01*
Y167404D01*
X202461D01*
Y166853D01*
X202599D01*
Y166302D01*
X202461D01*
Y165751D01*
X202324D01*
Y165613D01*
X199569D01*
Y166302D01*
X199706D01*
Y167404D01*
X199569D01*
Y167955D01*
X199431D01*
Y168368D01*
X199293D01*
Y168506D01*
X199155D01*
Y168644D01*
X199018D01*
Y168782D01*
X198880D01*
Y168920D01*
X198742D01*
Y169057D01*
X198604D01*
Y169195D01*
X198329D01*
Y169333D01*
X190890D01*
Y172639D01*
X201635D01*
Y172501D01*
D02*
G37*
G36*
X206319Y163409D02*
X206456D01*
Y162858D01*
X206594D01*
Y162445D01*
X206732D01*
Y162032D01*
X206870D01*
Y161618D01*
X207007D01*
Y161205D01*
X207145D01*
Y160654D01*
X206870D01*
Y160516D01*
X204252D01*
Y163822D01*
X206319D01*
Y163409D01*
D02*
G37*
G36*
X202324Y160516D02*
X190890D01*
Y163822D01*
X202324D01*
Y160516D01*
D02*
G37*
G36*
X197778Y158037D02*
X198604D01*
Y157899D01*
X199018D01*
Y157761D01*
X199431D01*
Y157623D01*
X199706D01*
Y157486D01*
X199844D01*
Y157348D01*
X200119D01*
Y157210D01*
X200395D01*
Y157072D01*
X200533D01*
Y156935D01*
X200671D01*
Y156797D01*
X200808D01*
Y156659D01*
X201084D01*
Y156384D01*
X201222D01*
Y156246D01*
X201359D01*
Y156108D01*
X201497D01*
Y155970D01*
X201635D01*
Y155695D01*
X201773D01*
Y155557D01*
X201910D01*
Y155281D01*
X202048D01*
Y155006D01*
X202186D01*
Y154455D01*
X202324D01*
Y153904D01*
X202461D01*
Y152802D01*
X202599D01*
Y152251D01*
X202461D01*
Y151286D01*
X202324D01*
Y150736D01*
X202186D01*
Y150047D01*
X202048D01*
Y149909D01*
X201910D01*
Y149496D01*
X201773D01*
Y149358D01*
X201635D01*
Y149220D01*
X201497D01*
Y149082D01*
X201359D01*
Y148807D01*
X201222D01*
Y148531D01*
X201084D01*
Y148394D01*
X200808D01*
Y148256D01*
X200671D01*
Y148118D01*
X200395D01*
Y147843D01*
X200119D01*
Y147705D01*
X199982D01*
Y147567D01*
X199706D01*
Y147429D01*
X199293D01*
Y147292D01*
X198880D01*
Y147154D01*
X198604D01*
Y147016D01*
X197915D01*
Y146878D01*
X196951D01*
Y146741D01*
X196400D01*
Y146878D01*
X195298D01*
Y147016D01*
X194747D01*
Y147154D01*
X194334D01*
Y147292D01*
X194058D01*
Y147429D01*
X193507D01*
Y147567D01*
X193369D01*
Y147705D01*
X193232D01*
Y147843D01*
X192956D01*
Y147980D01*
X192818D01*
Y148118D01*
X192681D01*
Y148256D01*
X192543D01*
Y148394D01*
X192267D01*
Y148669D01*
X192130D01*
Y148807D01*
X191992D01*
Y148945D01*
X191854D01*
Y149082D01*
X191716D01*
Y149220D01*
X191579D01*
Y149633D01*
X191441D01*
Y149909D01*
X191303D01*
Y150047D01*
X191165D01*
Y150460D01*
X191028D01*
Y150873D01*
X190890D01*
Y151286D01*
X190752D01*
Y153766D01*
X190890D01*
Y154317D01*
X191028D01*
Y154730D01*
X191165D01*
Y155006D01*
X191303D01*
Y155281D01*
X191441D01*
Y155557D01*
X191579D01*
Y155833D01*
X191716D01*
Y156108D01*
X191854D01*
Y156246D01*
X191992D01*
Y156384D01*
X192130D01*
Y156521D01*
X192267D01*
Y156659D01*
X192405D01*
Y156797D01*
X192543D01*
Y156935D01*
X192681D01*
Y157072D01*
X192956D01*
Y157210D01*
X193232D01*
Y157348D01*
X193369D01*
Y157486D01*
X193645D01*
Y157623D01*
X193920D01*
Y157761D01*
X194196D01*
Y157899D01*
X194747D01*
Y158037D01*
X195574D01*
Y158174D01*
X197778D01*
Y158037D01*
D02*
G37*
G36*
X201773Y144261D02*
X201910D01*
Y143848D01*
X202048D01*
Y143434D01*
X202186D01*
Y142746D01*
X202324D01*
Y142332D01*
X202461D01*
Y141643D01*
X202324D01*
Y141506D01*
X202186D01*
Y141368D01*
X200395D01*
Y140955D01*
X200671D01*
Y140817D01*
X200808D01*
Y140679D01*
X201084D01*
Y140541D01*
X201359D01*
Y140404D01*
X201497D01*
Y140266D01*
X201635D01*
Y140128D01*
X201773D01*
Y139853D01*
X201910D01*
Y139715D01*
X202048D01*
Y139577D01*
X202186D01*
Y139026D01*
X202324D01*
Y138751D01*
X202461D01*
Y137924D01*
X202599D01*
Y137511D01*
X202461D01*
Y136684D01*
X202324D01*
Y136271D01*
X202186D01*
Y135720D01*
X202048D01*
Y135582D01*
X201910D01*
Y135307D01*
X201773D01*
Y135169D01*
X201497D01*
Y135031D01*
X201359D01*
Y134756D01*
X201222D01*
Y134618D01*
X201084D01*
Y134480D01*
X200808D01*
Y134342D01*
X200395D01*
Y134205D01*
X200257D01*
Y134067D01*
X199844D01*
Y133929D01*
X199431D01*
Y133791D01*
X190890D01*
Y136960D01*
X198053D01*
Y137098D01*
X198604D01*
Y137235D01*
X198880D01*
Y137373D01*
X199155D01*
Y137511D01*
X199293D01*
Y137786D01*
X199431D01*
Y137924D01*
X199569D01*
Y138200D01*
X199706D01*
Y138613D01*
X199844D01*
Y139577D01*
X199706D01*
Y139990D01*
X199569D01*
Y140404D01*
X199431D01*
Y140541D01*
X199293D01*
Y140679D01*
X199155D01*
Y140817D01*
X199018D01*
Y140955D01*
X198742D01*
Y141093D01*
X198466D01*
Y141230D01*
X197915D01*
Y141368D01*
X190890D01*
Y144536D01*
X201773D01*
Y144261D01*
D02*
G37*
G36*
X302880Y116958D02*
X303549D01*
Y116623D01*
X305387D01*
Y116456D01*
X306389D01*
Y116122D01*
X307391D01*
Y115955D01*
X308394D01*
Y115621D01*
X309062D01*
Y115454D01*
X310399D01*
Y115120D01*
X310900D01*
Y115454D01*
X311067D01*
Y115120D01*
X312070D01*
Y114953D01*
X312237D01*
Y114786D01*
X312738D01*
Y114953D01*
X313072D01*
Y114619D01*
X313908D01*
Y114451D01*
X314075D01*
Y114284D01*
X314576D01*
Y114451D01*
X314910D01*
Y114117D01*
X315912D01*
Y113783D01*
X316581D01*
Y113950D01*
X316915D01*
Y113616D01*
X318085D01*
Y113449D01*
X318251D01*
Y113282D01*
X318753D01*
Y113449D01*
X319087D01*
Y113115D01*
X320089D01*
Y112948D01*
X320257D01*
Y112781D01*
X320591D01*
Y112948D01*
X320925D01*
Y112614D01*
X321593D01*
Y112279D01*
X322094D01*
Y112446D01*
X322429D01*
Y112112D01*
X323598D01*
Y111778D01*
X324433D01*
Y111945D01*
X324600D01*
Y111611D01*
X325436D01*
Y111277D01*
X325603D01*
Y111444D01*
X325937D01*
Y111110D01*
X326104D01*
Y110943D01*
X325603D01*
Y110609D01*
X324099D01*
Y110442D01*
X321593D01*
Y110107D01*
X319421D01*
Y109940D01*
X317082D01*
Y109606D01*
X315077D01*
Y109439D01*
X313406D01*
Y109105D01*
X310900D01*
Y108938D01*
X309396D01*
Y108604D01*
X309062D01*
Y108103D01*
X311067D01*
Y107768D01*
X314409D01*
Y107935D01*
X314576D01*
Y107601D01*
X316080D01*
Y107768D01*
X316247D01*
Y107935D01*
X316414D01*
Y107768D01*
X317416D01*
Y108103D01*
X318920D01*
Y107768D01*
X319421D01*
Y108437D01*
X319588D01*
Y108103D01*
X320089D01*
Y108437D01*
X320424D01*
Y108103D01*
X320925D01*
Y107768D01*
X321426D01*
Y108437D01*
X321593D01*
Y108103D01*
X324600D01*
Y107768D01*
X326104D01*
Y107935D01*
X326271D01*
Y107768D01*
X326438D01*
Y107601D01*
X327107D01*
Y107434D01*
X327441D01*
Y107100D01*
X327107D01*
Y106933D01*
X319922D01*
Y107100D01*
X315411D01*
Y106933D01*
X313573D01*
Y107100D01*
X313406D01*
Y107434D01*
X310399D01*
Y107601D01*
X308561D01*
Y107935D01*
X307057D01*
Y108103D01*
X306389D01*
Y108437D01*
X305888D01*
Y108604D01*
X305554D01*
Y109105D01*
X306389D01*
Y109439D01*
X306556D01*
Y109272D01*
X307391D01*
Y109606D01*
X308394D01*
Y109940D01*
X308561D01*
Y109773D01*
X309396D01*
Y110107D01*
X310566D01*
Y110442D01*
X311067D01*
Y110107D01*
X311568D01*
Y110274D01*
X311735D01*
Y110442D01*
X311903D01*
Y110274D01*
X312905D01*
Y110609D01*
X315411D01*
Y110943D01*
X315578D01*
Y110776D01*
X317917D01*
Y111110D01*
X320591D01*
Y111277D01*
X320758D01*
Y111444D01*
X320925D01*
Y111277D01*
X322094D01*
Y111945D01*
X321426D01*
Y112112D01*
X320424D01*
Y112446D01*
X319087D01*
Y112614D01*
X318085D01*
Y112948D01*
X317416D01*
Y113115D01*
X316414D01*
Y113449D01*
X315578D01*
Y113616D01*
X314576D01*
Y113950D01*
X312905D01*
Y114117D01*
X312070D01*
Y114451D01*
X311067D01*
Y114619D01*
X310065D01*
Y114953D01*
X309396D01*
Y115120D01*
X308394D01*
Y115454D01*
X306556D01*
Y115621D01*
X305052D01*
Y115955D01*
X304050D01*
Y116122D01*
X301377D01*
Y116456D01*
X300541D01*
Y116623D01*
X300374D01*
Y116791D01*
X300207D01*
Y116958D01*
X300374D01*
Y117125D01*
X302880D01*
Y116958D01*
D02*
G37*
G36*
X301711Y108270D02*
X301878D01*
Y108103D01*
X302379D01*
Y107935D01*
X302546D01*
Y107601D01*
X303048D01*
Y107267D01*
X303549D01*
Y107434D01*
X303716D01*
Y107267D01*
X303883D01*
Y107100D01*
X305387D01*
Y106933D01*
X305554D01*
Y106599D01*
X306055D01*
Y106432D01*
X306222D01*
Y106265D01*
X306389D01*
Y106098D01*
X306890D01*
Y105931D01*
X307057D01*
Y105596D01*
X306556D01*
Y105931D01*
X306055D01*
Y105763D01*
X305888D01*
Y106098D01*
X305387D01*
Y106432D01*
X304551D01*
Y105931D01*
X304718D01*
Y105763D01*
X304885D01*
Y105095D01*
X305052D01*
Y104427D01*
X305219D01*
Y104260D01*
X305387D01*
Y104093D01*
X305554D01*
Y103424D01*
X305721D01*
Y103257D01*
X305888D01*
Y102923D01*
X306055D01*
Y102422D01*
X306222D01*
Y102255D01*
X306389D01*
Y102088D01*
X306556D01*
Y101587D01*
X306890D01*
Y101085D01*
X307057D01*
Y100918D01*
X307224D01*
Y100751D01*
X307391D01*
Y100584D01*
X307559D01*
Y100083D01*
X307893D01*
Y99916D01*
X308060D01*
Y99581D01*
X308394D01*
Y99247D01*
X308895D01*
Y99080D01*
X309062D01*
Y98913D01*
X309229D01*
Y98746D01*
X309396D01*
Y98579D01*
X309898D01*
Y98245D01*
X310399D01*
Y98078D01*
X312070D01*
Y98245D01*
X312571D01*
Y98579D01*
X312905D01*
Y98913D01*
X313072D01*
Y99080D01*
X313406D01*
Y99916D01*
X313573D01*
Y100250D01*
X313406D01*
Y100584D01*
X313573D01*
Y101085D01*
X313406D01*
Y102088D01*
X313573D01*
Y103257D01*
X313741D01*
Y103424D01*
X313908D01*
Y103257D01*
X314075D01*
Y103591D01*
X314409D01*
Y103926D01*
X314576D01*
Y103758D01*
X315411D01*
Y104093D01*
X315912D01*
Y104427D01*
X316080D01*
Y105095D01*
X319087D01*
Y104761D01*
X319588D01*
Y104928D01*
X319755D01*
Y104761D01*
X319922D01*
Y104594D01*
X320424D01*
Y104260D01*
X320591D01*
Y104427D01*
X320758D01*
Y104260D01*
X320925D01*
Y104093D01*
X321927D01*
Y103591D01*
X322595D01*
Y103257D01*
X322930D01*
Y103424D01*
X323097D01*
Y103090D01*
X323431D01*
Y102923D01*
X323598D01*
Y102589D01*
X324099D01*
Y102255D01*
X324433D01*
Y102422D01*
X324600D01*
Y102088D01*
X324935D01*
Y101921D01*
X325102D01*
Y101587D01*
X325436D01*
Y101419D01*
X325603D01*
Y101085D01*
X325937D01*
Y100918D01*
X326104D01*
Y100584D01*
X326438D01*
Y100417D01*
X326605D01*
Y99916D01*
X326772D01*
Y99749D01*
X326940D01*
Y99581D01*
X327107D01*
Y99080D01*
X327608D01*
Y98412D01*
X327775D01*
Y98245D01*
X327942D01*
Y97075D01*
X327608D01*
Y96741D01*
X327441D01*
Y96908D01*
X325603D01*
Y96741D01*
X325436D01*
Y97075D01*
X324935D01*
Y97410D01*
X324099D01*
Y97577D01*
X322930D01*
Y97744D01*
X322763D01*
Y97911D01*
X322930D01*
Y98078D01*
X324433D01*
Y99080D01*
X324099D01*
Y99581D01*
X323932D01*
Y100083D01*
X323598D01*
Y100584D01*
X323431D01*
Y100751D01*
X323264D01*
Y100918D01*
X323097D01*
Y101085D01*
X322930D01*
Y101587D01*
X322595D01*
Y102088D01*
X322429D01*
Y102255D01*
X322261D01*
Y102422D01*
X322094D01*
Y102589D01*
X321927D01*
Y102756D01*
X321760D01*
Y102923D01*
X321593D01*
Y103090D01*
X321426D01*
Y103257D01*
X321259D01*
Y103424D01*
X321092D01*
Y103591D01*
X320925D01*
Y103926D01*
X320089D01*
Y104093D01*
X317917D01*
Y103926D01*
X317416D01*
Y103424D01*
X317249D01*
Y103257D01*
X317082D01*
Y102923D01*
X317249D01*
Y102756D01*
X317082D01*
Y102422D01*
X317249D01*
Y102255D01*
X317416D01*
Y99415D01*
X317249D01*
Y99247D01*
X317082D01*
Y98746D01*
X316915D01*
Y98078D01*
X316581D01*
Y97744D01*
X316414D01*
Y97577D01*
X316080D01*
Y97242D01*
X315912D01*
Y97410D01*
X315411D01*
Y97075D01*
X314576D01*
Y96741D01*
X314409D01*
Y96908D01*
X312070D01*
Y96741D01*
X311903D01*
Y97075D01*
X310900D01*
Y97410D01*
X310065D01*
Y97577D01*
X309564D01*
Y97911D01*
X309062D01*
Y98078D01*
X308895D01*
Y98412D01*
X308394D01*
Y98579D01*
X308060D01*
Y98913D01*
X307391D01*
Y99080D01*
X307057D01*
Y99415D01*
X306389D01*
Y99581D01*
X306055D01*
Y99916D01*
X305554D01*
Y100417D01*
X305052D01*
Y100918D01*
X304551D01*
Y101252D01*
X304384D01*
Y101587D01*
X304050D01*
Y102088D01*
X303883D01*
Y102255D01*
X303716D01*
Y102422D01*
X303549D01*
Y102589D01*
X303382D01*
Y102756D01*
X303215D01*
Y102923D01*
X303048D01*
Y103257D01*
X302880D01*
Y103591D01*
X302546D01*
Y103758D01*
X302379D01*
Y104260D01*
X302212D01*
Y104427D01*
X302045D01*
Y104761D01*
X301878D01*
Y105262D01*
X301711D01*
Y105429D01*
X301544D01*
Y105596D01*
X301377D01*
Y106265D01*
X301210D01*
Y106432D01*
X301043D01*
Y106766D01*
X300875D01*
Y107267D01*
X300708D01*
Y107434D01*
X300541D01*
Y108270D01*
X300708D01*
Y108437D01*
X300875D01*
Y108270D01*
X301544D01*
Y108437D01*
X301711D01*
Y108270D01*
D02*
G37*
G36*
X313573Y95070D02*
X314075D01*
Y95238D01*
X314409D01*
Y95070D01*
X314910D01*
Y94736D01*
X315411D01*
Y95070D01*
X317082D01*
Y94736D01*
X317917D01*
Y94569D01*
X318920D01*
Y94235D01*
X320089D01*
Y94068D01*
X321426D01*
Y93734D01*
X321927D01*
Y93567D01*
X322429D01*
Y93233D01*
X322930D01*
Y93066D01*
X323097D01*
Y92731D01*
X323932D01*
Y92564D01*
X324099D01*
Y92230D01*
X324600D01*
Y92063D01*
X324935D01*
Y91896D01*
X325102D01*
Y91562D01*
X325436D01*
Y91395D01*
X325603D01*
Y91061D01*
X325937D01*
Y90893D01*
X326104D01*
Y90392D01*
X326271D01*
Y90225D01*
X326438D01*
Y89891D01*
X326605D01*
Y87552D01*
X325937D01*
Y87385D01*
X325770D01*
Y87218D01*
X325603D01*
Y87385D01*
X323932D01*
Y87218D01*
X323765D01*
Y87385D01*
X323598D01*
Y87552D01*
X323097D01*
Y87719D01*
X323598D01*
Y88053D01*
X323932D01*
Y88554D01*
X324099D01*
Y89223D01*
X324266D01*
Y89390D01*
X324433D01*
Y89724D01*
X324266D01*
Y89891D01*
X324433D01*
Y90726D01*
X324266D01*
Y90893D01*
X324099D01*
Y91061D01*
X323932D01*
Y91562D01*
X323598D01*
Y92063D01*
X323431D01*
Y92230D01*
X323264D01*
Y92397D01*
X323097D01*
Y92564D01*
X322595D01*
Y92899D01*
X322094D01*
Y93066D01*
X321426D01*
Y93400D01*
X321092D01*
Y93233D01*
X320925D01*
Y93567D01*
X320089D01*
Y93901D01*
X319087D01*
Y93734D01*
X318920D01*
Y94068D01*
X314075D01*
Y93734D01*
X313908D01*
Y93901D01*
X312571D01*
Y93567D01*
X312070D01*
Y93233D01*
X311903D01*
Y93400D01*
X311401D01*
Y93066D01*
X310900D01*
Y92899D01*
X310065D01*
Y92564D01*
X309564D01*
Y92230D01*
X309396D01*
Y92063D01*
X309062D01*
Y91729D01*
X308895D01*
Y91562D01*
X308561D01*
Y91228D01*
X308394D01*
Y90893D01*
X308227D01*
Y90726D01*
X308060D01*
Y89390D01*
X308227D01*
Y89223D01*
X308394D01*
Y88889D01*
X308561D01*
Y88387D01*
X308728D01*
Y88220D01*
X308895D01*
Y88053D01*
X309062D01*
Y87719D01*
X309564D01*
Y87552D01*
X309898D01*
Y87218D01*
X309564D01*
Y87552D01*
X308895D01*
Y87886D01*
X308394D01*
Y87719D01*
X308227D01*
Y87886D01*
X308060D01*
Y88053D01*
X307893D01*
Y88220D01*
X307726D01*
Y88387D01*
X307559D01*
Y88554D01*
X307391D01*
Y88722D01*
X307224D01*
Y88889D01*
X307057D01*
Y89056D01*
X306890D01*
Y89390D01*
X306556D01*
Y89223D01*
X306389D01*
Y89724D01*
X306222D01*
Y89891D01*
X306055D01*
Y90726D01*
X305888D01*
Y91896D01*
X306055D01*
Y92564D01*
X306556D01*
Y92731D01*
X306723D01*
Y92899D01*
X306890D01*
Y93233D01*
X307391D01*
Y93567D01*
X307559D01*
Y93734D01*
X308060D01*
Y94068D01*
X309062D01*
Y94235D01*
X309564D01*
Y94569D01*
X310399D01*
Y94736D01*
X311568D01*
Y95070D01*
X313406D01*
Y95405D01*
X313573D01*
Y95070D01*
D02*
G37*
G36*
X312571Y83542D02*
X312404D01*
Y82205D01*
X312070D01*
Y81704D01*
X311903D01*
Y81537D01*
X311568D01*
Y81203D01*
X311401D01*
Y81036D01*
X311067D01*
Y80702D01*
X310566D01*
Y80535D01*
X308561D01*
Y80869D01*
X308227D01*
Y80702D01*
X307893D01*
Y81036D01*
X307559D01*
Y81370D01*
X307391D01*
Y81203D01*
X307057D01*
Y81704D01*
X306890D01*
Y82038D01*
X306556D01*
Y83542D01*
X306389D01*
Y85881D01*
X306556D01*
Y85714D01*
X312404D01*
Y85881D01*
X312571D01*
Y83542D01*
D02*
G37*
G36*
X309396Y79198D02*
X309898D01*
Y79031D01*
X310399D01*
Y78697D01*
X310566D01*
Y78530D01*
X310900D01*
Y77694D01*
X311067D01*
Y77026D01*
X310900D01*
Y76024D01*
X311067D01*
Y75021D01*
X306055D01*
Y75188D01*
X305554D01*
Y75522D01*
X305387D01*
Y75690D01*
X305052D01*
Y76024D01*
X304885D01*
Y76692D01*
X304551D01*
Y78029D01*
X304885D01*
Y79031D01*
X305721D01*
Y78864D01*
X305554D01*
Y76525D01*
X305888D01*
Y76191D01*
X306389D01*
Y76024D01*
X306890D01*
Y76692D01*
X306556D01*
Y77527D01*
X306389D01*
Y78196D01*
X306556D01*
Y78530D01*
X306890D01*
Y79031D01*
X307391D01*
Y79198D01*
X307893D01*
Y79532D01*
X309396D01*
Y79198D01*
D02*
G37*
G36*
X521406Y12142D02*
X493974Y12142D01*
X493974Y65746D01*
X521406Y65746D01*
X521406Y12142D01*
D02*
G37*
G36*
X130272Y300440D02*
X130692D01*
Y300230D01*
X131007D01*
Y300125D01*
X131217D01*
Y299915D01*
X131322D01*
Y299810D01*
X131532D01*
Y299495D01*
X131637D01*
Y299075D01*
X131742D01*
Y298970D01*
X131847D01*
Y298550D01*
X131952D01*
Y298025D01*
X131847D01*
Y297710D01*
X131637D01*
Y297080D01*
X131532D01*
Y296975D01*
X131427D01*
Y296870D01*
X131322D01*
Y296660D01*
X131007D01*
Y296450D01*
X130902D01*
Y296345D01*
X130377D01*
Y296135D01*
X126912D01*
Y296345D01*
X126492D01*
Y296450D01*
X126177D01*
Y296555D01*
X126072D01*
Y296660D01*
X125967D01*
Y296765D01*
X125862D01*
Y297080D01*
X125652D01*
Y297290D01*
X125547D01*
Y297710D01*
X125337D01*
Y298970D01*
X125442D01*
Y299075D01*
X125547D01*
Y299285D01*
X125652D01*
Y299600D01*
X125757D01*
Y299705D01*
X125862D01*
Y299915D01*
X126177D01*
Y300125D01*
X126282D01*
Y300230D01*
X126387D01*
Y300335D01*
X126492D01*
Y300440D01*
X126912D01*
Y300545D01*
X130272D01*
Y300440D01*
D02*
G37*
G36*
X130062Y294560D02*
X130587D01*
Y294455D01*
X130902D01*
Y294245D01*
X131007D01*
Y294140D01*
X131322D01*
Y293825D01*
X131532D01*
Y293615D01*
X131637D01*
Y293090D01*
X131742D01*
Y292985D01*
X131847D01*
Y292880D01*
X131952D01*
Y292250D01*
X131847D01*
Y291725D01*
X131637D01*
Y291305D01*
X131532D01*
Y291095D01*
X131322D01*
Y290780D01*
X131007D01*
Y290675D01*
X130902D01*
Y290465D01*
X130692D01*
Y290360D01*
X130272D01*
Y290150D01*
X127122D01*
Y290360D01*
X126492D01*
Y290465D01*
X126282D01*
Y290675D01*
X126177D01*
Y290780D01*
X125967D01*
Y290990D01*
X125862D01*
Y291200D01*
X125757D01*
Y291305D01*
X125652D01*
Y291410D01*
X125547D01*
Y291725D01*
X125337D01*
Y293195D01*
X125547D01*
Y293510D01*
X123657D01*
Y293615D01*
X123447D01*
Y294140D01*
X123342D01*
Y294245D01*
X123132D01*
Y294560D01*
X123237D01*
Y294665D01*
X123342D01*
Y294770D01*
X130062D01*
Y294560D01*
D02*
G37*
G36*
X130587Y288575D02*
X130692D01*
Y288470D01*
X131007D01*
Y288365D01*
X131112D01*
Y288260D01*
X131217D01*
Y288155D01*
X131322D01*
Y288050D01*
X131427D01*
Y287945D01*
X131532D01*
Y287840D01*
X131637D01*
Y287210D01*
X131847D01*
Y286895D01*
X131952D01*
Y286265D01*
X131847D01*
Y285950D01*
X131742D01*
Y285845D01*
X131637D01*
Y285425D01*
X131532D01*
Y285110D01*
X131322D01*
Y285005D01*
X131217D01*
Y284795D01*
X131007D01*
Y284690D01*
X130692D01*
Y284480D01*
X130272D01*
Y284375D01*
X129117D01*
Y284480D01*
X129012D01*
Y284585D01*
X128907D01*
Y284690D01*
X128802D01*
Y285005D01*
X128697D01*
Y285425D01*
X128487D01*
Y285635D01*
X128382D01*
Y286055D01*
X128172D01*
Y286370D01*
X128067D01*
Y286685D01*
X127857D01*
Y287210D01*
X127752D01*
Y287315D01*
X127542D01*
Y287525D01*
X126912D01*
Y287315D01*
X126807D01*
Y287000D01*
X126597D01*
Y286895D01*
X126492D01*
Y286265D01*
X126597D01*
Y286160D01*
X126702D01*
Y286055D01*
X126807D01*
Y285950D01*
X126912D01*
Y285635D01*
X127437D01*
Y285425D01*
X127752D01*
Y285320D01*
X127857D01*
Y285215D01*
X127962D01*
Y285110D01*
X128067D01*
Y284690D01*
X128172D01*
Y284480D01*
X128067D01*
Y284375D01*
X127122D01*
Y284480D01*
X126597D01*
Y284690D01*
X126282D01*
Y284795D01*
X126177D01*
Y284900D01*
X126072D01*
Y285005D01*
X125967D01*
Y285110D01*
X125862D01*
Y285425D01*
X125547D01*
Y285845D01*
X125442D01*
Y285950D01*
X125337D01*
Y287210D01*
X125547D01*
Y287630D01*
X125652D01*
Y287840D01*
X125862D01*
Y288155D01*
X126177D01*
Y288260D01*
X126282D01*
Y288470D01*
X126597D01*
Y288575D01*
X126702D01*
Y288680D01*
X126807D01*
Y288785D01*
X130587D01*
Y288575D01*
D02*
G37*
G36*
X130062Y282800D02*
X130692D01*
Y282590D01*
X131007D01*
Y282485D01*
X131217D01*
Y282275D01*
X131322D01*
Y282170D01*
X131532D01*
Y281855D01*
X131637D01*
Y281435D01*
X131742D01*
Y281330D01*
X131847D01*
Y281015D01*
X131952D01*
Y280280D01*
X131847D01*
Y279965D01*
X131742D01*
Y279860D01*
X131637D01*
Y279440D01*
X131532D01*
Y279335D01*
X131427D01*
Y279230D01*
X131322D01*
Y279125D01*
X131217D01*
Y278810D01*
X130902D01*
Y278705D01*
X130587D01*
Y278495D01*
X130062D01*
Y278390D01*
X125862D01*
Y278600D01*
X125757D01*
Y278705D01*
X125652D01*
Y278810D01*
X125547D01*
Y279125D01*
X125337D01*
Y279440D01*
X125442D01*
Y279545D01*
X125547D01*
Y279650D01*
X130272D01*
Y279965D01*
X130587D01*
Y280280D01*
X130692D01*
Y281015D01*
X130587D01*
Y281330D01*
X130377D01*
Y281540D01*
X130062D01*
Y281645D01*
X129957D01*
Y281855D01*
X125862D01*
Y281960D01*
X125652D01*
Y282170D01*
X125547D01*
Y282590D01*
X125337D01*
Y282800D01*
X125547D01*
Y282905D01*
X130062D01*
Y282800D01*
D02*
G37*
G36*
X153372Y283325D02*
X153477D01*
Y283220D01*
X153582D01*
Y283115D01*
X153687D01*
Y282800D01*
X153897D01*
Y280280D01*
X154002D01*
Y278705D01*
X154212D01*
Y277550D01*
X154632D01*
Y277445D01*
X154842D01*
Y277235D01*
X155262D01*
Y277130D01*
X155787D01*
Y276920D01*
X155892D01*
Y276815D01*
X156522D01*
Y276605D01*
X156837D01*
Y276500D01*
X157047D01*
Y276290D01*
X157152D01*
Y276185D01*
X157467D01*
Y276290D01*
X157572D01*
Y276395D01*
X157677D01*
Y276500D01*
X157782D01*
Y276605D01*
X157887D01*
Y276710D01*
X157992D01*
Y276815D01*
X158097D01*
Y276920D01*
X158412D01*
Y277130D01*
X158622D01*
Y277235D01*
X158937D01*
Y277445D01*
X159042D01*
Y277760D01*
X159252D01*
Y277865D01*
X159567D01*
Y278075D01*
X159882D01*
Y278180D01*
X159987D01*
Y278390D01*
X160197D01*
Y278495D01*
X160302D01*
Y278705D01*
X160512D01*
Y278810D01*
X160827D01*
Y279020D01*
X160932D01*
Y279125D01*
X161037D01*
Y279230D01*
X161142D01*
Y279335D01*
X161247D01*
Y279440D01*
X161352D01*
Y279545D01*
X161457D01*
Y279650D01*
X161772D01*
Y279755D01*
X162087D01*
Y279650D01*
X162192D01*
Y279545D01*
X162297D01*
Y279440D01*
X162402D01*
Y279335D01*
X162507D01*
Y279230D01*
X162612D01*
Y279125D01*
X162717D01*
Y279020D01*
X162822D01*
Y278915D01*
X162927D01*
Y278810D01*
X163032D01*
Y278705D01*
X163347D01*
Y278390D01*
X163452D01*
Y278285D01*
X163557D01*
Y278180D01*
X163662D01*
Y278075D01*
X163767D01*
Y277970D01*
X163872D01*
Y277865D01*
X163977D01*
Y277760D01*
X164292D01*
Y277550D01*
X164397D01*
Y277445D01*
X164607D01*
Y277130D01*
X164712D01*
Y277025D01*
X164817D01*
Y276920D01*
X164922D01*
Y276815D01*
X165027D01*
Y276710D01*
X165132D01*
Y276605D01*
X165237D01*
Y276500D01*
X165342D01*
Y276185D01*
X165447D01*
Y276080D01*
X165342D01*
Y275660D01*
X165027D01*
Y275345D01*
X164922D01*
Y275240D01*
X164817D01*
Y275135D01*
X164712D01*
Y275030D01*
X164607D01*
Y274610D01*
X164502D01*
Y274505D01*
X164397D01*
Y274400D01*
X164082D01*
Y274295D01*
X163977D01*
Y274085D01*
X163767D01*
Y273980D01*
X163662D01*
Y273665D01*
X163557D01*
Y273560D01*
X163452D01*
Y273350D01*
X163347D01*
Y273140D01*
X163137D01*
Y273035D01*
X163032D01*
Y272825D01*
X162822D01*
Y272720D01*
X162717D01*
Y272510D01*
X162507D01*
Y272405D01*
X162402D01*
Y271880D01*
X162192D01*
Y271775D01*
X162087D01*
Y271250D01*
X162192D01*
Y271145D01*
X162402D01*
Y270620D01*
X162507D01*
Y270410D01*
X162612D01*
Y270305D01*
X162717D01*
Y269885D01*
X162822D01*
Y269570D01*
X163032D01*
Y268940D01*
X163137D01*
Y268415D01*
X164397D01*
Y268310D01*
X164712D01*
Y268415D01*
X165237D01*
Y268310D01*
X166497D01*
Y268100D01*
X167442D01*
Y267995D01*
X168072D01*
Y268100D01*
X168492D01*
Y267995D01*
X168807D01*
Y267890D01*
X168912D01*
Y267785D01*
X169017D01*
Y267680D01*
X169122D01*
Y262955D01*
X169017D01*
Y262640D01*
X168702D01*
Y262430D01*
X168072D01*
Y262640D01*
X167757D01*
Y262430D01*
X167232D01*
Y262325D01*
X167127D01*
Y262430D01*
X166497D01*
Y262325D01*
X165237D01*
Y262115D01*
X164082D01*
Y262010D01*
X163767D01*
Y262115D01*
X163347D01*
Y262010D01*
X163242D01*
Y261905D01*
X163137D01*
Y261485D01*
X163032D01*
Y260855D01*
X162822D01*
Y260540D01*
X162717D01*
Y260225D01*
X162507D01*
Y259805D01*
X162402D01*
Y259280D01*
X162192D01*
Y259175D01*
X162087D01*
Y258860D01*
X162192D01*
Y258755D01*
X162297D01*
Y258650D01*
X162402D01*
Y258230D01*
X162507D01*
Y258125D01*
X162612D01*
Y258020D01*
X162717D01*
Y257915D01*
X162822D01*
Y257600D01*
X163032D01*
Y257390D01*
X163347D01*
Y257075D01*
X163452D01*
Y256865D01*
X163557D01*
Y256760D01*
X163662D01*
Y256655D01*
X163767D01*
Y256550D01*
X163872D01*
Y256445D01*
X163977D01*
Y256340D01*
X164082D01*
Y256235D01*
X164187D01*
Y256130D01*
X164292D01*
Y256025D01*
X164397D01*
Y255920D01*
X164502D01*
Y255815D01*
X164607D01*
Y255500D01*
X164712D01*
Y255290D01*
X164817D01*
Y255185D01*
X164922D01*
Y255080D01*
X165027D01*
Y254975D01*
X165132D01*
Y254870D01*
X165237D01*
Y254765D01*
X165342D01*
Y254450D01*
X165447D01*
Y254345D01*
X165342D01*
Y254135D01*
X165237D01*
Y253925D01*
X165027D01*
Y253820D01*
X164922D01*
Y253610D01*
X164712D01*
Y253505D01*
X164607D01*
Y253190D01*
X164502D01*
Y253085D01*
X164397D01*
Y252980D01*
X164082D01*
Y252875D01*
X163977D01*
Y252665D01*
X163767D01*
Y252560D01*
X163662D01*
Y252350D01*
X163452D01*
Y252035D01*
X163347D01*
Y251930D01*
X163242D01*
Y251825D01*
X163137D01*
Y251720D01*
X162822D01*
Y251405D01*
X162507D01*
Y251300D01*
X162402D01*
Y250985D01*
X162297D01*
Y250880D01*
X162192D01*
Y250775D01*
X161562D01*
Y250985D01*
X161247D01*
Y251300D01*
X161142D01*
Y251405D01*
X160932D01*
Y251615D01*
X160617D01*
Y251720D01*
X160302D01*
Y251930D01*
X160197D01*
Y252245D01*
X159882D01*
Y252350D01*
X159672D01*
Y252560D01*
X159357D01*
Y252665D01*
X159252D01*
Y252770D01*
X159147D01*
Y252875D01*
X159042D01*
Y252980D01*
X158937D01*
Y253085D01*
X158832D01*
Y253190D01*
X158727D01*
Y253295D01*
X158622D01*
Y253505D01*
X158307D01*
Y253610D01*
X158097D01*
Y253820D01*
X157992D01*
Y253925D01*
X157782D01*
Y254135D01*
X157677D01*
Y254240D01*
X157047D01*
Y254135D01*
X156942D01*
Y254030D01*
X156837D01*
Y253925D01*
X156732D01*
Y253820D01*
X156102D01*
Y253610D01*
X155787D01*
Y253505D01*
X155682D01*
Y253400D01*
X155577D01*
Y253295D01*
X154947D01*
Y253190D01*
X154527D01*
Y252980D01*
X154212D01*
Y251930D01*
X154002D01*
Y251615D01*
X154107D01*
Y251510D01*
X154002D01*
Y250355D01*
X153897D01*
Y247835D01*
X153792D01*
Y247730D01*
X153687D01*
Y247310D01*
X153582D01*
Y247205D01*
X148542D01*
Y247310D01*
X148332D01*
Y247835D01*
X148227D01*
Y249935D01*
X148122D01*
Y250040D01*
X148227D01*
Y250355D01*
X148017D01*
Y251930D01*
X147912D01*
Y252980D01*
X147597D01*
Y253190D01*
X147072D01*
Y253295D01*
X146442D01*
Y253505D01*
X146127D01*
Y253610D01*
X146022D01*
Y253820D01*
X145392D01*
Y253925D01*
X145182D01*
Y254135D01*
X145077D01*
Y254240D01*
X144447D01*
Y254135D01*
X144342D01*
Y254030D01*
X144237D01*
Y253925D01*
X144132D01*
Y253820D01*
X144027D01*
Y253715D01*
X143922D01*
Y253610D01*
X143817D01*
Y253505D01*
X143502D01*
Y253295D01*
X143292D01*
Y253190D01*
X142977D01*
Y252875D01*
X142872D01*
Y252665D01*
X142662D01*
Y252560D01*
X142347D01*
Y252350D01*
X142032D01*
Y252245D01*
X141927D01*
Y251930D01*
X141822D01*
Y251825D01*
X141717D01*
Y251720D01*
X141402D01*
Y251615D01*
X141087D01*
Y251405D01*
X140982D01*
Y251300D01*
X140877D01*
Y251195D01*
X140772D01*
Y250985D01*
X140457D01*
Y250775D01*
X140037D01*
Y250985D01*
X139722D01*
Y251090D01*
X139512D01*
Y251405D01*
X139197D01*
Y251720D01*
X138882D01*
Y251930D01*
X138777D01*
Y252035D01*
X138567D01*
Y252350D01*
X138462D01*
Y252560D01*
X138147D01*
Y252875D01*
X137832D01*
Y252980D01*
X137622D01*
Y253190D01*
X137517D01*
Y253295D01*
X137307D01*
Y253610D01*
X136992D01*
Y253925D01*
X136677D01*
Y254240D01*
X136572D01*
Y254555D01*
X136677D01*
Y254870D01*
X136782D01*
Y254975D01*
X136887D01*
Y255080D01*
X136992D01*
Y255185D01*
X137097D01*
Y255290D01*
X137202D01*
Y255395D01*
X137307D01*
Y255500D01*
X137412D01*
Y255605D01*
X137517D01*
Y255815D01*
X137622D01*
Y256025D01*
X137832D01*
Y256130D01*
X137937D01*
Y256340D01*
X138147D01*
Y256445D01*
X138252D01*
Y256760D01*
X138357D01*
Y256865D01*
X138462D01*
Y256970D01*
X138567D01*
Y257285D01*
X138777D01*
Y257390D01*
X138882D01*
Y257600D01*
X139092D01*
Y257705D01*
X139197D01*
Y257915D01*
X139407D01*
Y258020D01*
X139512D01*
Y258230D01*
X139722D01*
Y258650D01*
X139827D01*
Y258860D01*
X140037D01*
Y259175D01*
X139827D01*
Y259280D01*
X139722D01*
Y259700D01*
X139617D01*
Y259805D01*
X139512D01*
Y260225D01*
X139407D01*
Y260330D01*
X139302D01*
Y260435D01*
X139197D01*
Y260855D01*
X139302D01*
Y260960D01*
X139407D01*
Y261065D01*
X139512D01*
Y261170D01*
X139827D01*
Y261380D01*
X140037D01*
Y261485D01*
X140667D01*
Y261695D01*
X140982D01*
Y261800D01*
X141402D01*
Y262010D01*
X141927D01*
Y262115D01*
X142032D01*
Y262325D01*
X142557D01*
Y262430D01*
X142977D01*
Y262640D01*
X143187D01*
Y262745D01*
X143817D01*
Y262955D01*
X144132D01*
Y263060D01*
X144237D01*
Y263270D01*
X144867D01*
Y263375D01*
X145182D01*
Y263585D01*
X145497D01*
Y263690D01*
X146127D01*
Y263585D01*
X146337D01*
Y263375D01*
X146442D01*
Y263165D01*
X146547D01*
Y263060D01*
X146652D01*
Y262745D01*
X146757D01*
Y262640D01*
X146967D01*
Y262430D01*
X147072D01*
Y262325D01*
X147282D01*
Y262010D01*
X147387D01*
Y261695D01*
X147597D01*
Y261485D01*
X148017D01*
Y261380D01*
X148227D01*
Y261170D01*
X148332D01*
Y261065D01*
X148542D01*
Y260855D01*
X148962D01*
Y260750D01*
X149277D01*
Y260540D01*
X149592D01*
Y260435D01*
X150432D01*
Y260225D01*
X150747D01*
Y260435D01*
X151167D01*
Y260225D01*
X151482D01*
Y260435D01*
X152112D01*
Y260540D01*
X152742D01*
Y260750D01*
X152952D01*
Y260855D01*
X153372D01*
Y261065D01*
X153687D01*
Y261170D01*
X153792D01*
Y261275D01*
X153897D01*
Y261380D01*
X154002D01*
Y261485D01*
X154317D01*
Y261695D01*
X154527D01*
Y261800D01*
X154632D01*
Y262115D01*
X154737D01*
Y262220D01*
X154842D01*
Y262325D01*
X154947D01*
Y262430D01*
X155052D01*
Y262535D01*
X155157D01*
Y262640D01*
X155262D01*
Y262955D01*
X155472D01*
Y263270D01*
X155577D01*
Y263585D01*
X155787D01*
Y264530D01*
X155892D01*
Y266105D01*
X155787D01*
Y266840D01*
X155577D01*
Y267365D01*
X155472D01*
Y267575D01*
X155367D01*
Y267680D01*
X155262D01*
Y267995D01*
X155157D01*
Y268100D01*
X154842D01*
Y268415D01*
X154632D01*
Y268730D01*
X154527D01*
Y268835D01*
X154422D01*
Y268940D01*
X154317D01*
Y269045D01*
X154002D01*
Y269255D01*
X153897D01*
Y269360D01*
X153687D01*
Y269570D01*
X153372D01*
Y269675D01*
X152952D01*
Y269885D01*
X152637D01*
Y269990D01*
X151797D01*
Y270200D01*
X150222D01*
Y269990D01*
X149487D01*
Y269885D01*
X149172D01*
Y269675D01*
X148647D01*
Y269570D01*
X148332D01*
Y269360D01*
X148227D01*
Y269255D01*
X148122D01*
Y269150D01*
X148017D01*
Y269045D01*
X147702D01*
Y268940D01*
X147597D01*
Y268730D01*
X147387D01*
Y268625D01*
X147282D01*
Y268310D01*
X147177D01*
Y268205D01*
X147072D01*
Y268100D01*
X146967D01*
Y267995D01*
X146862D01*
Y267890D01*
X146757D01*
Y267785D01*
X146652D01*
Y267470D01*
X146442D01*
Y267155D01*
X146337D01*
Y267050D01*
X146232D01*
Y266945D01*
X146127D01*
Y266840D01*
X145392D01*
Y266945D01*
X145287D01*
Y267050D01*
X145182D01*
Y267155D01*
X144867D01*
Y267365D01*
X144237D01*
Y267470D01*
X144132D01*
Y267680D01*
X143607D01*
Y267785D01*
X143187D01*
Y267890D01*
X143082D01*
Y267995D01*
X142977D01*
Y268100D01*
X142557D01*
Y268310D01*
X142032D01*
Y268415D01*
X141717D01*
Y268625D01*
X141297D01*
Y268730D01*
X140982D01*
Y268940D01*
X140667D01*
Y269045D01*
X140142D01*
Y269255D01*
X139722D01*
Y269360D01*
X139407D01*
Y269675D01*
X139197D01*
Y269990D01*
X139302D01*
Y270095D01*
X139407D01*
Y270305D01*
X139512D01*
Y270620D01*
X139617D01*
Y270725D01*
X139722D01*
Y271250D01*
X139827D01*
Y271460D01*
X140037D01*
Y271775D01*
X139827D01*
Y271880D01*
X139722D01*
Y272195D01*
X139512D01*
Y272510D01*
X139407D01*
Y272615D01*
X139302D01*
Y272720D01*
X139197D01*
Y272825D01*
X139092D01*
Y272930D01*
X138987D01*
Y273035D01*
X138882D01*
Y273140D01*
X138777D01*
Y273245D01*
X138672D01*
Y273350D01*
X138567D01*
Y273665D01*
X138462D01*
Y273770D01*
X138252D01*
Y273980D01*
X138147D01*
Y274190D01*
X138042D01*
Y274295D01*
X137937D01*
Y274400D01*
X137622D01*
Y274610D01*
X137517D01*
Y274820D01*
X137412D01*
Y274925D01*
X137307D01*
Y275240D01*
X137202D01*
Y275345D01*
X136992D01*
Y275555D01*
X136887D01*
Y275660D01*
X136677D01*
Y275975D01*
X136572D01*
Y276290D01*
X136677D01*
Y276500D01*
X136887D01*
Y276605D01*
X136992D01*
Y276815D01*
X137202D01*
Y276920D01*
X137307D01*
Y277130D01*
X137517D01*
Y277445D01*
X137622D01*
Y277550D01*
X137727D01*
Y277655D01*
X137832D01*
Y277760D01*
X138147D01*
Y277865D01*
X138252D01*
Y278075D01*
X138462D01*
Y278180D01*
X138567D01*
Y278495D01*
X138672D01*
Y278600D01*
X138777D01*
Y278705D01*
X138882D01*
Y278810D01*
X139197D01*
Y279020D01*
X139407D01*
Y279125D01*
X139512D01*
Y279335D01*
X139722D01*
Y279440D01*
X139827D01*
Y279650D01*
X140037D01*
Y279755D01*
X140352D01*
Y279650D01*
X140667D01*
Y279440D01*
X140772D01*
Y279335D01*
X140982D01*
Y279125D01*
X141087D01*
Y279020D01*
X141297D01*
Y278810D01*
X141612D01*
Y278705D01*
X141717D01*
Y278600D01*
X141822D01*
Y278495D01*
X141927D01*
Y278390D01*
X142032D01*
Y278285D01*
X142137D01*
Y278180D01*
X142242D01*
Y278075D01*
X142557D01*
Y277865D01*
X142872D01*
Y277760D01*
X142977D01*
Y277445D01*
X143187D01*
Y277235D01*
X143502D01*
Y277130D01*
X143607D01*
Y276920D01*
X143922D01*
Y276815D01*
X144132D01*
Y276500D01*
X144447D01*
Y276290D01*
X144552D01*
Y276185D01*
X144867D01*
Y276290D01*
X144972D01*
Y276395D01*
X145077D01*
Y276500D01*
X145182D01*
Y276605D01*
X145497D01*
Y276815D01*
X146022D01*
Y276920D01*
X146337D01*
Y277130D01*
X146652D01*
Y277235D01*
X147282D01*
Y277445D01*
X147387D01*
Y277550D01*
X147912D01*
Y278705D01*
X148017D01*
Y280280D01*
X148227D01*
Y282800D01*
X148332D01*
Y283115D01*
X148542D01*
Y283220D01*
X148647D01*
Y283430D01*
X153372D01*
Y283325D01*
D02*
G37*
G36*
X133212Y273245D02*
X133317D01*
Y273140D01*
X133422D01*
Y273035D01*
X133527D01*
Y272510D01*
X133422D01*
Y272405D01*
X131322D01*
Y271775D01*
X131532D01*
Y270620D01*
X131322D01*
Y270200D01*
X131217D01*
Y269990D01*
X131007D01*
Y269885D01*
X130902D01*
Y269570D01*
X130587D01*
Y269360D01*
X130377D01*
Y269255D01*
X125547D01*
Y269465D01*
X125442D01*
Y269570D01*
X125337D01*
Y269990D01*
X129957D01*
Y270200D01*
X130272D01*
Y270305D01*
X130377D01*
Y270515D01*
X130587D01*
Y271670D01*
X130482D01*
Y271775D01*
X130377D01*
Y272090D01*
X130272D01*
Y272195D01*
X129957D01*
Y272405D01*
X125862D01*
Y272510D01*
X125547D01*
Y272825D01*
X125337D01*
Y273350D01*
X133212D01*
Y273245D01*
D02*
G37*
G36*
X130272Y267470D02*
X130377D01*
Y267365D01*
X130692D01*
Y267260D01*
X130797D01*
Y267155D01*
X130902D01*
Y267050D01*
X131007D01*
Y266945D01*
X131112D01*
Y266840D01*
X131217D01*
Y266525D01*
X131322D01*
Y266315D01*
X131427D01*
Y266210D01*
X131532D01*
Y265160D01*
X131427D01*
Y265055D01*
X131322D01*
Y264635D01*
X131217D01*
Y264320D01*
X131007D01*
Y264215D01*
X130902D01*
Y264005D01*
X130692D01*
Y263900D01*
X130587D01*
Y263690D01*
X129957D01*
Y263585D01*
X125547D01*
Y263795D01*
X125442D01*
Y263900D01*
X125337D01*
Y264320D01*
X128067D01*
Y264530D01*
X128382D01*
Y264845D01*
X128172D01*
Y265160D01*
X128067D01*
Y265370D01*
X127962D01*
Y265475D01*
X127857D01*
Y265895D01*
X127752D01*
Y266000D01*
X127647D01*
Y266105D01*
X127542D01*
Y266525D01*
X127227D01*
Y266735D01*
X127122D01*
Y266840D01*
X126807D01*
Y266735D01*
X126492D01*
Y266525D01*
X126177D01*
Y265160D01*
X125862D01*
Y264950D01*
X125337D01*
Y265475D01*
X125232D01*
Y266210D01*
X125337D01*
Y266735D01*
X125547D01*
Y267050D01*
X125652D01*
Y267155D01*
X125757D01*
Y267260D01*
X125862D01*
Y267365D01*
X125967D01*
Y267470D01*
X126072D01*
Y267575D01*
X126177D01*
Y267680D01*
X127752D01*
Y267470D01*
X127857D01*
Y267365D01*
X128067D01*
Y267050D01*
X128382D01*
Y266525D01*
X128487D01*
Y266315D01*
X128592D01*
Y266210D01*
X128697D01*
Y265895D01*
X128802D01*
Y265370D01*
X128907D01*
Y265265D01*
X129012D01*
Y265160D01*
X129117D01*
Y264740D01*
X129222D01*
Y264635D01*
X129327D01*
Y264530D01*
X130062D01*
Y264635D01*
X130167D01*
Y264740D01*
X130272D01*
Y264845D01*
X130377D01*
Y264950D01*
X130482D01*
Y265055D01*
X130587D01*
Y265475D01*
X130692D01*
Y265790D01*
X130587D01*
Y266210D01*
X130377D01*
Y266420D01*
X130272D01*
Y266525D01*
X130062D01*
Y266735D01*
X129747D01*
Y266840D01*
X129327D01*
Y266945D01*
X129222D01*
Y267050D01*
X129117D01*
Y267470D01*
X129012D01*
Y267680D01*
X130272D01*
Y267470D01*
D02*
G37*
G36*
X129957Y262010D02*
X130377D01*
Y261800D01*
X130692D01*
Y261695D01*
X130902D01*
Y261485D01*
X131007D01*
Y261275D01*
X131112D01*
Y261170D01*
X131217D01*
Y261065D01*
X131322D01*
Y260645D01*
X131427D01*
Y260540D01*
X131532D01*
Y259490D01*
X131427D01*
Y259385D01*
X131322D01*
Y259175D01*
X131217D01*
Y258860D01*
X131112D01*
Y258755D01*
X131007D01*
Y258545D01*
X130692D01*
Y258335D01*
X130587D01*
Y258230D01*
X130272D01*
Y258020D01*
X129327D01*
Y258125D01*
X129222D01*
Y258230D01*
X129117D01*
Y258860D01*
X129957D01*
Y258965D01*
X130062D01*
Y259175D01*
X130272D01*
Y259280D01*
X130587D01*
Y260750D01*
X130272D01*
Y261065D01*
X129957D01*
Y261170D01*
X125652D01*
Y261380D01*
X125547D01*
Y261590D01*
X125442D01*
Y261695D01*
X125337D01*
Y262115D01*
X129957D01*
Y262010D01*
D02*
G37*
G36*
X129642Y256445D02*
X130272D01*
Y256340D01*
X130377D01*
Y256130D01*
X130692D01*
Y256025D01*
X130902D01*
Y255815D01*
X131007D01*
Y255710D01*
X131217D01*
Y255500D01*
X131322D01*
Y255080D01*
X131532D01*
Y253820D01*
X131427D01*
Y253715D01*
X131322D01*
Y253295D01*
X133212D01*
Y253190D01*
X133422D01*
Y252875D01*
X133527D01*
Y252350D01*
X126807D01*
Y252560D01*
X126177D01*
Y252875D01*
X125862D01*
Y253085D01*
X125757D01*
Y253190D01*
X125652D01*
Y253295D01*
X125547D01*
Y253400D01*
X125442D01*
Y253505D01*
X125337D01*
Y254240D01*
X125232D01*
Y254450D01*
X125337D01*
Y255395D01*
X125547D01*
Y255710D01*
X125862D01*
Y256025D01*
X125967D01*
Y256130D01*
X126282D01*
Y256340D01*
X126492D01*
Y256445D01*
X127122D01*
Y256655D01*
X129642D01*
Y256445D01*
D02*
G37*
G36*
X131217Y251090D02*
X131322D01*
Y250670D01*
X126807D01*
Y250460D01*
X126492D01*
Y250355D01*
X126177D01*
Y249515D01*
X126492D01*
Y249410D01*
X128697D01*
Y249200D01*
X131217D01*
Y248885D01*
X131322D01*
Y248465D01*
X126597D01*
Y248255D01*
X126282D01*
Y248150D01*
X126177D01*
Y247520D01*
X126282D01*
Y247310D01*
X126597D01*
Y247205D01*
X126912D01*
Y246995D01*
X131217D01*
Y246680D01*
X131322D01*
Y246260D01*
X126177D01*
Y246575D01*
X125862D01*
Y246680D01*
X125652D01*
Y246890D01*
X125547D01*
Y246995D01*
X125337D01*
Y247520D01*
X125232D01*
Y247625D01*
X125337D01*
Y248570D01*
X125442D01*
Y248675D01*
X125547D01*
Y249200D01*
X125337D01*
Y249830D01*
X125232D01*
Y250145D01*
X125337D01*
Y250670D01*
X125547D01*
Y250985D01*
X125862D01*
Y251090D01*
X125967D01*
Y251300D01*
X126177D01*
Y251405D01*
X131217D01*
Y251090D01*
D02*
G37*
G36*
X129747Y245315D02*
X130062D01*
Y245105D01*
X130587D01*
Y244790D01*
X130902D01*
Y244685D01*
X131007D01*
Y244580D01*
X131112D01*
Y244475D01*
X131217D01*
Y244160D01*
X131322D01*
Y243950D01*
X131427D01*
Y243845D01*
X131532D01*
Y242795D01*
X131427D01*
Y242690D01*
X131322D01*
Y242270D01*
X131217D01*
Y241955D01*
X131007D01*
Y241850D01*
X130902D01*
Y241640D01*
X130692D01*
Y241535D01*
X130587D01*
Y241325D01*
X130062D01*
Y241220D01*
X125652D01*
Y241325D01*
X125547D01*
Y241430D01*
X125442D01*
Y241535D01*
X125337D01*
Y241955D01*
X128172D01*
Y242165D01*
X128382D01*
Y242480D01*
X128172D01*
Y242795D01*
X128067D01*
Y243005D01*
X127962D01*
Y243110D01*
X127857D01*
Y243530D01*
X127752D01*
Y243635D01*
X127647D01*
Y243740D01*
X127542D01*
Y244160D01*
X127437D01*
Y244370D01*
X126492D01*
Y244160D01*
X126282D01*
Y244055D01*
X126177D01*
Y242795D01*
X126072D01*
Y242690D01*
X125967D01*
Y242585D01*
X125337D01*
Y243215D01*
X125232D01*
Y243740D01*
X125337D01*
Y244370D01*
X125547D01*
Y244685D01*
X125862D01*
Y245000D01*
X125967D01*
Y245105D01*
X126072D01*
Y245210D01*
X126177D01*
Y245315D01*
X126492D01*
Y245420D01*
X127437D01*
Y245315D01*
X127542D01*
Y245105D01*
X127857D01*
Y245000D01*
X128067D01*
Y244685D01*
X128382D01*
Y244160D01*
X128487D01*
Y243950D01*
X128592D01*
Y243845D01*
X128697D01*
Y243530D01*
X128802D01*
Y243005D01*
X128907D01*
Y242900D01*
X129012D01*
Y242795D01*
X129117D01*
Y242375D01*
X129222D01*
Y242270D01*
X129327D01*
Y242165D01*
X130062D01*
Y242270D01*
X130167D01*
Y242375D01*
X130272D01*
Y242480D01*
X130377D01*
Y242585D01*
X130482D01*
Y242690D01*
X130587D01*
Y243845D01*
X130377D01*
Y244055D01*
X130272D01*
Y244160D01*
X130062D01*
Y244370D01*
X129642D01*
Y244475D01*
X129432D01*
Y244685D01*
X129117D01*
Y245105D01*
X129012D01*
Y245315D01*
X129117D01*
Y245420D01*
X129747D01*
Y245315D01*
D02*
G37*
G36*
X129957Y239645D02*
X130272D01*
Y239435D01*
X130587D01*
Y239330D01*
X130692D01*
Y239120D01*
X131007D01*
Y238910D01*
X131112D01*
Y238805D01*
X131217D01*
Y238700D01*
X131322D01*
Y238385D01*
X131532D01*
Y237125D01*
X131427D01*
Y237020D01*
X131322D01*
Y236600D01*
X131217D01*
Y236495D01*
X131112D01*
Y236390D01*
X131007D01*
Y236180D01*
X130692D01*
Y235970D01*
X130587D01*
Y235865D01*
X130272D01*
Y235655D01*
X129957D01*
Y235550D01*
X129432D01*
Y235655D01*
X129327D01*
Y235760D01*
X129222D01*
Y235865D01*
X129117D01*
Y236495D01*
X129957D01*
Y236600D01*
X130272D01*
Y236915D01*
X130587D01*
Y238385D01*
X130272D01*
Y238700D01*
X129957D01*
Y238805D01*
X129642D01*
Y239015D01*
X125547D01*
Y239225D01*
X125442D01*
Y239330D01*
X125337D01*
Y239750D01*
X129957D01*
Y239645D01*
D02*
G37*
G36*
X129747Y234080D02*
X130062D01*
Y233975D01*
X130587D01*
Y233765D01*
X130692D01*
Y233660D01*
X130902D01*
Y233450D01*
X131007D01*
Y233345D01*
X131217D01*
Y233030D01*
X131322D01*
Y232715D01*
X131532D01*
Y231560D01*
X131322D01*
Y231140D01*
X131217D01*
Y230930D01*
X131007D01*
Y230615D01*
X130902D01*
Y230510D01*
X130797D01*
Y230405D01*
X130692D01*
Y230300D01*
X130377D01*
Y230195D01*
X130062D01*
Y229985D01*
X128802D01*
Y230300D01*
X128697D01*
Y230615D01*
X128487D01*
Y230930D01*
X128382D01*
Y231245D01*
X128172D01*
Y231770D01*
X128067D01*
Y231980D01*
X127962D01*
Y232085D01*
X127857D01*
Y232505D01*
X127752D01*
Y232610D01*
X127647D01*
Y232715D01*
X127542D01*
Y233135D01*
X126597D01*
Y233030D01*
X126492D01*
Y232820D01*
X126282D01*
Y232715D01*
X126177D01*
Y231455D01*
X126282D01*
Y231350D01*
X126387D01*
Y231245D01*
X126492D01*
Y231140D01*
X126807D01*
Y230930D01*
X127122D01*
Y230825D01*
X127542D01*
Y230405D01*
X127647D01*
Y230300D01*
X127752D01*
Y229985D01*
X126912D01*
Y230195D01*
X126492D01*
Y230300D01*
X126177D01*
Y230405D01*
X126072D01*
Y230510D01*
X125967D01*
Y230615D01*
X125862D01*
Y230720D01*
X125757D01*
Y230825D01*
X125652D01*
Y230930D01*
X125547D01*
Y231035D01*
X125442D01*
Y231140D01*
X125337D01*
Y231770D01*
X125232D01*
Y232505D01*
X125337D01*
Y233030D01*
X125547D01*
Y233345D01*
X125652D01*
Y233450D01*
X125757D01*
Y233555D01*
X125862D01*
Y233660D01*
X125967D01*
Y233765D01*
X126072D01*
Y233870D01*
X126177D01*
Y233975D01*
X126597D01*
Y234080D01*
X126912D01*
Y234290D01*
X129747D01*
Y234080D01*
D02*
G37*
G36*
X191992Y225125D02*
X192267D01*
Y224987D01*
X192543D01*
Y224849D01*
X192818D01*
Y224711D01*
X193232D01*
Y224574D01*
X193507D01*
Y224436D01*
X194058D01*
Y224298D01*
X194334D01*
Y224160D01*
X194609D01*
Y224023D01*
X195023D01*
Y223885D01*
X195298D01*
Y223747D01*
X195574D01*
Y223609D01*
X196125D01*
Y223472D01*
X196400D01*
Y223334D01*
X196813D01*
Y223196D01*
X196951D01*
Y223058D01*
X197364D01*
Y222920D01*
X197640D01*
Y222783D01*
X197915D01*
Y222645D01*
X198604D01*
Y222507D01*
X198742D01*
Y222369D01*
X199155D01*
Y222232D01*
X199431D01*
Y222094D01*
X199706D01*
Y221956D01*
X199982D01*
Y221819D01*
X200533D01*
Y221681D01*
X200808D01*
Y221543D01*
X201222D01*
Y221405D01*
X201497D01*
Y221267D01*
X201773D01*
Y221130D01*
X202048D01*
Y220992D01*
X202599D01*
Y220854D01*
X203012D01*
Y220716D01*
X203150D01*
Y220579D01*
X203563D01*
Y220441D01*
X203839D01*
Y220303D01*
X204114D01*
Y220165D01*
X204528D01*
Y220028D01*
X204941D01*
Y219890D01*
X205354D01*
Y219752D01*
X205630D01*
Y219614D01*
X205905D01*
Y219477D01*
X206181D01*
Y219339D01*
X206594D01*
Y219201D01*
X207145D01*
Y219063D01*
X207421D01*
Y218925D01*
X207696D01*
Y218788D01*
X207834D01*
Y218650D01*
X207972D01*
Y218512D01*
X208109D01*
Y218237D01*
X208247D01*
Y216033D01*
X208109D01*
Y215619D01*
X207972D01*
Y215482D01*
X207834D01*
Y215344D01*
X207558D01*
Y215206D01*
X207283D01*
Y215068D01*
X206870D01*
Y214931D01*
X206594D01*
Y214793D01*
X205905D01*
Y214655D01*
X205630D01*
Y214517D01*
X205354D01*
Y214380D01*
X204941D01*
Y214242D01*
X204666D01*
Y214104D01*
X204390D01*
Y213966D01*
X203701D01*
Y213829D01*
X203426D01*
Y213691D01*
X203012D01*
Y213553D01*
X202737D01*
Y213415D01*
X202324D01*
Y213277D01*
X202048D01*
Y213140D01*
X201773D01*
Y213002D01*
X201084D01*
Y212864D01*
X200808D01*
Y212726D01*
X200395D01*
Y212589D01*
X200119D01*
Y212451D01*
X199844D01*
Y212313D01*
X199569D01*
Y212175D01*
X199018D01*
Y212451D01*
X198880D01*
Y212864D01*
X198742D01*
Y213140D01*
X198604D01*
Y213829D01*
X198466D01*
Y214380D01*
X198329D01*
Y214655D01*
X198191D01*
Y215068D01*
X198053D01*
Y215482D01*
X197915D01*
Y215619D01*
X198191D01*
Y215757D01*
X198880D01*
Y215895D01*
X199293D01*
Y216033D01*
X199569D01*
Y216170D01*
X199982D01*
Y216308D01*
X200257D01*
Y216446D01*
X200671D01*
Y216584D01*
X201222D01*
Y216721D01*
X201635D01*
Y216859D01*
X201773D01*
Y217135D01*
X201910D01*
Y217548D01*
X201773D01*
Y217824D01*
X201635D01*
Y217961D01*
X201359D01*
Y218099D01*
X201084D01*
Y218237D01*
X200533D01*
Y218375D01*
X200257D01*
Y218512D01*
X199844D01*
Y218650D01*
X199569D01*
Y218788D01*
X199293D01*
Y218925D01*
X199018D01*
Y219063D01*
X198604D01*
Y219201D01*
X198191D01*
Y219339D01*
X197778D01*
Y219477D01*
X197640D01*
Y219614D01*
X197227D01*
Y219752D01*
X196951D01*
Y219890D01*
X196676D01*
Y220028D01*
X195436D01*
Y219752D01*
X195298D01*
Y219201D01*
X195436D01*
Y218788D01*
X195574D01*
Y218375D01*
X195711D01*
Y218099D01*
X195849D01*
Y217686D01*
X195987D01*
Y216997D01*
X196125D01*
Y216584D01*
X196262D01*
Y216170D01*
X196400D01*
Y215757D01*
X196538D01*
Y215482D01*
X196676D01*
Y215068D01*
X196813D01*
Y214793D01*
X196951D01*
Y213966D01*
X197089D01*
Y213553D01*
X197227D01*
Y213140D01*
X197364D01*
Y212864D01*
X197502D01*
Y212451D01*
X197640D01*
Y212175D01*
X197778D01*
Y211349D01*
X197915D01*
Y211073D01*
X198053D01*
Y210660D01*
X198191D01*
Y210247D01*
X198329D01*
Y209696D01*
X198053D01*
Y209971D01*
X197915D01*
Y210109D01*
X197778D01*
Y210522D01*
X197640D01*
Y210798D01*
X197502D01*
Y210936D01*
X197364D01*
Y211211D01*
X197227D01*
Y211349D01*
X197089D01*
Y211624D01*
X196951D01*
Y211762D01*
X196813D01*
Y212175D01*
X196676D01*
Y212313D01*
X196538D01*
Y212589D01*
X196400D01*
Y212864D01*
X196262D01*
Y213002D01*
X196125D01*
Y213140D01*
X195987D01*
Y213691D01*
X195849D01*
Y213829D01*
X195711D01*
Y213966D01*
X195574D01*
Y214242D01*
X195436D01*
Y214517D01*
X195298D01*
Y214793D01*
X195160D01*
Y215068D01*
X195023D01*
Y215344D01*
X194885D01*
Y215482D01*
X194747D01*
Y215619D01*
X194609D01*
Y215895D01*
X194471D01*
Y216170D01*
X194334D01*
Y216446D01*
X194196D01*
Y216721D01*
X194058D01*
Y216997D01*
X193920D01*
Y217135D01*
X193783D01*
Y217410D01*
X193645D01*
Y217548D01*
X193507D01*
Y217824D01*
X193369D01*
Y218237D01*
X193232D01*
Y218375D01*
X193094D01*
Y218650D01*
X192956D01*
Y218788D01*
X192818D01*
Y219063D01*
X192681D01*
Y219201D01*
X192543D01*
Y219614D01*
X192405D01*
Y219890D01*
X192267D01*
Y220028D01*
X192130D01*
Y220303D01*
X191992D01*
Y220441D01*
X191854D01*
Y220716D01*
X191716D01*
Y220854D01*
X191579D01*
Y221267D01*
X191441D01*
Y221543D01*
X191303D01*
Y221819D01*
X191165D01*
Y221956D01*
X191028D01*
Y222507D01*
X190890D01*
Y224574D01*
X191028D01*
Y224987D01*
X191165D01*
Y225125D01*
X191303D01*
Y225262D01*
X191992D01*
Y225125D01*
D02*
G37*
G36*
X194058Y213966D02*
X194196D01*
Y213691D01*
X194334D01*
Y213415D01*
X194471D01*
Y213140D01*
X194609D01*
Y213002D01*
X194747D01*
Y212726D01*
X194885D01*
Y212589D01*
X195023D01*
Y212313D01*
X195160D01*
Y211900D01*
X195298D01*
Y211762D01*
X195436D01*
Y211487D01*
X195574D01*
Y211349D01*
X195711D01*
Y211073D01*
X195849D01*
Y210936D01*
X195574D01*
Y210798D01*
X195298D01*
Y210660D01*
X195023D01*
Y210522D01*
X194609D01*
Y210385D01*
X194058D01*
Y210247D01*
X193645D01*
Y210109D01*
X193369D01*
Y209971D01*
X193094D01*
Y209834D01*
X192681D01*
Y209696D01*
X192405D01*
Y209558D01*
X191716D01*
Y209420D01*
X191441D01*
Y209282D01*
X191028D01*
Y209145D01*
X190890D01*
Y212864D01*
X191028D01*
Y213140D01*
X191165D01*
Y213277D01*
X191441D01*
Y213415D01*
X191716D01*
Y213553D01*
X192130D01*
Y213691D01*
X192543D01*
Y213829D01*
X192818D01*
Y213966D01*
X193507D01*
Y214104D01*
X193920D01*
Y214242D01*
X194058D01*
Y213966D01*
D02*
G37*
G36*
X343885Y270728D02*
X344014D01*
X344162Y270719D01*
X344328Y270710D01*
X344513Y270691D01*
X344717Y270673D01*
X344920Y270654D01*
X345355Y270590D01*
X345798Y270506D01*
X346224Y270396D01*
X346233D01*
X346270Y270377D01*
X346335Y270359D01*
X346409Y270331D01*
X346501Y270294D01*
X346612Y270248D01*
X346732Y270192D01*
X346862Y270137D01*
X347148Y269989D01*
X347453Y269813D01*
X347758Y269601D01*
X348045Y269360D01*
X348054Y269351D01*
X348082Y269332D01*
X348119Y269286D01*
X348165Y269240D01*
X348230Y269166D01*
X348295Y269092D01*
X348369Y269000D01*
X348452Y268888D01*
X348544Y268768D01*
X348637Y268648D01*
X348720Y268500D01*
X348812Y268352D01*
X348905Y268195D01*
X348988Y268020D01*
X349136Y267659D01*
Y267650D01*
X349155Y267613D01*
X349173Y267557D01*
X349192Y267483D01*
X349219Y267381D01*
X349256Y267271D01*
X349284Y267132D01*
X349321Y266984D01*
X349358Y266817D01*
X349386Y266633D01*
X349423Y266439D01*
X349450Y266235D01*
X349469Y266013D01*
X349487Y265791D01*
X349506Y265551D01*
Y265163D01*
X349497Y265070D01*
Y264950D01*
X349487Y264802D01*
X349478Y264645D01*
X349460Y264478D01*
X349441Y264293D01*
X349413Y264099D01*
X349349Y263702D01*
X349256Y263286D01*
X349136Y262897D01*
Y262888D01*
X349118Y262851D01*
X349099Y262796D01*
X349071Y262731D01*
X349034Y262638D01*
X348988Y262537D01*
X348933Y262426D01*
X348868Y262306D01*
X348720Y262038D01*
X348535Y261751D01*
X348322Y261474D01*
X348082Y261205D01*
X348073Y261196D01*
X348054Y261178D01*
X348008Y261141D01*
X347962Y261094D01*
X347888Y261039D01*
X347814Y260974D01*
X347712Y260900D01*
X347611Y260826D01*
X347490Y260743D01*
X347361Y260669D01*
X347222Y260586D01*
X347065Y260503D01*
X346908Y260420D01*
X346741Y260346D01*
X346372Y260207D01*
X346362D01*
X346325Y260188D01*
X346270Y260179D01*
X346196Y260151D01*
X346094Y260133D01*
X345983Y260105D01*
X345845Y260077D01*
X345697Y260040D01*
X345530Y260013D01*
X345355Y259985D01*
X345160Y259957D01*
X344957Y259930D01*
X344744Y259911D01*
X344523Y259893D01*
X344042Y259883D01*
X344023D01*
X343977D01*
X343894D01*
X343792Y259893D01*
X343653D01*
X343506Y259902D01*
X343330Y259911D01*
X343145Y259930D01*
X342942Y259948D01*
X342738Y259967D01*
X342294Y260031D01*
X341851Y260124D01*
X341629Y260179D01*
X341416Y260244D01*
X341407D01*
X341370Y260262D01*
X341314Y260281D01*
X341231Y260309D01*
X341139Y260346D01*
X341028Y260392D01*
X340908Y260447D01*
X340778Y260503D01*
X340491Y260651D01*
X340186Y260836D01*
X339881Y261048D01*
X339595Y261298D01*
X339585Y261307D01*
X339567Y261326D01*
X339530Y261372D01*
X339474Y261418D01*
X339419Y261492D01*
X339345Y261566D01*
X339271Y261668D01*
X339188Y261769D01*
X339105Y261890D01*
X339012Y262019D01*
X338929Y262158D01*
X338837Y262315D01*
X338753Y262472D01*
X338670Y262638D01*
X338522Y263008D01*
Y263018D01*
X338504Y263055D01*
X338494Y263110D01*
X338467Y263184D01*
X338439Y263286D01*
X338411Y263397D01*
X338383Y263526D01*
X338356Y263674D01*
X338319Y263840D01*
X338291Y264016D01*
X338263Y264210D01*
X338236Y264414D01*
X338208Y264636D01*
X338199Y264858D01*
X338180Y265098D01*
Y265468D01*
X338189Y265560D01*
Y265680D01*
X338199Y265819D01*
X338208Y265976D01*
X338226Y266143D01*
X338245Y266318D01*
X338263Y266512D01*
X338328Y266910D01*
X338411Y267307D01*
X338522Y267705D01*
Y267714D01*
X338541Y267751D01*
X338559Y267807D01*
X338587Y267871D01*
X338624Y267955D01*
X338670Y268056D01*
X338716Y268167D01*
X338781Y268297D01*
X338920Y268556D01*
X339095Y268842D01*
X339299Y269120D01*
X339539Y269388D01*
X339548Y269397D01*
X339567Y269415D01*
X339613Y269452D01*
X339659Y269499D01*
X339733Y269554D01*
X339807Y269619D01*
X339900Y269693D01*
X340011Y269767D01*
X340131Y269850D01*
X340251Y269933D01*
X340399Y270016D01*
X340547Y270100D01*
X340704Y270183D01*
X340880Y270266D01*
X341240Y270405D01*
X341250D01*
X341287Y270423D01*
X341342Y270433D01*
X341425Y270460D01*
X341518Y270479D01*
X341638Y270506D01*
X341777Y270543D01*
X341925Y270571D01*
X342091Y270599D01*
X342276Y270636D01*
X342470Y270664D01*
X342683Y270682D01*
X342905Y270710D01*
X343136Y270719D01*
X343385Y270738D01*
X343635D01*
X343653D01*
X343700D01*
X343783D01*
X343885Y270728D01*
D02*
G37*
%LPC*%
G36*
X198604Y182695D02*
X197778D01*
Y178149D01*
X197915D01*
Y178011D01*
X198466D01*
Y178149D01*
X198880D01*
Y178287D01*
X199155D01*
Y178425D01*
X199293D01*
Y178563D01*
X199431D01*
Y178700D01*
X199569D01*
Y178838D01*
X199706D01*
Y178976D01*
X199844D01*
Y179114D01*
X199982D01*
Y179527D01*
X200119D01*
Y180216D01*
X200257D01*
Y180491D01*
X200119D01*
Y181180D01*
X199982D01*
Y181593D01*
X199844D01*
Y181731D01*
X199706D01*
Y181869D01*
X199569D01*
Y182006D01*
X199431D01*
Y182282D01*
X199293D01*
Y182420D01*
X198742D01*
Y182558D01*
X198604D01*
Y182695D01*
D02*
G37*
G36*
X197502Y154868D02*
X195849D01*
Y154730D01*
X195160D01*
Y154593D01*
X194747D01*
Y154455D01*
X194334D01*
Y154317D01*
X194196D01*
Y154179D01*
X193920D01*
Y154042D01*
X193783D01*
Y153904D01*
X193645D01*
Y153766D01*
X193507D01*
Y153491D01*
X193369D01*
Y152664D01*
X193232D01*
Y152389D01*
X193369D01*
Y151562D01*
X193507D01*
Y151286D01*
X193645D01*
Y151149D01*
X193783D01*
Y151011D01*
X194058D01*
Y150873D01*
X194196D01*
Y150736D01*
X194471D01*
Y150598D01*
X194609D01*
Y150460D01*
X195023D01*
Y150322D01*
X195574D01*
Y150184D01*
X197778D01*
Y150322D01*
X198329D01*
Y150460D01*
X198604D01*
Y150598D01*
X198880D01*
Y150736D01*
X199155D01*
Y150873D01*
X199293D01*
Y151011D01*
X199569D01*
Y151149D01*
X199706D01*
Y151424D01*
X199844D01*
Y151700D01*
X199982D01*
Y151975D01*
X200119D01*
Y153077D01*
X199982D01*
Y153491D01*
X199844D01*
Y153628D01*
X199706D01*
Y153766D01*
X199569D01*
Y153904D01*
X199431D01*
Y154179D01*
X199293D01*
Y154317D01*
X199018D01*
Y154455D01*
X198604D01*
Y154593D01*
X198191D01*
Y154730D01*
X197502D01*
Y154868D01*
D02*
G37*
G36*
X311568Y84879D02*
X307391D01*
Y82540D01*
X307559D01*
Y82373D01*
X307726D01*
Y82205D01*
X307893D01*
Y82038D01*
X308394D01*
Y81704D01*
X310566D01*
Y82038D01*
X310900D01*
Y82205D01*
X311401D01*
Y82874D01*
X311568D01*
Y84879D01*
D02*
G37*
G36*
X309564Y78196D02*
X307559D01*
Y78029D01*
X307391D01*
Y76191D01*
X307893D01*
Y76024D01*
X309898D01*
Y76191D01*
X310065D01*
Y77694D01*
X309898D01*
Y78029D01*
X309564D01*
Y78196D01*
D02*
G37*
G36*
X129957Y299495D02*
X127437D01*
Y299285D01*
X127122D01*
Y299180D01*
X127017D01*
Y299075D01*
X126912D01*
Y298970D01*
X126807D01*
Y298865D01*
X126702D01*
Y298760D01*
X126597D01*
Y298655D01*
X126492D01*
Y298025D01*
X126597D01*
Y297920D01*
X126807D01*
Y297710D01*
X126912D01*
Y297395D01*
X127227D01*
Y297290D01*
X129957D01*
Y297395D01*
X130272D01*
Y297605D01*
X130587D01*
Y297920D01*
X130692D01*
Y298865D01*
X130587D01*
Y299180D01*
X130272D01*
Y299285D01*
X129957D01*
Y299495D01*
D02*
G37*
G36*
X130062Y293510D02*
X127122D01*
Y293300D01*
X126912D01*
Y293195D01*
X126807D01*
Y292985D01*
X126597D01*
Y292880D01*
X126492D01*
Y292040D01*
X126597D01*
Y291935D01*
X126807D01*
Y291725D01*
X126912D01*
Y291620D01*
X127122D01*
Y291410D01*
X130272D01*
Y291620D01*
X130377D01*
Y291725D01*
X130482D01*
Y291830D01*
X130587D01*
Y292040D01*
X130692D01*
Y292880D01*
X130587D01*
Y293090D01*
X130482D01*
Y293195D01*
X130377D01*
Y293300D01*
X130062D01*
Y293510D01*
D02*
G37*
G36*
X129747Y287630D02*
X129012D01*
Y287315D01*
X129117D01*
Y286790D01*
X129222D01*
Y286685D01*
X129327D01*
Y286580D01*
X129432D01*
Y286160D01*
X129537D01*
Y286055D01*
X129642D01*
Y285635D01*
X130272D01*
Y285740D01*
X130377D01*
Y285950D01*
X130587D01*
Y286265D01*
X130692D01*
Y287000D01*
X130587D01*
Y287315D01*
X130272D01*
Y287525D01*
X129747D01*
Y287630D01*
D02*
G37*
G36*
X129957Y255710D02*
X126912D01*
Y255500D01*
X126597D01*
Y255395D01*
X126492D01*
Y255080D01*
X126177D01*
Y253820D01*
X126492D01*
Y253505D01*
X126807D01*
Y253295D01*
X130062D01*
Y253505D01*
X130272D01*
Y253610D01*
X130377D01*
Y253820D01*
X130587D01*
Y254975D01*
X130482D01*
Y255080D01*
X130377D01*
Y255185D01*
X130272D01*
Y255290D01*
X130167D01*
Y255395D01*
X130062D01*
Y255500D01*
X129957D01*
Y255710D01*
D02*
G37*
G36*
X130062Y233135D02*
X128487D01*
Y232820D01*
X128697D01*
Y232505D01*
X128802D01*
Y232085D01*
X129012D01*
Y231770D01*
X129117D01*
Y231350D01*
X129222D01*
Y231245D01*
X129327D01*
Y231140D01*
X129432D01*
Y230930D01*
X129957D01*
Y231140D01*
X130272D01*
Y231245D01*
X130377D01*
Y231455D01*
X130587D01*
Y232610D01*
X130482D01*
Y232715D01*
X130377D01*
Y232820D01*
X130272D01*
Y232925D01*
X130167D01*
Y233030D01*
X130062D01*
Y233135D01*
D02*
G37*
G36*
X343718Y269674D02*
X343709D01*
X343672D01*
X343607D01*
X343524D01*
X343422Y269665D01*
X343311D01*
X343182Y269656D01*
X343034Y269647D01*
X342886Y269628D01*
X342720Y269610D01*
X342387Y269573D01*
X342035Y269508D01*
X341703Y269425D01*
X341693D01*
X341666Y269415D01*
X341619Y269397D01*
X341564Y269379D01*
X341490Y269351D01*
X341398Y269314D01*
X341305Y269277D01*
X341203Y269231D01*
X340972Y269129D01*
X340732Y268990D01*
X340491Y268833D01*
X340260Y268648D01*
X340251Y268639D01*
X340233Y268620D01*
X340205Y268593D01*
X340168Y268547D01*
X340122Y268500D01*
X340066Y268435D01*
X340001Y268361D01*
X339937Y268278D01*
X339872Y268186D01*
X339798Y268075D01*
X339650Y267844D01*
X339511Y267576D01*
X339391Y267280D01*
Y267271D01*
X339382Y267243D01*
X339364Y267197D01*
X339345Y267132D01*
X339327Y267049D01*
X339299Y266947D01*
X339271Y266836D01*
X339253Y266707D01*
X339225Y266568D01*
X339197Y266420D01*
X339169Y266244D01*
X339151Y266069D01*
X339132Y265884D01*
X339114Y265680D01*
X339105Y265477D01*
Y265135D01*
X339114Y265052D01*
Y264941D01*
X339123Y264820D01*
X339132Y264682D01*
X339151Y264534D01*
X339169Y264377D01*
X339197Y264210D01*
X339262Y263859D01*
X339354Y263517D01*
X339410Y263350D01*
X339474Y263193D01*
Y263184D01*
X339493Y263156D01*
X339511Y263110D01*
X339539Y263055D01*
X339576Y262990D01*
X339622Y262907D01*
X339743Y262722D01*
X339881Y262509D01*
X340057Y262296D01*
X340260Y262075D01*
X340491Y261880D01*
X340501Y261871D01*
X340519Y261862D01*
X340556Y261834D01*
X340612Y261797D01*
X340667Y261760D01*
X340750Y261714D01*
X340834Y261658D01*
X340935Y261603D01*
X341037Y261548D01*
X341157Y261483D01*
X341416Y261372D01*
X341712Y261261D01*
X342035Y261168D01*
X342045D01*
X342072Y261159D01*
X342128Y261150D01*
X342193Y261131D01*
X342276Y261122D01*
X342378Y261104D01*
X342489Y261085D01*
X342609Y261057D01*
X342747Y261039D01*
X342895Y261021D01*
X343062Y261002D01*
X343228Y260993D01*
X343579Y260965D01*
X343959Y260956D01*
X343968D01*
X344005D01*
X344070D01*
X344143D01*
X344236Y260965D01*
X344356D01*
X344476Y260974D01*
X344615Y260984D01*
X344763Y260993D01*
X344920Y261011D01*
X345244Y261057D01*
X345586Y261113D01*
X345909Y261187D01*
X345919D01*
X345946Y261196D01*
X345993Y261215D01*
X346057Y261233D01*
X346131Y261261D01*
X346214Y261289D01*
X346307Y261326D01*
X346418Y261372D01*
X346640Y261474D01*
X346889Y261603D01*
X347130Y261760D01*
X347361Y261945D01*
X347370Y261954D01*
X347389Y261973D01*
X347416Y262001D01*
X347463Y262038D01*
X347509Y262093D01*
X347564Y262158D01*
X347629Y262232D01*
X347694Y262315D01*
X347768Y262407D01*
X347842Y262509D01*
X347916Y262629D01*
X347990Y262750D01*
X348138Y263018D01*
X348267Y263323D01*
Y263332D01*
X348276Y263360D01*
X348295Y263406D01*
X348313Y263471D01*
X348341Y263554D01*
X348369Y263655D01*
X348396Y263766D01*
X348424Y263896D01*
X348452Y264035D01*
X348480Y264192D01*
X348507Y264367D01*
X348535Y264543D01*
X348554Y264737D01*
X348572Y264941D01*
X348581Y265163D01*
Y265569D01*
X348572Y265662D01*
X348563Y265773D01*
X348554Y265893D01*
X348544Y266022D01*
X348526Y266170D01*
X348507Y266318D01*
X348452Y266642D01*
X348369Y266966D01*
X348267Y267280D01*
Y267289D01*
X348248Y267317D01*
X348239Y267354D01*
X348212Y267409D01*
X348175Y267483D01*
X348138Y267566D01*
X348091Y267650D01*
X348036Y267751D01*
X347906Y267964D01*
X347749Y268186D01*
X347564Y268408D01*
X347352Y268620D01*
X347342Y268630D01*
X347324Y268639D01*
X347287Y268667D01*
X347241Y268704D01*
X347185Y268750D01*
X347111Y268805D01*
X347028Y268861D01*
X346936Y268916D01*
X346834Y268981D01*
X346714Y269046D01*
X346594Y269110D01*
X346455Y269175D01*
X346168Y269305D01*
X345835Y269415D01*
X345826D01*
X345798Y269425D01*
X345743Y269443D01*
X345678Y269452D01*
X345586Y269471D01*
X345484Y269499D01*
X345364Y269517D01*
X345234Y269545D01*
X345087Y269573D01*
X344920Y269591D01*
X344744Y269610D01*
X344560Y269637D01*
X344365Y269647D01*
X344153Y269665D01*
X343718Y269674D01*
D02*
G37*
%LPD*%
G36*
X344014Y268140D02*
X344106D01*
X344208Y268130D01*
X344328Y268121D01*
X344578Y268093D01*
X344846Y268056D01*
X345123Y268001D01*
X345382Y267927D01*
X345392D01*
X345410Y267918D01*
X345447Y267899D01*
X345493Y267881D01*
X345558Y267862D01*
X345623Y267834D01*
X345780Y267761D01*
X345956Y267668D01*
X346141Y267566D01*
X346325Y267437D01*
X346501Y267298D01*
X346510Y267289D01*
X346520Y267280D01*
X346575Y267224D01*
X346649Y267141D01*
X346741Y267030D01*
X346852Y266882D01*
X346954Y266725D01*
X347056Y266540D01*
X347148Y266346D01*
Y266337D01*
X347158Y266318D01*
X347167Y266290D01*
X347185Y266254D01*
X347195Y266198D01*
X347213Y266133D01*
X347259Y265985D01*
X347296Y265810D01*
X347324Y265606D01*
X347352Y265385D01*
X347361Y265153D01*
Y265042D01*
X347352Y264959D01*
X347342Y264867D01*
X347333Y264774D01*
X347296Y264562D01*
Y264552D01*
X347287Y264515D01*
X347278Y264460D01*
X347259Y264386D01*
X347231Y264303D01*
X347204Y264219D01*
X347139Y264035D01*
Y264025D01*
X347121Y263988D01*
X347102Y263942D01*
X347074Y263887D01*
X347010Y263739D01*
X346917Y263591D01*
X346908Y263582D01*
X346899Y263554D01*
X346871Y263517D01*
X346843Y263480D01*
X346769Y263378D01*
X346732Y263332D01*
X346695Y263295D01*
X346686Y263277D01*
X346649Y263249D01*
X346603Y263202D01*
X346566Y263175D01*
X346557Y263165D01*
X346538Y263156D01*
X346501Y263147D01*
X346455Y263129D01*
X346446D01*
X346409Y263119D01*
X346362Y263110D01*
X346298Y263101D01*
X346279D01*
X346242Y263092D01*
X346187D01*
X346113D01*
X346094D01*
X346048D01*
X345993Y263101D01*
X345919Y263110D01*
X345909D01*
X345872Y263119D01*
X345817Y263129D01*
X345761Y263147D01*
X345752D01*
X345724Y263165D01*
X345687Y263184D01*
X345660Y263212D01*
Y263221D01*
X345650Y263239D01*
X345641Y263277D01*
X345632Y263323D01*
Y263350D01*
X345641Y263378D01*
X345650Y263406D01*
X345678Y263498D01*
X345706Y263545D01*
X345743Y263600D01*
X345752Y263609D01*
X345761Y263628D01*
X345789Y263655D01*
X345817Y263692D01*
X345854Y263748D01*
X345891Y263804D01*
X345993Y263942D01*
X346002Y263951D01*
X346020Y263979D01*
X346048Y264025D01*
X346085Y264081D01*
X346122Y264155D01*
X346168Y264238D01*
X346205Y264331D01*
X346251Y264441D01*
X346261Y264451D01*
X346270Y264497D01*
X346288Y264552D01*
X346316Y264636D01*
X346335Y264746D01*
X346353Y264867D01*
X346362Y265005D01*
X346372Y265163D01*
Y265246D01*
X346362Y265301D01*
X346353Y265375D01*
X346335Y265458D01*
X346288Y265653D01*
X346261Y265754D01*
X346214Y265865D01*
X346159Y265976D01*
X346104Y266087D01*
X346020Y266189D01*
X345937Y266290D01*
X345835Y266392D01*
X345724Y266485D01*
X345715Y266494D01*
X345697Y266503D01*
X345660Y266522D01*
X345604Y266559D01*
X345540Y266586D01*
X345456Y266623D01*
X345355Y266670D01*
X345244Y266707D01*
X345123Y266753D01*
X344976Y266790D01*
X344828Y266836D01*
X344652Y266864D01*
X344476Y266891D01*
X344273Y266919D01*
X344060Y266929D01*
X343838Y266938D01*
X343829D01*
X343811D01*
X343774D01*
X343727D01*
X343672D01*
X343607Y266929D01*
X343459Y266919D01*
X343284Y266910D01*
X343089Y266882D01*
X342905Y266854D01*
X342720Y266817D01*
X342710D01*
X342701Y266808D01*
X342646Y266799D01*
X342553Y266771D01*
X342442Y266725D01*
X342322Y266679D01*
X342183Y266614D01*
X342054Y266549D01*
X341925Y266466D01*
X341915Y266457D01*
X341869Y266420D01*
X341814Y266374D01*
X341749Y266300D01*
X341675Y266217D01*
X341601Y266115D01*
X341527Y266004D01*
X341462Y265884D01*
X341453Y265865D01*
X341444Y265819D01*
X341416Y265754D01*
X341388Y265653D01*
X341361Y265542D01*
X341342Y265403D01*
X341324Y265255D01*
X341314Y265098D01*
Y265033D01*
X341324Y264950D01*
X341333Y264858D01*
X341342Y264746D01*
X341370Y264626D01*
X341398Y264506D01*
X341435Y264395D01*
X341444Y264386D01*
X341453Y264349D01*
X341481Y264293D01*
X341518Y264219D01*
X341555Y264136D01*
X341601Y264053D01*
X341703Y263887D01*
X341712Y263877D01*
X341730Y263850D01*
X341758Y263813D01*
X341795Y263766D01*
X341888Y263646D01*
X341980Y263535D01*
X341989Y263526D01*
X341998Y263508D01*
X342017Y263480D01*
X342045Y263443D01*
X342091Y263360D01*
X342100Y263323D01*
X342109Y263277D01*
Y263249D01*
X342100Y263221D01*
X342082Y263202D01*
X342072Y263193D01*
X342063Y263184D01*
X342035Y263165D01*
X341989Y263147D01*
X341980Y263138D01*
X341952Y263129D01*
X341897Y263119D01*
X341823Y263110D01*
X341804D01*
X341758Y263101D01*
X341675D01*
X341582D01*
X341573D01*
X341564D01*
X341508D01*
X341444D01*
X341370Y263110D01*
X341361D01*
X341324D01*
X341268Y263119D01*
X341213Y263138D01*
X341203D01*
X341176Y263147D01*
X341102Y263184D01*
X341092D01*
X341074Y263202D01*
X341028Y263230D01*
X340981Y263277D01*
X340972Y263295D01*
X340926Y263341D01*
X340898Y263378D01*
X340861Y263424D01*
X340824Y263480D01*
X340778Y263545D01*
X340769Y263554D01*
X340760Y263582D01*
X340732Y263619D01*
X340704Y263674D01*
X340667Y263739D01*
X340621Y263813D01*
X340538Y263998D01*
Y264007D01*
X340519Y264044D01*
X340501Y264090D01*
X340482Y264164D01*
X340454Y264247D01*
X340427Y264349D01*
X340399Y264451D01*
X340371Y264571D01*
Y264589D01*
X340362Y264626D01*
X340353Y264691D01*
X340344Y264774D01*
X340325Y264876D01*
X340316Y264987D01*
X340307Y265116D01*
Y265366D01*
X340316Y265431D01*
Y265495D01*
X340334Y265671D01*
X340362Y265865D01*
X340399Y266078D01*
X340454Y266290D01*
X340528Y266503D01*
Y266512D01*
X340538Y266531D01*
X340556Y266559D01*
X340575Y266596D01*
X340621Y266688D01*
X340695Y266817D01*
X340787Y266956D01*
X340908Y267113D01*
X341037Y267261D01*
X341194Y267409D01*
X341203D01*
X341213Y267428D01*
X341240Y267446D01*
X341277Y267474D01*
X341370Y267539D01*
X341499Y267613D01*
X341656Y267705D01*
X341841Y267798D01*
X342045Y267890D01*
X342276Y267964D01*
X342285D01*
X342304Y267973D01*
X342341Y267983D01*
X342387Y267992D01*
X342452Y268010D01*
X342525Y268020D01*
X342609Y268038D01*
X342710Y268056D01*
X342812Y268075D01*
X342923Y268093D01*
X343182Y268121D01*
X343469Y268140D01*
X343774Y268149D01*
X343783D01*
X343820D01*
X343866D01*
X343931D01*
X344014Y268140D01*
D02*
G37*
D10*
X21163Y90038D02*
G03*
X21163Y90038I-1250J0D01*
G01*
X302326Y25531D02*
G03*
X302326Y25531I-1250J0D01*
G01*
X284373Y66140D02*
G03*
X284373Y66140I-1250J0D01*
G01*
D11*
X165102Y69608D02*
G03*
X165102Y69608I-1000J0D01*
G01*
X307726Y38231D02*
X362326D01*
X307726Y12831D02*
Y38231D01*
Y12831D02*
X362326D01*
Y38231D01*
X578145Y245305D02*
Y269305D01*
X538144Y245305D02*
Y269305D01*
X578145D01*
X538144Y245305D02*
X578145D01*
X141449Y297050D02*
X181449D01*
X141449Y321050D02*
X181449D01*
X141449Y297050D02*
Y321050D01*
X181449Y297050D02*
Y321050D01*
D12*
X167977Y93548D02*
G03*
X167977Y93548I-15000J0D01*
G01*
X263657Y8067D02*
Y41067D01*
X204557Y8067D02*
Y41067D01*
X113987Y44250D02*
X123887D01*
X141887D02*
Y45500D01*
X123887D02*
X141887D01*
X123887Y44250D02*
Y45500D01*
X141887Y14500D02*
Y15750D01*
X123887Y14500D02*
X141887D01*
X123887D02*
Y15750D01*
X42843Y109578D02*
X52993D01*
Y95578D02*
Y109578D01*
X22993D02*
X33143D01*
X22993Y95578D02*
Y109578D01*
X144152Y75358D02*
X159652D01*
X144152Y63858D02*
X159652D01*
X162702Y68108D02*
Y71108D01*
X285750Y173250D02*
Y207750D01*
Y224050D02*
Y258550D01*
X311150Y198650D02*
Y233150D01*
Y249450D02*
Y283950D01*
X285750Y152400D02*
Y156950D01*
X311150Y300250D02*
Y304800D01*
Y152400D02*
Y182350D01*
X285750Y152400D02*
X311150D01*
X285750Y274850D02*
Y304800D01*
X311150D01*
X368890Y340100D02*
X461690D01*
X368890Y297450D02*
Y340100D01*
Y9900D02*
X461690D01*
Y52550D01*
Y297450D02*
Y340100D01*
X368890Y9900D02*
Y52550D01*
X461690Y272050D02*
Y281150D01*
Y246650D02*
Y255750D01*
Y221250D02*
Y230350D01*
Y195850D02*
Y204950D01*
Y170450D02*
Y179550D01*
Y145050D02*
Y154150D01*
Y119650D02*
Y128750D01*
Y94250D02*
Y103350D01*
Y68850D02*
Y77950D01*
X368890Y272050D02*
Y281150D01*
Y246650D02*
Y255750D01*
Y221250D02*
Y230350D01*
Y195850D02*
Y204950D01*
Y170450D02*
Y179550D01*
Y145050D02*
Y154150D01*
Y119650D02*
Y128750D01*
Y94250D02*
Y103350D01*
Y68850D02*
Y77950D01*
X518900Y240750D02*
X585700D01*
X518900Y237650D02*
Y240750D01*
Y109000D02*
X576050D01*
Y112250D01*
X585700Y237650D02*
Y240750D01*
X518900Y109000D02*
Y112350D01*
X576050Y112250D02*
X586800D01*
X26072Y125993D02*
X58072D01*
X26072Y143493D02*
X58072D01*
Y125993D02*
Y143493D01*
X26072Y125993D02*
Y143493D01*
X91871Y36468D02*
X101371D01*
X91871Y19968D02*
Y36468D01*
Y19968D02*
X101371D01*
Y36468D01*
X142078Y124800D02*
Y225200D01*
X171378Y115000D02*
Y125200D01*
X159878Y115000D02*
X171378D01*
X159878Y235000D02*
X171378D01*
Y224800D02*
Y235000D01*
X230376Y237000D02*
X234576D01*
Y247700D01*
X214576Y246800D02*
Y313200D01*
X234576Y312300D02*
Y323000D01*
X230376D02*
X234576D01*
X55140Y222776D02*
Y232976D01*
X43940D02*
X55140D01*
X43940Y152976D02*
X55140D01*
Y163176D01*
X26140Y162776D02*
Y223176D01*
X92300Y46901D02*
X113050D01*
X117700Y51551D01*
Y304401D01*
X92300Y46901D02*
Y304401D01*
X117700D01*
X215123Y71640D02*
Y136640D01*
X287123D01*
Y71640D02*
Y136640D01*
X215123Y71640D02*
X287123D01*
X139899Y51386D02*
Y60886D01*
X120899D02*
X139899D01*
X120899Y51386D02*
Y60886D01*
Y51386D02*
X139899D01*
X123861Y66562D02*
Y76062D01*
Y66562D02*
X140361D01*
Y76062D01*
X123861D02*
X140361D01*
X160958Y37536D02*
X170458D01*
X160958Y21036D02*
Y37536D01*
Y21036D02*
X170458D01*
Y37536D01*
D13*
X323450Y308600D02*
G03*
X323450Y308600I-2000J0D01*
G01*
X584300Y106000D02*
G03*
X584300Y106000I-2000J0D01*
G01*
X182952Y119000D02*
G03*
X182952Y119000I-2000J0D01*
G01*
X245826Y242750D02*
G03*
X245826Y242750I-2000J0D01*
G01*
X64390Y157476D02*
G03*
X64390Y157476I-2000J0D01*
G01*
D14*
X472290Y46000D02*
G03*
X472290Y46000I-2500J0D01*
G01*
X85153Y51968D02*
G03*
X85153Y51968I-2000J0D01*
G01*
D15*
X277108Y289252D02*
X281172D01*
X259328Y215422D02*
X261868D01*
Y190022D02*
X279648D01*
X135282Y322624D02*
X136763Y324105D01*
Y327068D01*
X135282Y328549D01*
X129358D01*
X127876Y327068D01*
Y324105D01*
X129358Y322624D01*
X132320D01*
Y325586D01*
X127876Y319662D02*
X136763D01*
X127876Y313737D01*
X136763D01*
Y310774D02*
X127876D01*
Y306331D01*
X129358Y304850D01*
X135282D01*
X136763Y306331D01*
Y310774D01*
X261123Y150452D02*
X259641Y153414D01*
X256679Y156376D01*
X253717D01*
X252236Y154895D01*
Y151933D01*
X253717Y150452D01*
X255198D01*
X256679Y151933D01*
Y156376D01*
X333008Y309623D02*
Y306661D01*
Y308142D01*
X341895D01*
X340414Y309623D01*
X77978Y316699D02*
Y313737D01*
Y315218D01*
X86865D01*
X85384Y316699D01*
Y309293D02*
X86865Y307812D01*
Y304850D01*
X85384Y303369D01*
X79459D01*
X77978Y304850D01*
Y307812D01*
X79459Y309293D01*
X85384D01*
X77978Y42472D02*
Y39510D01*
Y40991D01*
X86865D01*
X85384Y42472D01*
X67148Y91399D02*
X73073D01*
X70111D01*
Y82512D01*
X76036Y91399D02*
X81960Y82512D01*
Y91399D02*
X76036Y82512D01*
X67198Y107760D02*
Y116647D01*
X71642D01*
X73123Y115165D01*
Y112203D01*
X71642Y110722D01*
X67198D01*
X70161D02*
X73123Y107760D01*
X76086Y116647D02*
X82010Y107760D01*
Y116647D02*
X76086Y107760D01*
X74050Y141171D02*
X72569Y142653D01*
X69606D01*
X68125Y141171D01*
Y139690D01*
X69606Y138209D01*
X72569D01*
X74050Y136728D01*
Y135246D01*
X72569Y133765D01*
X69606D01*
X68125Y135246D01*
X77012Y142653D02*
Y133765D01*
X81456D01*
X82937Y135246D01*
Y141171D01*
X81456Y142653D01*
X77012D01*
X74612Y168076D02*
X73131Y169557D01*
X70168D01*
X68687Y168076D01*
Y166595D01*
X70168Y165114D01*
X73131D01*
X74612Y163633D01*
Y162151D01*
X73131Y160670D01*
X70168D01*
X68687Y162151D01*
X83499Y168076D02*
X82018Y169557D01*
X79056D01*
X77574Y168076D01*
Y162151D01*
X79056Y160670D01*
X82018D01*
X83499Y162151D01*
X74607Y191435D02*
X73126Y192917D01*
X70163D01*
X68682Y191435D01*
Y189954D01*
X70163Y188473D01*
X73126D01*
X74607Y186992D01*
Y185511D01*
X73126Y184029D01*
X70163D01*
X68682Y185511D01*
X82013Y192917D02*
X79050D01*
X77569Y191435D01*
Y185511D01*
X79050Y184029D01*
X82013D01*
X83494Y185511D01*
Y191435D01*
X82013Y192917D01*
X74570Y216361D02*
X73089Y217842D01*
X70127D01*
X68646Y216361D01*
Y210436D01*
X70127Y208955D01*
X73089D01*
X74570Y210436D01*
Y213399D01*
X71608D01*
X83457Y208955D02*
X77533D01*
X83457Y214880D01*
Y216361D01*
X81976Y217842D01*
X79014D01*
X77533Y216361D01*
X76463Y244184D02*
X74982Y245665D01*
X72019D01*
X70538Y244184D01*
Y238259D01*
X72019Y236778D01*
X74982D01*
X76463Y238259D01*
Y241222D01*
X73500D01*
X79425Y236778D02*
X82388D01*
X80906D01*
Y245665D01*
X79425Y244184D01*
X59263Y254569D02*
Y263456D01*
X63707D01*
X65188Y261974D01*
Y259012D01*
X63707Y257531D01*
X59263D01*
X62225D02*
X65188Y254569D01*
X74075Y261974D02*
X72594Y263456D01*
X69631D01*
X68150Y261974D01*
Y260493D01*
X69631Y259012D01*
X72594D01*
X74075Y257531D01*
Y256050D01*
X72594Y254569D01*
X69631D01*
X68150Y256050D01*
X77037Y263456D02*
X82962D01*
X80000D01*
Y254569D01*
X68206Y68450D02*
Y62525D01*
X71168Y59563D01*
X74131Y62525D01*
Y68450D01*
X77093D02*
X83018D01*
X80056D01*
Y59563D01*
X64739Y281088D02*
X63257Y282569D01*
X60295D01*
X58814Y281088D01*
Y275163D01*
X60295Y273682D01*
X63257D01*
X64739Y275163D01*
Y278125D01*
X61776D01*
X67701Y273682D02*
Y282569D01*
X73626Y273682D01*
Y282569D01*
X76588D02*
Y273682D01*
X81032D01*
X82513Y275163D01*
Y281088D01*
X81032Y282569D01*
X76588D01*
X314833Y67760D02*
X323720D01*
Y63317D01*
X322239Y61836D01*
X319277D01*
X317795Y63317D01*
Y67760D01*
Y64798D02*
X314833Y61836D01*
X322239Y52948D02*
X323720Y54430D01*
Y57392D01*
X322239Y58873D01*
X320758D01*
X319277Y57392D01*
Y54430D01*
X317795Y52948D01*
X316314D01*
X314833Y54430D01*
Y57392D01*
X316314Y58873D01*
X323720Y49986D02*
Y44061D01*
Y47024D01*
X314833D01*
X349047Y62715D02*
X350528Y64196D01*
Y67158D01*
X349047Y68639D01*
X343122D01*
X341641Y67158D01*
Y64196D01*
X343122Y62715D01*
X346085D01*
Y65677D01*
X341641Y59752D02*
X350528D01*
X341641Y53828D01*
X350528D01*
Y50865D02*
X341641D01*
Y46422D01*
X343122Y44940D01*
X349047D01*
X350528Y46422D01*
Y50865D01*
X303036Y336102D02*
Y342027D01*
X298593D01*
Y339065D01*
Y342027D01*
X294149D01*
X303036Y333140D02*
Y327215D01*
Y330177D01*
X294149D01*
X303036Y324253D02*
X294149D01*
Y319809D01*
X295631Y318328D01*
X301555D01*
X303036Y319809D01*
Y324253D01*
Y315366D02*
Y312403D01*
Y313885D01*
X294149D01*
Y315366D01*
Y312403D01*
X243068Y185450D02*
Y194337D01*
X247512D01*
X248993Y192856D01*
Y189893D01*
X247512Y188412D01*
X243068D01*
X246030D02*
X248993Y185450D01*
X251955Y194337D02*
X257880Y185450D01*
Y194337D02*
X251955Y185450D01*
X242186Y219750D02*
X248111D01*
X245148D01*
Y210863D01*
X251073Y219750D02*
X256998Y210863D01*
Y219750D02*
X251073Y210863D01*
X254374Y292105D02*
X252892Y293586D01*
X249930D01*
X248449Y292105D01*
Y286180D01*
X249930Y284699D01*
X252892D01*
X254374Y286180D01*
Y289143D01*
X251411D01*
X257336Y284699D02*
Y293586D01*
X263261Y284699D01*
Y293586D01*
X266223D02*
Y284699D01*
X270667D01*
X272148Y286180D01*
Y292105D01*
X270667Y293586D01*
X266223D01*
X207535Y302573D02*
Y296649D01*
Y299611D01*
X198647D01*
Y293686D02*
X207535D01*
Y289243D01*
X206053Y287761D01*
X203091D01*
X201610Y289243D01*
Y293686D01*
Y290724D02*
X198647Y287761D01*
Y284799D02*
X204572D01*
X207535Y281837D01*
X204572Y278874D01*
X198647D01*
X203091D01*
Y284799D01*
X206053Y269987D02*
X207535Y271468D01*
Y274431D01*
X206053Y275912D01*
X200129D01*
X198647Y274431D01*
Y271468D01*
X200129Y269987D01*
X207535Y261100D02*
Y267025D01*
X198647D01*
Y261100D01*
X203091Y267025D02*
Y264062D01*
X484632Y291084D02*
X492757D01*
Y287021D01*
X491403Y285667D01*
X488695D01*
X487341Y287021D01*
Y291084D01*
X492757Y282959D02*
Y280250D01*
Y281604D01*
X484632D01*
Y282959D01*
Y280250D01*
X492757Y276187D02*
X484632Y270771D01*
X492757D02*
X484632Y276187D01*
X492757Y268062D02*
X484632D01*
X488695D01*
Y262645D01*
X492757D01*
X484632D01*
Y259937D02*
X490049D01*
X492757Y257228D01*
X490049Y254520D01*
X484632D01*
X488695D01*
Y259937D01*
X492757Y251811D02*
X484632D01*
X487341Y249103D01*
X484632Y246394D01*
X492757D01*
Y243686D02*
X484632D01*
X487341D01*
X492757Y238269D01*
X488695Y242332D01*
X484632Y238269D01*
X492757Y227435D02*
X484632D01*
Y223372D01*
X485986Y222018D01*
X491403D01*
X492757Y223372D01*
Y227435D01*
Y213893D02*
Y219310D01*
X484632D01*
Y213893D01*
X488695Y219310D02*
Y216601D01*
X492757Y211184D02*
X484632D01*
Y207122D01*
X485986Y205767D01*
X487341D01*
X488695Y207122D01*
Y211184D01*
Y207122D01*
X490049Y205767D01*
X491403D01*
X492757Y207122D01*
Y211184D01*
Y203059D02*
X485986D01*
X484632Y201705D01*
Y198996D01*
X485986Y197642D01*
X492757D01*
X491403Y189517D02*
X492757Y190871D01*
Y193579D01*
X491403Y194934D01*
X485986D01*
X484632Y193579D01*
Y190871D01*
X485986Y189517D01*
X488695D01*
Y192225D01*
X484632Y178683D02*
X490049D01*
X492757Y175974D01*
X490049Y173266D01*
X484632D01*
X488695D01*
Y178683D01*
X492757Y170557D02*
X484632D01*
Y166495D01*
X485986Y165141D01*
X491403D01*
X492757Y166495D01*
Y170557D01*
X484632Y162432D02*
X490049D01*
X492757Y159724D01*
X490049Y157015D01*
X484632D01*
X488695D01*
Y162432D01*
X484632Y154307D02*
X492757D01*
Y150244D01*
X491403Y148890D01*
X488695D01*
X487341Y150244D01*
Y154307D01*
X492757Y146181D02*
Y140764D01*
Y143473D01*
X484632D01*
X492757Y133993D02*
Y136702D01*
X491403Y138056D01*
X485986D01*
X484632Y136702D01*
Y133993D01*
X485986Y132639D01*
X491403D01*
X492757Y133993D01*
X484632Y129931D02*
X492757D01*
Y125868D01*
X491403Y124514D01*
X488695D01*
X487341Y125868D01*
Y129931D01*
Y127222D02*
X484632Y124514D01*
Y113680D02*
X492757D01*
X490049Y110971D01*
X492757Y108263D01*
X484632D01*
X492757Y105554D02*
Y102846D01*
Y104200D01*
X484632D01*
Y105554D01*
Y102846D01*
Y98783D02*
X492757D01*
X484632Y93366D01*
X492757D01*
Y90658D02*
Y87949D01*
Y89304D01*
X484632D01*
Y90658D01*
Y87949D01*
D16*
X252167Y53552D02*
X253225Y54610D01*
Y56726D01*
X252167Y57784D01*
X251108D01*
X250051Y56726D01*
Y54610D01*
X248993Y53552D01*
X247935D01*
X246877Y54610D01*
Y56726D01*
X247935Y57784D01*
X253225Y51436D02*
X246877D01*
X248993Y49320D01*
X246877Y47204D01*
X253225D01*
X246877Y45088D02*
Y42972D01*
Y44030D01*
X253225D01*
X252167Y45088D01*
X164170Y51968D02*
X158881D01*
X157823Y50910D01*
Y48794D01*
X158881Y47736D01*
X164170D01*
X157823Y45620D02*
Y43504D01*
Y44562D01*
X164170D01*
X163113Y45620D01*
X19436Y119565D02*
X13088D01*
Y116391D01*
X14146Y115333D01*
X18378D01*
X19436Y116391D01*
Y119565D01*
X13088Y113217D02*
Y111101D01*
Y112159D01*
X19436D01*
X18378Y113217D01*
X177345Y73997D02*
X170997D01*
Y70823D01*
X172055Y69765D01*
X176287D01*
X177345Y70823D01*
Y73997D01*
X170997Y63417D02*
Y67649D01*
X175229Y63417D01*
X176287D01*
X177345Y64475D01*
Y66591D01*
X176287Y67649D01*
X326220Y328268D02*
Y330384D01*
Y329326D01*
X320930D01*
X319872Y330384D01*
Y331442D01*
X320930Y332500D01*
Y326152D02*
X319872Y325094D01*
Y322978D01*
X320930Y321920D01*
X325162D01*
X326220Y322978D01*
Y325094D01*
X325162Y326152D01*
X324104D01*
X323046Y325094D01*
Y321920D01*
X577982Y93304D02*
Y95420D01*
Y94362D01*
X572692D01*
X571634Y95420D01*
Y96478D01*
X572692Y97536D01*
X571634Y91188D02*
Y89072D01*
Y90130D01*
X577982D01*
X576924Y91188D01*
X14847Y137611D02*
X21195D01*
Y134437D01*
X20137Y133379D01*
X18021D01*
X16963Y134437D01*
Y137611D01*
Y135495D02*
X14847Y133379D01*
Y131263D02*
Y129147D01*
Y130205D01*
X21195D01*
X20137Y131263D01*
X81608Y30480D02*
X87956D01*
Y27306D01*
X86897Y26248D01*
X84782D01*
X83723Y27306D01*
Y30480D01*
Y28364D02*
X81608Y26248D01*
Y20958D02*
X87956D01*
X84782Y24132D01*
Y19900D01*
X184656Y246646D02*
Y248762D01*
Y247704D01*
X179366D01*
X178308Y248762D01*
Y249820D01*
X179366Y250878D01*
X178308Y241356D02*
X184656D01*
X181482Y244530D01*
Y240298D01*
X236230Y339446D02*
Y341562D01*
Y340504D01*
X230940D01*
X229882Y341562D01*
Y342620D01*
X230940Y343678D01*
X229882Y333098D02*
Y337330D01*
X234114Y333098D01*
X235172D01*
X236230Y334156D01*
Y336272D01*
X235172Y337330D01*
X50288Y250699D02*
Y252815D01*
Y251757D01*
X44998D01*
X43940Y252815D01*
Y253873D01*
X44998Y254931D01*
X50288Y248583D02*
Y244351D01*
X49230D01*
X44998Y248583D01*
X43940D01*
X149382Y55532D02*
X150440Y56590D01*
Y58706D01*
X149382Y59764D01*
X145150D01*
X144092Y58706D01*
Y56590D01*
X145150Y55532D01*
X144092Y53416D02*
Y51300D01*
Y52358D01*
X150440D01*
X149382Y53416D01*
X127595Y91478D02*
X133943D01*
Y88304D01*
X132885Y87246D01*
X130769D01*
X129711Y88304D01*
Y91478D01*
Y89362D02*
X127595Y87246D01*
Y80898D02*
Y85130D01*
X131827Y80898D01*
X132885D01*
X133943Y81956D01*
Y84072D01*
X132885Y85130D01*
X174328Y34805D02*
X180675D01*
Y31631D01*
X179617Y30573D01*
X177502D01*
X176444Y31631D01*
Y34805D01*
Y32689D02*
X174328Y30573D01*
X179617Y28457D02*
X180675Y27399D01*
Y25283D01*
X179617Y24225D01*
X178559D01*
X177502Y25283D01*
Y26341D01*
Y25283D01*
X176444Y24225D01*
X175385D01*
X174328Y25283D01*
Y27399D01*
X175385Y28457D01*
D17*
X297078Y41714D02*
Y43830D01*
Y42772D01*
X291788D01*
X290730Y43830D01*
Y44888D01*
X291788Y45946D01*
X297078Y35366D02*
X296020Y37482D01*
X293904Y39598D01*
X291788D01*
X290730Y38540D01*
Y36424D01*
X291788Y35366D01*
X292846D01*
X293904Y36424D01*
Y39598D01*
X178528Y97990D02*
Y100106D01*
Y99048D01*
X173238D01*
X172180Y100106D01*
Y101164D01*
X173238Y102222D01*
X172180Y95874D02*
X178528D01*
Y92700D01*
X177470Y91642D01*
X175354D01*
X174296Y92700D01*
Y95874D01*
X172180Y89526D02*
Y87410D01*
Y88468D01*
X178528D01*
X177470Y89526D01*
X477646Y328718D02*
Y330834D01*
Y329776D01*
X472356D01*
X471298Y330834D01*
Y331892D01*
X472356Y332950D01*
X476588Y326602D02*
X477646Y325544D01*
Y323428D01*
X476588Y322370D01*
X475530D01*
X474472Y323428D01*
Y324486D01*
Y323428D01*
X473414Y322370D01*
X472356D01*
X471298Y323428D01*
Y325544D01*
X472356Y326602D01*
X526472Y290565D02*
Y292681D01*
Y291623D01*
X521182D01*
X520124Y292681D01*
Y293739D01*
X521182Y294797D01*
X526472Y288449D02*
Y284217D01*
Y286333D01*
X520124D01*
Y282101D02*
X524356D01*
X526472Y279985D01*
X524356Y277869D01*
X520124D01*
X523298D01*
Y282101D01*
X525414Y271521D02*
X526472Y272579D01*
Y274695D01*
X525414Y275753D01*
X521182D01*
X520124Y274695D01*
Y272579D01*
X521182Y271521D01*
X523298D01*
Y273637D01*
X519066Y269405D02*
Y265173D01*
X526472Y263057D02*
X522240D01*
X520124Y260941D01*
X522240Y258825D01*
X526472D01*
X525414Y252477D02*
X526472Y253535D01*
Y255651D01*
X525414Y256709D01*
X521182D01*
X520124Y255651D01*
Y253535D01*
X521182Y252477D01*
X525414Y246129D02*
X526472Y247187D01*
Y249303D01*
X525414Y250361D01*
X521182D01*
X520124Y249303D01*
Y247187D01*
X521182Y246129D01*
X116679Y319535D02*
Y321651D01*
Y320593D01*
X111389D01*
X110331Y321651D01*
Y322709D01*
X111389Y323767D01*
X115621Y317419D02*
X116679Y316361D01*
Y314245D01*
X115621Y313187D01*
X114563D01*
X113505Y314245D01*
X112447Y313187D01*
X111389D01*
X110331Y314245D01*
Y316361D01*
X111389Y317419D01*
X112447D01*
X113505Y316361D01*
X114563Y317419D01*
X115621D01*
X113505Y316361D02*
Y314245D01*
X298871Y131205D02*
Y133321D01*
Y132262D01*
X293581D01*
X292523Y133321D01*
Y134378D01*
X293581Y135436D01*
X298871Y124857D02*
Y129088D01*
X295697D01*
X296755Y126973D01*
Y125914D01*
X295697Y124857D01*
X293581D01*
X292523Y125914D01*
Y128031D01*
X293581Y129088D01*
D18*
X190091Y37892D02*
X200088D01*
Y32894D01*
X198421Y31227D01*
X195089D01*
X193423Y32894D01*
Y37892D01*
Y34560D02*
X190091Y31227D01*
X198421Y21231D02*
X200088Y22897D01*
Y26229D01*
X198421Y27895D01*
X196755D01*
X195089Y26229D01*
Y22897D01*
X193423Y21231D01*
X191757D01*
X190091Y22897D01*
Y26229D01*
X191757Y27895D01*
X200088Y17898D02*
Y11234D01*
Y14566D01*
X190091D01*
X338328Y248783D02*
Y255448D01*
X344992Y248783D01*
X346659D01*
X348325Y250449D01*
Y253782D01*
X346659Y255448D01*
Y245451D02*
X348325Y243785D01*
Y240452D01*
X346659Y238786D01*
X339994D01*
X338328Y240452D01*
Y243785D01*
X339994Y245451D01*
X346659D01*
X338328Y235454D02*
Y232122D01*
Y233788D01*
X348325D01*
X346659Y235454D01*
X348325Y220459D02*
X346659Y223791D01*
X343326Y227124D01*
X339994D01*
X338328Y225457D01*
Y222125D01*
X339994Y220459D01*
X341660D01*
X343326Y222125D01*
Y227124D01*
Y217127D02*
Y210462D01*
X338328Y200465D02*
Y207130D01*
X344992Y200465D01*
X346659D01*
X348325Y202132D01*
Y205464D01*
X346659Y207130D01*
Y197133D02*
X348325Y195467D01*
Y192135D01*
X346659Y190469D01*
X339994D01*
X338328Y192135D01*
Y195467D01*
X339994Y197133D01*
X346659D01*
X338328Y180472D02*
Y187136D01*
X344992Y180472D01*
X346659D01*
X348325Y182138D01*
Y185470D01*
X346659Y187136D01*
Y177140D02*
X348325Y175473D01*
Y172141D01*
X346659Y170475D01*
X339994D01*
X338328Y172141D01*
Y175473D01*
X339994Y177140D01*
X346659D01*
X338328Y157146D02*
X348325D01*
X338328Y150482D01*
X348325D01*
X338328Y147149D02*
Y142151D01*
X339994Y140485D01*
X341660Y142151D01*
Y145483D01*
X343326Y147149D01*
X344992Y145483D01*
Y140485D01*
Y130488D02*
Y135486D01*
X343326Y137153D01*
X339994D01*
X338328Y135486D01*
Y130488D01*
X348325Y127156D02*
X338328D01*
Y122157D01*
X339994Y120491D01*
X346659D01*
X348325Y122157D01*
Y127156D01*
X334996Y113827D02*
Y112161D01*
X336662Y110494D01*
X344992D01*
Y115493D01*
X343326Y117159D01*
X339994D01*
X338328Y115493D01*
Y110494D01*
X511917Y182350D02*
Y176352D01*
X510418D01*
X504420Y182350D01*
X502920D01*
Y173353D02*
Y170354D01*
Y171853D01*
X511917D01*
X510418Y173353D01*
X502920Y159857D02*
Y165855D01*
X508918Y159857D01*
X510418D01*
X511917Y161357D01*
Y164356D01*
X510418Y165855D01*
Y156858D02*
X511917Y155359D01*
Y152360D01*
X510418Y150860D01*
X504420D01*
X502920Y152360D01*
Y155359D01*
X504420Y156858D01*
X510418D01*
X502920Y143363D02*
X511917D01*
X507419Y147861D01*
Y141863D01*
X510418Y138864D02*
X511917Y137365D01*
Y134366D01*
X510418Y132866D01*
X504420D01*
X502920Y134366D01*
Y137365D01*
X504420Y138864D01*
X510418D01*
X507419Y129867D02*
Y123869D01*
X502920Y114872D02*
Y120870D01*
X508918Y114872D01*
X510418D01*
X511917Y116371D01*
Y119370D01*
X510418Y120870D01*
Y111873D02*
X511917Y110373D01*
Y107374D01*
X510418Y105875D01*
X504420D01*
X502920Y107374D01*
Y110373D01*
X504420Y111873D01*
X510418D01*
Y102876D02*
X511917Y101376D01*
Y98377D01*
X510418Y96878D01*
X504420D01*
X502920Y98377D01*
Y101376D01*
X504420Y102876D01*
X510418D01*
X507419Y93879D02*
Y87881D01*
X510418Y84882D02*
X511917Y83382D01*
Y80383D01*
X510418Y78884D01*
X504420D01*
X502920Y80383D01*
Y83382D01*
X504420Y84882D01*
X510418D01*
X502920Y75884D02*
Y72885D01*
Y74385D01*
X511917D01*
X510418Y75884D01*
M02*
