G04*
G04 #@! TF.GenerationSoftware,Altium Limited,Altium Designer,20.1.8 (145)*
G04*
G04 Layer_Color=128*
%FSLAX44Y44*%
%MOMM*%
G71*
G04*
G04 #@! TF.SameCoordinates,C9CF11F6-8CB7-4B33-927B-0983859D9422*
G04*
G04*
G04 #@! TF.FilePolarity,Positive*
G04*
G01*
G75*
%ADD74C,0.0508*%
D74*
X342626Y25531D02*
X352826D01*
X347726Y20431D02*
Y30631D01*
X317226Y25531D02*
X327426D01*
X322326Y20431D02*
Y30631D01*
X25000Y40000D02*
X55000D01*
X40000Y25000D02*
Y55000D01*
X99700Y61651D02*
X110300D01*
X105000Y56351D02*
Y66951D01*
X99700Y87051D02*
X110300D01*
X105000Y81751D02*
Y92351D01*
X99700Y112451D02*
X110300D01*
X105000Y107151D02*
Y117751D01*
X99700Y137851D02*
X110300D01*
X105000Y132551D02*
Y143151D01*
X99700Y163251D02*
X110300D01*
X105000Y157951D02*
Y168551D01*
X99700Y188651D02*
X110300D01*
X105000Y183351D02*
Y193951D01*
X99700Y214051D02*
X110300D01*
X105000Y208751D02*
Y219351D01*
X99700Y239451D02*
X110300D01*
X105000Y234151D02*
Y244751D01*
X99700Y264851D02*
X110300D01*
X105000Y259551D02*
Y270151D01*
X99700Y290251D02*
X110300D01*
X105000Y284951D02*
Y295551D01*
X25000Y310000D02*
X55000D01*
X40000Y295000D02*
Y325000D01*
X545000Y40000D02*
X575000D01*
X560000Y25000D02*
Y55000D01*
X545000Y310000D02*
X575000D01*
X560000Y295000D02*
Y325000D01*
X38250Y62500D02*
X41750D01*
X40000Y60750D02*
Y64250D01*
X60750Y40000D02*
X64250D01*
X62500Y38250D02*
Y41750D01*
X38250Y17500D02*
X41750D01*
X40000Y15750D02*
Y19250D01*
X15750Y40000D02*
X19250D01*
X17500Y38250D02*
Y41750D01*
X54250Y24000D02*
X57750D01*
X56000Y22250D02*
Y25750D01*
X22250Y56000D02*
X25750D01*
X24000Y54250D02*
Y57750D01*
X22250Y24000D02*
X25750D01*
X24000Y22250D02*
Y25750D01*
X54250Y56000D02*
X57750D01*
X56000Y54250D02*
Y57750D01*
X54250Y326000D02*
X57750D01*
X56000Y324250D02*
Y327750D01*
X22250Y294000D02*
X25750D01*
X24000Y292250D02*
Y295750D01*
X22250Y326000D02*
X25750D01*
X24000Y324250D02*
Y327750D01*
X54250Y294000D02*
X57750D01*
X56000Y292250D02*
Y295750D01*
X15750Y310000D02*
X19250D01*
X17500Y308250D02*
Y311750D01*
X38250Y287500D02*
X41750D01*
X40000Y285750D02*
Y289250D01*
X60750Y310000D02*
X64250D01*
X62500Y308250D02*
Y311750D01*
X38250Y332500D02*
X41750D01*
X40000Y330750D02*
Y334250D01*
X558250Y62500D02*
X561750D01*
X560000Y60750D02*
Y64250D01*
X580750Y40000D02*
X584250D01*
X582500Y38250D02*
Y41750D01*
X558250Y17500D02*
X561750D01*
X560000Y15750D02*
Y19250D01*
X535750Y40000D02*
X539250D01*
X537500Y38250D02*
Y41750D01*
X574250Y24000D02*
X577750D01*
X576000Y22250D02*
Y25750D01*
X542250Y56000D02*
X545750D01*
X544000Y54250D02*
Y57750D01*
X542250Y24000D02*
X545750D01*
X544000Y22250D02*
Y25750D01*
X574250Y56000D02*
X577750D01*
X576000Y54250D02*
Y57750D01*
X574250Y326000D02*
X577750D01*
X576000Y324250D02*
Y327750D01*
X542250Y294000D02*
X545750D01*
X544000Y292250D02*
Y295750D01*
X542250Y326000D02*
X545750D01*
X544000Y324250D02*
Y327750D01*
X574250Y294000D02*
X577750D01*
X576000Y292250D02*
Y295750D01*
X535750Y310000D02*
X539250D01*
X537500Y308250D02*
Y311750D01*
X558250Y287500D02*
X561750D01*
X560000Y285750D02*
Y289250D01*
X580750Y310000D02*
X584250D01*
X582500Y308250D02*
Y311750D01*
X558250Y332500D02*
X561750D01*
X560000Y330750D02*
Y334250D01*
X314573Y144411D02*
X317113D01*
X315843Y143141D02*
Y145681D01*
X115864Y87161D02*
X118404D01*
X117134Y85891D02*
Y88431D01*
X135501Y85131D02*
X138041D01*
X136771Y83861D02*
Y86401D01*
X351888Y187181D02*
X354428D01*
X353158Y185910D02*
Y188451D01*
X143309Y131081D02*
X145849D01*
X144579Y129811D02*
Y132351D01*
X155692Y133412D02*
X158232D01*
X156962Y132142D02*
Y134682D01*
X85658Y92241D02*
X88198D01*
X86928Y90971D02*
Y93511D01*
X230524Y164903D02*
X233064D01*
X231794Y163633D02*
Y166173D01*
X120257Y271117D02*
X122797D01*
X121527Y269847D02*
Y272387D01*
X126462Y98582D02*
X129002D01*
X127732Y97312D02*
Y99852D01*
X116037Y129576D02*
X118577D01*
X117307Y128306D02*
Y130846D01*
X135228Y29118D02*
X137768D01*
X136498Y27848D02*
Y30388D01*
X155705Y39723D02*
X158245D01*
X156975Y38453D02*
Y40993D01*
X157518Y20781D02*
X160058D01*
X158788Y19511D02*
Y22051D01*
X107324Y20685D02*
X109864D01*
X108594Y19415D02*
Y21955D01*
X230053Y141670D02*
X232593D01*
X231323Y140400D02*
Y142940D01*
X4826Y101692D02*
X7366D01*
X6096Y100422D02*
Y102962D01*
X4826Y167908D02*
X7366D01*
X6096Y166639D02*
Y169179D01*
X4826Y133877D02*
X7366D01*
X6096Y132607D02*
Y135147D01*
X4826Y201589D02*
X7366D01*
X6096Y200319D02*
Y202859D01*
X4826Y238879D02*
X7366D01*
X6096Y237609D02*
Y240149D01*
X90587Y38266D02*
X93127D01*
X91857Y36996D02*
Y39536D01*
X211164Y98810D02*
X213704D01*
X212434Y97540D02*
Y100080D01*
X193340Y162029D02*
X195880D01*
X194610Y160759D02*
Y163299D01*
X183685Y145327D02*
X186225D01*
X184955Y144057D02*
Y146597D01*
X211609Y85630D02*
X214149D01*
X212879Y84360D02*
Y86900D01*
X169727Y95883D02*
X172267D01*
X170997Y94613D02*
Y97153D01*
X536007Y243508D02*
X538547D01*
X537277Y242239D02*
Y244778D01*
X536007Y257337D02*
X538547D01*
X537277Y256067D02*
Y258607D01*
X157232Y143680D02*
X159772D01*
X158502Y142410D02*
Y144950D01*
X59516Y97728D02*
X62056D01*
X60786Y96458D02*
Y98998D01*
X84777Y28636D02*
X87317D01*
X86047Y27366D02*
Y29906D01*
X8627Y70231D02*
X11167D01*
X9897Y68961D02*
Y71501D01*
X175826Y229966D02*
X178366D01*
X177096Y228696D02*
Y231236D01*
X347487Y111583D02*
X350027D01*
X348757Y110313D02*
Y112853D01*
X345885Y239451D02*
X348425D01*
X347155Y238181D02*
Y240721D01*
X346726Y264851D02*
X349266D01*
X347996Y263581D02*
Y266121D01*
X521356Y280531D02*
X523896D01*
X522626Y279261D02*
Y281801D01*
X521356Y263525D02*
X523896D01*
X522626Y262255D02*
Y264795D01*
X521356Y246663D02*
X523896D01*
X522626Y245393D02*
Y247933D01*
X27375Y103236D02*
X29915D01*
X28645Y101966D02*
Y104506D01*
X194410Y63922D02*
X196950D01*
X195680Y62652D02*
Y65192D01*
X211546Y70715D02*
X214086D01*
X212816Y69445D02*
Y71985D01*
X172971Y121057D02*
X175511D01*
X174241Y119787D02*
Y122327D01*
X180921Y51254D02*
X183461D01*
X182190Y49984D02*
Y52524D01*
X167477Y62286D02*
X170017D01*
X168747Y61016D02*
Y63556D01*
X479765Y124165D02*
X482305D01*
X481035Y122895D02*
Y125435D01*
X480031Y149327D02*
X482571D01*
X481301Y148057D02*
Y150597D01*
X480031Y175441D02*
X482571D01*
X481301Y174171D02*
Y176711D01*
X187956Y56175D02*
X190496D01*
X189226Y54905D02*
Y57445D01*
X210401Y45854D02*
X212941D01*
X211671Y44584D02*
Y47123D01*
X348083Y85253D02*
X350623D01*
X349353Y83983D02*
Y86523D01*
X301336Y133658D02*
X303876D01*
X302606Y132388D02*
Y134928D01*
X327036Y112451D02*
X329576D01*
X328306Y111181D02*
Y113721D01*
X339504Y134358D02*
X342043D01*
X340774Y133088D02*
Y135628D01*
X309942Y60124D02*
X312482D01*
X311212Y58854D02*
Y61393D01*
X323204Y72270D02*
X325744D01*
X324474Y71000D02*
Y73541D01*
X298378Y85581D02*
X300918D01*
X299648Y84311D02*
Y86851D01*
X237818Y21385D02*
X240358D01*
X239088Y20115D02*
Y22655D01*
X300834Y6271D02*
X303374D01*
X302104Y5002D02*
Y7541D01*
X322542Y60700D02*
X325082D01*
X323812Y59430D02*
Y61970D01*
X553407Y102572D02*
X555947D01*
X554677Y101302D02*
Y103842D01*
X486794Y52550D02*
X489334D01*
X488064Y51280D02*
Y53820D01*
X519360Y75198D02*
X521900D01*
X520630Y73928D02*
Y76468D01*
X581119Y102141D02*
X583658D01*
X582388Y100871D02*
Y103411D01*
X290074Y78740D02*
X292614D01*
X291344Y77470D02*
Y80010D01*
X266179Y184250D02*
X268719D01*
X267449Y182980D02*
Y185520D01*
X307158Y141373D02*
X309698D01*
X308428Y140103D02*
Y142643D01*
X330625Y124165D02*
X333165D01*
X331895Y122895D02*
Y125435D01*
X239562Y68968D02*
X242102D01*
X240832Y67698D02*
Y70238D01*
X349818Y159901D02*
X352358D01*
X351088Y158631D02*
Y161171D01*
X138583Y163654D02*
X141123D01*
X139853Y162384D02*
Y164924D01*
X180961Y116688D02*
X183501D01*
X182231Y115418D02*
Y117958D01*
X346848Y212168D02*
X349388D01*
X348118Y210898D02*
Y213438D01*
X514131Y137013D02*
X516671D01*
X515401Y135743D02*
Y138283D01*
X60512Y158911D02*
X63052D01*
X61782Y157641D02*
Y160181D01*
X227072Y60090D02*
X229612D01*
X228342Y58819D02*
Y61360D01*
X243084Y307425D02*
X245624D01*
X244354Y306155D02*
Y308695D01*
X250922Y98274D02*
X253462D01*
X252192Y97004D02*
Y99544D01*
X479575Y73703D02*
X482115D01*
X480845Y72433D02*
Y74973D01*
X495718Y176213D02*
X498259D01*
X496988Y174943D02*
Y177483D01*
X331506Y49386D02*
X334046D01*
X332776Y48116D02*
Y50656D01*
X536007Y100612D02*
X538547D01*
X537277Y99342D02*
Y101882D01*
X485477Y289597D02*
X488017D01*
X486747Y288327D02*
Y290867D01*
X347752Y305113D02*
X350292D01*
X349022Y303843D02*
Y306383D01*
X293322Y97467D02*
X295862D01*
X294592Y96197D02*
Y98737D01*
X292634Y114924D02*
X295174D01*
X293904Y113654D02*
Y116194D01*
X221205Y143720D02*
X223745D01*
X222475Y142450D02*
Y144990D01*
X414143Y51738D02*
X416683D01*
X415413Y50468D02*
Y53008D01*
X467514Y7367D02*
X470054D01*
X468784Y6097D02*
Y8637D01*
X237818Y6268D02*
X240358D01*
X239088Y4998D02*
Y7538D01*
X220827Y157693D02*
X223367D01*
X222097Y156423D02*
Y158963D01*
X207944Y150483D02*
X210484D01*
X209214Y149213D02*
Y151753D01*
X202449Y171042D02*
X204989D01*
X203719Y169772D02*
Y172312D01*
X316033Y166448D02*
X318573D01*
X317303Y165178D02*
Y167718D01*
X203160Y257963D02*
X205700D01*
X204430Y256693D02*
Y259233D01*
X285961Y292540D02*
X288501D01*
X287231Y291270D02*
Y293810D01*
X479993Y100112D02*
X482533D01*
X481263Y98841D02*
Y101382D01*
X515188Y315370D02*
X517728D01*
X516458Y314100D02*
Y316640D01*
X514254Y162323D02*
X516794D01*
X515524Y161053D02*
Y163593D01*
X319434Y215920D02*
X321974D01*
X320704Y214650D02*
Y217190D01*
X496464Y100886D02*
X499004D01*
X497734Y99616D02*
Y102156D01*
X514040Y124271D02*
X516580D01*
X515310Y123001D02*
Y125541D01*
X415972Y304351D02*
X418512D01*
X417242Y303081D02*
Y305621D01*
X493943Y281975D02*
X496483D01*
X495214Y280705D02*
Y283245D01*
X459143Y301570D02*
X461683D01*
X460413Y300300D02*
Y302840D01*
X80837Y123333D02*
X83378D01*
X82107Y122063D02*
Y124603D01*
X452859Y341104D02*
X455399D01*
X454129Y339834D02*
Y342374D01*
X54619Y232694D02*
X57158D01*
X55889Y231424D02*
Y233964D01*
X85658Y252000D02*
X88198D01*
X86928Y250730D02*
Y253270D01*
X84335Y227148D02*
X86875D01*
X85605Y225877D02*
Y228417D01*
X183828Y76322D02*
X186368D01*
X185098Y75052D02*
Y77592D01*
X145043Y59015D02*
X147583D01*
X146313Y57745D02*
Y60285D01*
X162764Y74175D02*
X165304D01*
X164034Y72905D02*
Y75445D01*
X181341Y6352D02*
X183881D01*
X182611Y5082D02*
Y7622D01*
X80708Y8442D02*
X83248D01*
X81978Y7172D02*
Y9712D01*
X164480Y46202D02*
X167020D01*
X165750Y44932D02*
Y47472D01*
X195557Y32178D02*
X198097D01*
X196827Y30908D02*
Y33448D01*
X195539Y45854D02*
X198079D01*
X196809Y44584D02*
Y47123D01*
X95240Y17474D02*
X97780D01*
X96510Y16204D02*
Y18744D01*
X559408Y76222D02*
X561948D01*
X560678Y74952D02*
Y77492D01*
X517746Y100732D02*
X520286D01*
X519016Y99462D02*
Y102002D01*
X151497Y197805D02*
X154037D01*
X152767Y196535D02*
Y199075D01*
X142114Y187618D02*
X144654D01*
X143384Y186348D02*
Y188888D01*
X131740Y176163D02*
X134280D01*
X133010Y174893D02*
Y177433D01*
X146012Y152654D02*
X148552D01*
X147282Y151383D02*
Y153924D01*
X110486Y176049D02*
X113026D01*
X111756Y174779D02*
Y177319D01*
X111282Y150350D02*
X113822D01*
X112552Y149080D02*
Y151620D01*
X40414Y143680D02*
X42954D01*
X41684Y142410D02*
Y144950D01*
X232843Y207808D02*
X235382D01*
X234112Y206538D02*
Y209078D01*
X249883Y165923D02*
X252423D01*
X251152Y164653D02*
Y167193D01*
X239658Y236309D02*
X242198D01*
X240928Y235039D02*
Y237579D01*
X266406Y202379D02*
X268946D01*
X267676Y201109D02*
Y203649D01*
X282087Y241129D02*
X284627D01*
X283357Y239859D02*
Y242399D01*
X334645Y281241D02*
X337185D01*
X335915Y279971D02*
Y282511D01*
X316300Y261840D02*
X318840D01*
X317570Y260569D02*
Y263109D01*
X173645Y291907D02*
X176185D01*
X174915Y290637D02*
Y293177D01*
X236944Y321581D02*
X239484D01*
X238214Y320311D02*
Y322851D01*
X256139Y341730D02*
X258679D01*
X257409Y340461D02*
Y343000D01*
X286193Y341730D02*
X288733D01*
X287463Y340461D02*
Y343000D01*
X316499Y341704D02*
X319039D01*
X317769Y340434D02*
Y342974D01*
X348329Y341730D02*
X350869D01*
X349599Y340461D02*
Y343000D01*
X378795Y341757D02*
X381335D01*
X380065Y340487D02*
Y343027D01*
X410986Y341919D02*
X413526D01*
X412256Y340649D02*
Y343189D01*
X494981Y340941D02*
X497521D01*
X496251Y339671D02*
Y342211D01*
X585192Y247171D02*
X587732D01*
X586462Y245901D02*
Y248441D01*
X585359Y270728D02*
X587898D01*
X586628Y269458D02*
Y271998D01*
X484473Y262667D02*
X487013D01*
X485743Y261397D02*
Y263937D01*
X581007Y74935D02*
X583547D01*
X582277Y73665D02*
Y76206D01*
X450749Y39966D02*
X453289D01*
X452019Y38696D02*
Y41236D01*
X506328Y7588D02*
X508868D01*
X507598Y6318D02*
Y8858D01*
X422039Y6313D02*
X424579D01*
X423309Y5044D02*
Y7584D01*
X362373Y6308D02*
X364913D01*
X363643Y5038D02*
Y7578D01*
X196598Y210147D02*
X199138D01*
X197868Y208877D02*
Y211417D01*
X188927Y192627D02*
X191467D01*
X190198Y191357D02*
Y193897D01*
X110665Y201959D02*
X113205D01*
X111935Y200689D02*
Y203229D01*
X110178Y226605D02*
X112718D01*
X111448Y225335D02*
Y227875D01*
X137074Y236064D02*
X139614D01*
X138344Y234794D02*
Y237334D01*
X119676Y252514D02*
X122216D01*
X120946Y251244D02*
Y253784D01*
X151684Y221216D02*
X154224D01*
X152954Y219946D02*
Y222486D01*
X219861Y227148D02*
X222401D01*
X221131Y225877D02*
Y228417D01*
X218694Y332474D02*
X221234D01*
X219964Y331204D02*
Y333744D01*
X221887Y304351D02*
X224427D01*
X223157Y303081D02*
Y305621D01*
X167514Y332159D02*
X170054D01*
X168785Y330888D02*
Y333428D01*
X128821Y331897D02*
X131361D01*
X130091Y330627D02*
Y333167D01*
X87867Y320974D02*
X90407D01*
X89137Y319704D02*
Y322244D01*
X38619Y256052D02*
X41158D01*
X39889Y254782D02*
Y257322D01*
X13858Y265776D02*
X16399D01*
X15129Y264506D02*
Y267046D01*
X35602Y91527D02*
X38142D01*
X36872Y90257D02*
Y92797D01*
X31569Y166770D02*
X34109D01*
X32838Y165500D02*
Y168040D01*
X31720Y219360D02*
X34260D01*
X32990Y218090D02*
Y220630D01*
X41220Y213402D02*
X43760D01*
X42490Y212132D02*
Y214672D01*
X41242Y203320D02*
X43782D01*
X42512Y202050D02*
Y204590D01*
X41220Y192974D02*
X43760D01*
X42490Y191704D02*
Y194244D01*
X41220Y183402D02*
X43760D01*
X42490Y182132D02*
Y184672D01*
X41331Y173944D02*
X43871D01*
X42601Y172674D02*
Y175214D01*
X117152Y114999D02*
X119692D01*
X118422Y113729D02*
Y116269D01*
X221664Y291934D02*
X224204D01*
X222934Y290664D02*
Y293204D01*
X221775Y275974D02*
X224315D01*
X223045Y274704D02*
Y277244D01*
X221887Y259974D02*
X224427D01*
X223157Y258704D02*
Y261244D01*
X124038Y49215D02*
X126578D01*
X125308Y47945D02*
Y50485D01*
X506298Y34389D02*
X508838D01*
X507568Y33119D02*
Y35659D01*
X376439Y42276D02*
X378979D01*
X377709Y41006D02*
Y43546D01*
X591566Y131064D02*
X594106D01*
X592836Y129794D02*
Y132334D01*
X591566Y143256D02*
X594106D01*
X592836Y141986D02*
Y144526D01*
X591566Y207264D02*
X594106D01*
X592836Y205994D02*
Y208534D01*
X591566Y219456D02*
X594106D01*
X592836Y218186D02*
Y220726D01*
X591566Y231648D02*
X594106D01*
X592836Y230378D02*
Y232918D01*
M02*
