G04*
G04 #@! TF.GenerationSoftware,Altium Limited,Altium Designer,22.4.2 (48)*
G04*
G04 Layer_Color=8388736*
%FSLAX44Y44*%
%MOMM*%
G71*
G04*
G04 #@! TF.SameCoordinates,3E136D79-123B-44AF-942A-25470D1848A4*
G04*
G04*
G04 #@! TF.FilePolarity,Negative*
G04*
G01*
G75*
%ADD29C,0.3500*%
%ADD39O,1.2000X3.7000*%
%ADD40R,1.0000X0.8000*%
%ADD41R,0.4000X0.8000*%
%ADD42R,0.5000X0.4500*%
%ADD43R,0.5000X0.6000*%
%ADD44R,0.3850X1.0200*%
%ADD45R,1.1500X1.7000*%
G04:AMPARAMS|DCode=46|XSize=0.65mm|YSize=0.6mm|CornerRadius=0.1125mm|HoleSize=0mm|Usage=FLASHONLY|Rotation=180.000|XOffset=0mm|YOffset=0mm|HoleType=Round|Shape=RoundedRectangle|*
%AMROUNDEDRECTD46*
21,1,0.6500,0.3750,0,0,180.0*
21,1,0.4250,0.6000,0,0,180.0*
1,1,0.2250,-0.2125,0.1875*
1,1,0.2250,0.2125,0.1875*
1,1,0.2250,0.2125,-0.1875*
1,1,0.2250,-0.2125,-0.1875*
%
%ADD46ROUNDEDRECTD46*%
%ADD47R,0.5000X0.5800*%
G04:AMPARAMS|DCode=48|XSize=0.65mm|YSize=0.6mm|CornerRadius=0.1125mm|HoleSize=0mm|Usage=FLASHONLY|Rotation=270.000|XOffset=0mm|YOffset=0mm|HoleType=Round|Shape=RoundedRectangle|*
%AMROUNDEDRECTD48*
21,1,0.6500,0.3750,0,0,270.0*
21,1,0.4250,0.6000,0,0,270.0*
1,1,0.2250,-0.1875,-0.2125*
1,1,0.2250,-0.1875,0.2125*
1,1,0.2250,0.1875,0.2125*
1,1,0.2250,0.1875,-0.2125*
%
%ADD48ROUNDEDRECTD48*%
G04:AMPARAMS|DCode=49|XSize=0.86mm|YSize=0.7604mm|CornerRadius=0.1325mm|HoleSize=0mm|Usage=FLASHONLY|Rotation=180.000|XOffset=0mm|YOffset=0mm|HoleType=Round|Shape=RoundedRectangle|*
%AMROUNDEDRECTD49*
21,1,0.8600,0.4953,0,0,180.0*
21,1,0.5949,0.7604,0,0,180.0*
1,1,0.2651,-0.2975,0.2477*
1,1,0.2651,0.2975,0.2477*
1,1,0.2651,0.2975,-0.2477*
1,1,0.2651,-0.2975,-0.2477*
%
%ADD49ROUNDEDRECTD49*%
G04:AMPARAMS|DCode=50|XSize=1.1mm|YSize=2.9mm|CornerRadius=0.15mm|HoleSize=0mm|Usage=FLASHONLY|Rotation=0.000|XOffset=0mm|YOffset=0mm|HoleType=Round|Shape=RoundedRectangle|*
%AMROUNDEDRECTD50*
21,1,1.1000,2.6000,0,0,0.0*
21,1,0.8000,2.9000,0,0,0.0*
1,1,0.3000,0.4000,-1.3000*
1,1,0.3000,-0.4000,-1.3000*
1,1,0.3000,-0.4000,1.3000*
1,1,0.3000,0.4000,1.3000*
%
%ADD50ROUNDEDRECTD50*%
G04:AMPARAMS|DCode=51|XSize=0.7mm|YSize=1.8mm|CornerRadius=0.14mm|HoleSize=0mm|Usage=FLASHONLY|Rotation=180.000|XOffset=0mm|YOffset=0mm|HoleType=Round|Shape=RoundedRectangle|*
%AMROUNDEDRECTD51*
21,1,0.7000,1.5200,0,0,180.0*
21,1,0.4200,1.8000,0,0,180.0*
1,1,0.2800,-0.2100,0.7600*
1,1,0.2800,0.2100,0.7600*
1,1,0.2800,0.2100,-0.7600*
1,1,0.2800,-0.2100,-0.7600*
%
%ADD51ROUNDEDRECTD51*%
G04:AMPARAMS|DCode=52|XSize=0.86mm|YSize=0.7604mm|CornerRadius=0.1325mm|HoleSize=0mm|Usage=FLASHONLY|Rotation=270.000|XOffset=0mm|YOffset=0mm|HoleType=Round|Shape=RoundedRectangle|*
%AMROUNDEDRECTD52*
21,1,0.8600,0.4953,0,0,270.0*
21,1,0.5949,0.7604,0,0,270.0*
1,1,0.2651,-0.2477,-0.2975*
1,1,0.2651,-0.2477,0.2975*
1,1,0.2651,0.2477,0.2975*
1,1,0.2651,0.2477,-0.2975*
%
%ADD52ROUNDEDRECTD52*%
%ADD53R,2.5500X2.2500*%
G04:AMPARAMS|DCode=54|XSize=1.4mm|YSize=0.86mm|CornerRadius=0.145mm|HoleSize=0mm|Usage=FLASHONLY|Rotation=180.000|XOffset=0mm|YOffset=0mm|HoleType=Round|Shape=RoundedRectangle|*
%AMROUNDEDRECTD54*
21,1,1.4000,0.5700,0,0,180.0*
21,1,1.1100,0.8600,0,0,180.0*
1,1,0.2900,-0.5550,0.2850*
1,1,0.2900,0.5550,0.2850*
1,1,0.2900,0.5550,-0.2850*
1,1,0.2900,-0.5550,-0.2850*
%
%ADD54ROUNDEDRECTD54*%
%ADD55R,3.2500X1.5500*%
G04:AMPARAMS|DCode=56|XSize=1.1mm|YSize=2.8mm|CornerRadius=0.15mm|HoleSize=0mm|Usage=FLASHONLY|Rotation=180.000|XOffset=0mm|YOffset=0mm|HoleType=Round|Shape=RoundedRectangle|*
%AMROUNDEDRECTD56*
21,1,1.1000,2.5000,0,0,180.0*
21,1,0.8000,2.8000,0,0,180.0*
1,1,0.3000,-0.4000,1.2500*
1,1,0.3000,0.4000,1.2500*
1,1,0.3000,0.4000,-1.2500*
1,1,0.3000,-0.4000,-1.2500*
%
%ADD56ROUNDEDRECTD56*%
G04:AMPARAMS|DCode=57|XSize=0.7mm|YSize=1.8mm|CornerRadius=0.11mm|HoleSize=0mm|Usage=FLASHONLY|Rotation=180.000|XOffset=0mm|YOffset=0mm|HoleType=Round|Shape=RoundedRectangle|*
%AMROUNDEDRECTD57*
21,1,0.7000,1.5800,0,0,180.0*
21,1,0.4800,1.8000,0,0,180.0*
1,1,0.2200,-0.2400,0.7900*
1,1,0.2200,0.2400,0.7900*
1,1,0.2200,0.2400,-0.7900*
1,1,0.2200,-0.2400,-0.7900*
%
%ADD57ROUNDEDRECTD57*%
%ADD58R,0.6000X1.2000*%
%ADD59O,1.2000X2.7000*%
%ADD60O,1.2000X2.2000*%
%ADD61C,2.9000*%
%ADD62C,3.1000*%
%ADD63C,3.6000*%
%ADD64C,1.6900*%
%ADD65R,1.6900X1.6900*%
%ADD66C,1.5500*%
D29*
X236000Y784250D02*
D03*
Y790750D02*
D03*
Y797250D02*
D03*
Y803750D02*
D03*
Y810250D02*
D03*
X242500Y784250D02*
D03*
Y790750D02*
D03*
Y797250D02*
D03*
Y803750D02*
D03*
Y810250D02*
D03*
X249000Y784250D02*
D03*
Y790750D02*
D03*
Y797250D02*
D03*
Y803750D02*
D03*
Y810250D02*
D03*
X255500Y784250D02*
D03*
Y790750D02*
D03*
Y797250D02*
D03*
Y803750D02*
D03*
Y810250D02*
D03*
X262000Y784250D02*
D03*
Y790750D02*
D03*
Y797250D02*
D03*
Y803750D02*
D03*
Y810250D02*
D03*
D39*
X28050Y869100D02*
D03*
X120450Y869100D02*
D03*
D40*
X43750Y829400D02*
D03*
X104750D02*
D03*
D41*
X51750D02*
D03*
X56750D02*
D03*
X66750D02*
D03*
X61750D02*
D03*
X76750D02*
D03*
X71750D02*
D03*
X81750D02*
D03*
X44250Y812400D02*
D03*
X49250D02*
D03*
X79250D02*
D03*
X69250D02*
D03*
X84250D02*
D03*
X59250D02*
D03*
X54250D02*
D03*
X64250D02*
D03*
X91750Y829400D02*
D03*
X96750D02*
D03*
X86750D02*
D03*
X94250Y812400D02*
D03*
X89250D02*
D03*
X99250D02*
D03*
X104250D02*
D03*
D42*
X373250Y810500D02*
D03*
X379750D02*
D03*
Y830000D02*
D03*
X373250D02*
D03*
D43*
X386250Y811250D02*
D03*
Y829250D02*
D03*
D44*
Y820250D02*
D03*
D45*
X376500D02*
D03*
D46*
X396250Y820750D02*
D03*
Y811750D02*
D03*
X415750Y812250D02*
D03*
Y821250D02*
D03*
X424250D02*
D03*
Y812250D02*
D03*
D47*
X406250Y810150D02*
D03*
Y823350D02*
D03*
D48*
X249250Y768750D02*
D03*
X240250D02*
D03*
X252000Y826250D02*
D03*
X243000D02*
D03*
X265500Y768750D02*
D03*
X256500D02*
D03*
X232250D02*
D03*
X223250D02*
D03*
X98750Y796750D02*
D03*
X89750D02*
D03*
D49*
X279700Y783750D02*
D03*
Y797750D02*
D03*
D50*
X145000Y779500D02*
D03*
X194500D02*
D03*
D51*
X176000Y813000D02*
D03*
X163500D02*
D03*
D52*
X211250Y819250D02*
D03*
X197250D02*
D03*
X463750Y783250D02*
D03*
X477750D02*
D03*
D53*
X391000Y785250D02*
D03*
X422500D02*
D03*
D54*
X214750Y807650D02*
D03*
Y789750D02*
D03*
D55*
X351750Y799250D02*
D03*
X302750D02*
D03*
D56*
X250750Y875250D02*
D03*
X176250D02*
D03*
X297000Y875250D02*
D03*
X396500D02*
D03*
D57*
X219750Y843250D02*
D03*
X232250D02*
D03*
X194750D02*
D03*
X207250D02*
D03*
X365500Y843250D02*
D03*
X328000Y843250D02*
D03*
X353000Y843250D02*
D03*
X378000D02*
D03*
X315500Y843250D02*
D03*
X340500D02*
D03*
D58*
X360500Y646250D02*
D03*
X352500D02*
D03*
X344500D02*
D03*
X336500D02*
D03*
X328500D02*
D03*
X320500D02*
D03*
X312500D02*
D03*
X304500D02*
D03*
X296500D02*
D03*
X288500D02*
D03*
X280500D02*
D03*
X272500D02*
D03*
X264500D02*
D03*
X256500D02*
D03*
X248500D02*
D03*
X240500D02*
D03*
X232500D02*
D03*
X224500D02*
D03*
X216500D02*
D03*
X208500D02*
D03*
X360500Y684250D02*
D03*
X352500D02*
D03*
X344500D02*
D03*
X336500D02*
D03*
X328500D02*
D03*
X320500D02*
D03*
X312500D02*
D03*
X304500D02*
D03*
X296500D02*
D03*
X288500D02*
D03*
X280500D02*
D03*
X272500D02*
D03*
X264500D02*
D03*
X256500D02*
D03*
X248500D02*
D03*
X240500D02*
D03*
X232500D02*
D03*
X224500D02*
D03*
X216500D02*
D03*
X208500D02*
D03*
D59*
X28050Y874100D02*
D03*
X120450Y874100D02*
D03*
D60*
X31050Y820500D02*
D03*
X117450D02*
D03*
D61*
X39500Y634250D02*
D03*
X529500Y177250D02*
D03*
D62*
X139500Y663250D02*
D03*
D63*
X528250Y845950D02*
D03*
X455250D02*
D03*
D64*
X506750Y802750D02*
D03*
D65*
X476750D02*
D03*
D66*
X378500Y650250D02*
D03*
X190500D02*
D03*
M02*
