G04*
G04 #@! TF.GenerationSoftware,Altium Limited,Altium Designer,22.4.2 (48)*
G04*
G04 Layer_Physical_Order=3*
G04 Layer_Color=128*
%FSLAX44Y44*%
%MOMM*%
G71*
G04*
G04 #@! TF.SameCoordinates,3E136D79-123B-44AF-942A-25470D1848A4*
G04*
G04*
G04 #@! TF.FilePolarity,Negative*
G04*
G01*
G75*
%ADD85C,0.6000*%
%AMTHOVALD86*
21,1,1.4000,1.4160,0,0,90.0*
1,1,1.4160,0.0000,-0.7000*
1,1,1.4160,0.0000,0.7000*
21,0,1.4000,0.9080,0,0,90.0*
1,0,0.9080,0.0000,-0.7000*
1,0,0.9080,0.0000,0.7000*
4,0,4,0.0898,-0.6102,0.5904,-1.1108,0.4108,-1.2904,-0.0898,-0.7898,0.0898,-0.6102,0.0*
4,0,4,0.0898,0.7898,-0.4108,1.2904,-0.5904,1.1108,-0.0898,0.6102,0.0898,0.7898,0.0*
4,0,4,0.0898,-0.7898,-0.4108,-1.2904,-0.5904,-1.1108,-0.0898,-0.6102,0.0898,-0.7898,0.0*
4,0,4,0.0898,0.6102,0.5904,1.1108,0.4108,1.2904,-0.0898,0.7898,0.0898,0.6102,0.0*
%
%ADD86THOVALD86*%

%AMTHOVALD87*
21,1,1.0000,1.4160,0,0,90.0*
1,1,1.4160,0.0000,-0.5000*
1,1,1.4160,0.0000,0.5000*
21,0,1.0000,0.9080,0,0,90.0*
1,0,0.9080,0.0000,-0.5000*
1,0,0.9080,0.0000,0.5000*
4,0,4,0.0898,-0.4102,0.5904,-0.9108,0.4108,-1.0904,-0.0898,-0.5898,0.0898,-0.4102,0.0*
4,0,4,0.0898,0.5898,-0.4108,1.0904,-0.5904,0.9108,-0.0898,0.4102,0.0898,0.5898,0.0*
4,0,4,0.0898,-0.5898,-0.4108,-1.0904,-0.5904,-0.9108,-0.0898,-0.4102,0.0898,-0.5898,0.0*
4,0,4,0.0898,0.4102,0.5904,0.9108,0.4108,1.0904,-0.0898,0.5898,0.0898,0.4102,0.0*
%
%ADD87THOVALD87*%

%ADD88C,3.5000*%
%ADD89C,3.3000*%
G04:AMPARAMS|DCode=90|XSize=3.426mm|YSize=3.426mm|CornerRadius=0mm|HoleSize=0mm|Usage=FLASHONLY|Rotation=0.000|XOffset=0mm|YOffset=0mm|HoleType=Round|Shape=Relief|Width=0.254mm|Gap=0.254mm|Entries=4|*
%AMTHD90*
7,0,0,3.4260,2.9180,0.2540,45*
%
%ADD90THD90*%
%ADD91C,1.3600*%
G04:AMPARAMS|DCode=92|XSize=2.076mm|YSize=2.076mm|CornerRadius=0mm|HoleSize=0mm|Usage=FLASHONLY|Rotation=0.000|XOffset=0mm|YOffset=0mm|HoleType=Round|Shape=Relief|Width=0.254mm|Gap=0.254mm|Entries=4|*
%AMTHD92*
7,0,0,2.0760,1.5680,0.2540,45*
%
%ADD92THD92*%
%ADD93C,1.7500*%
%ADD94C,0.5000*%
D85*
X2618Y4268D02*
X4518Y2368D01*
X6793Y938D01*
X9330Y51D01*
X12000Y-250D01*
X557500D01*
X560170Y51D01*
X562707Y938D01*
X564982Y2368D01*
X566882Y4268D01*
X568312Y6543D01*
X569199Y9080D01*
X569500Y11750D01*
X569500Y879750D01*
X569199Y882420D02*
X569500Y879750D01*
X568312Y884957D02*
X569199Y882420D01*
X566882Y887232D02*
X568312Y884957D01*
X564982Y889132D02*
X566882Y887232D01*
X562707Y890562D02*
X564982Y889132D01*
X560170Y891449D02*
X562707Y890562D01*
X557500Y891750D02*
X560170Y891449D01*
X12000Y891750D02*
X557500D01*
X9330Y891449D02*
X12000Y891750D01*
X6793Y890562D02*
X9330Y891449D01*
X4518Y889132D02*
X6793Y890562D01*
X2618Y887232D02*
X4518Y889132D01*
X1188Y884957D02*
X2618Y887232D01*
X301Y882420D02*
X1188Y884957D01*
X-0Y879750D02*
X301Y882420D01*
X-0Y879750D02*
X-0Y11750D01*
X301Y9080D01*
X1188Y6543D01*
X2618Y4268D01*
D86*
X28050Y874100D02*
D03*
X120450Y874100D02*
D03*
D87*
X31050Y820500D02*
D03*
X117450D02*
D03*
D88*
X39500Y634250D02*
D03*
X529500Y177250D02*
D03*
D89*
X139500Y663250D02*
D03*
D90*
X528250Y845950D02*
D03*
X455250D02*
D03*
D91*
X506750Y802750D02*
D03*
D92*
X476750D02*
D03*
D93*
X378500Y650250D02*
D03*
X190500D02*
D03*
D94*
X213580Y768750D02*
D03*
Y801250D02*
D03*
X66750Y837250D02*
D03*
X84250Y822250D02*
D03*
X71750Y823750D02*
D03*
X79250Y817750D02*
D03*
X365750Y832750D02*
D03*
Y626250D02*
D03*
X353250Y832750D02*
D03*
X353140Y630314D02*
D03*
X340750Y832750D02*
D03*
Y634750D02*
D03*
X328250Y832750D02*
D03*
X336750Y638750D02*
D03*
X198250Y832750D02*
D03*
X203750D02*
D03*
X232080Y669750D02*
D03*
Y664250D02*
D03*
X229250Y832750D02*
D03*
X222750D02*
D03*
X241250Y638750D02*
D03*
X247750D02*
D03*
M02*
